{
.appVersion = "3192";
.formatVersion = 3;
DisplayStrings = (
"HHHOOOADJUSTINGkemie@/at.case QUIVER.COM AND BOW, ZOMPYC† KILLED $7 THE FO. Amazingly, C.J. Hquaffed sıix vodkas without burping. BaAc/_corner.caps_diag_xs k ›homenononn/n.ss01 ooonnn after‹ jiving, sheUSA expired (with quizzicality). Bo rocked a £3,500 xylophone, making quiet waves of jazz. Chip required 44% booze to fix my VolkPAagen® Jetta. Cozy sphinx©waves.com quart §28.2 jug of bad milk. Even while I adjust [my expectations hıigher,] you keep NYSE amazing me. I request: be my wife. \"Exquisite farm wench\" gives body* jolt to prize stinker. Five wine¶ experts MTA jokingly quizzed sample; chablis. French wine: ‘Ze bouquet is exceptıional, aqvec just un peu of monkey Hdung.’ GQ Magazine© backers enjoyed; the Pixies’ „Wave of Mutilation.” 


glyphs = (
{
glyphname = A;
kernLeft = A;
kernRight = A;
layers = (
{
anchors = (
{
name = bottom;
pos = (380,0);
},
{
name = ogonek;
pos = (685,0);
},
{
name = top;
pos = (381,687);
}
);
hints = (
{
name = _corner.caps_diag;
options = 1;
origin = (0,4);
scale = (-1,1);
type = Corner;
}
);
layerId = "0CAF3BED-C4AC-4024-B3E1-4C69D1EF7EC0";
shapes = (
{
closed = 1;
nodes = (
(685,0,l,{
"Letterink-NibData" = {
AngleInDegrees = 336.96218;
};
}),
(397,690,l,{
"Letterink-NibData" = {
AngleInDegrees = 270;
};
}),
(363,690,l,{
"Letterink-NibData" = {
AngleInDegrees = 202.82503;
};
}),
(114,83,l,{
"Letterink-NibData" = {
AngleInDegrees = 202.38014;
};
}),
(188,53,l,{
"Letterink-NibData" = {
AngleInDegrees = 22.71999;
};
}),
(269,253,l,{
"Letterink-NibData" = {
AngleInDegrees = 236.57519;
};
}),
(214,210,l,{
"Letterink-NibData" = {
AngleInDegrees = 90;
};
}),
(546,210,l,{
"Letterink-NibData" = {
AngleInDegrees = 303.42481;
};
}),
(496,253,l,{
"Letterink-NibData" = {
AngleInDegrees = 157.34811;
};
}),
(602,0,l,{
"Letterink-NibData" = {
AngleInDegrees = 90;
};
})
);
},
{
closed = 1;
nodes = (
(378,542,l,{
"Letterink-NibData" = {
AngleInDegrees = 8.1301;
};
}),
(381,565,l,{
"Letterink-NibData" = {
AngleInDegrees = 171.8699;
};
}),
(385,542,l,{
"Letterink-NibData" = {
AngleInDegrees = 159.79358;
};
}),
(490,260,l,{
"Letterink-NibData" = {
AngleInDegrees = 35.21759;
};
}),
(512,284,l,{
"Letterink-NibData" = {
AngleInDegrees = 270;
};
}),
(244,284,l,{
"Letterink-NibData" = {
AngleInDegrees = 145.92281;
};
}),
(272,260,l,{
"Letterink-NibData" = {
AngleInDegrees = 20.73026;
};
})
);
}
);
width = 702;
},
{
anchors = (
{
name = bottom;
pos = (384,0);
},
{
name = ogonek;
pos = (676,0);
},
{
name = top;
pos = (386,684);
}
);
hints = (
{
name = _corner.caps_diag;
options = 1;
origin = (0,4);
scale = (-1,1);
type = Corner;
}
);
layerId = "49C16FD3-6177-408B-A733-AEB3898BB77C";
shapes = (
{
closed = 1;
nodes = (
(676,0,l,{
"Letterink-NibData" = {
AngleInDegrees = 337.30364;
};
}),
(389,692,l,{
"Letterink-NibData" = {
AngleInDegrees = 270;
};
}),
(383,692,l,{
"Letterink-NibData" = {
AngleInDegrees = 202.68401;
};
}),
(123,61,l,{
"Letterink-NibData" = {
AngleInDegrees = 202.61986;
};
}),
(157,45,l,{
"Letterink-NibData" = {
AngleInDegrees = 22.1315;
};
}),
(242,251,l,{
"Letterink-NibData" = {
AngleInDegrees = 235.7843;
};
}),
(213,234,l,{
"Letterink-NibData" = {
AngleInDegrees = 90;
};
}),
(554,234,l,{
"Letterink-NibData" = {
AngleInDegrees = 304.2157;
};
}),
(531,251,l,{
"Letterink-NibData" = {
AngleInDegrees = 157.41269;
};
}),
(635,0,l,{
"Letterink-NibData" = {
AngleInDegrees = 90;
};
})
);
},
{
closed = 1;
nodes = (
(377,584,l,{
"Letterink-NibData" = {
AngleInDegrees = 16.29405;
};
}),
(386,617,l,{
"Letterink-NibData" = {
AngleInDegrees = 163.21735;
};
}),
(395,584,l,{
"Letterink-NibData" = {
AngleInDegrees = 158.19859;
};
}),
(528,257,l,{
"Letterink-NibData" = {
AngleInDegrees = 32.90524;
};
}),
(537,270,l,{
"Letterink-NibData" = {
AngleInDegrees = 270;
};
}),
(228,270,l,{
"Letterink-NibData" = {
AngleInDegrees = 147.09476;
};
}),
(244,257,l,{
"Letterink-NibData" = {
AngleInDegrees = 22.09423;
};
})
);
}
);
width = 706;
},
{
anchors = (
{
name = bottom;
pos = (387,-8);
},
{
name = ogonek;
pos = (680,1);
},
{
name = top;
pos = (387,684);
}
);
associatedMasterId = "49C16FD3-6177-408B-A733-AEB3898BB77C";
layerId = "E63F2094-54D6-44F3-A00F-83DE5DFBC8F4";
name = "6 Jan 22, 16:48";
shapes = (
{
closed = 1;
nodes = (
(114,-9,o),
(142,8,o),
(156,42,cs,{
"Letterink-NibData" = {
AngleInDegrees = 22.1315;
};
}),
(241,251,l,{
"Letterink-NibData" = {
AngleInDegrees = 235.7843;
};
}),
(216,234,l,{
"Letterink-NibData" = {
AngleInDegrees = 90;
};
}),
(556,234,l,{
"Letterink-NibData" = {
AngleInDegrees = 304.2157;
};
}),
(531,251,l,{
"Letterink-NibData" = {
AngleInDegrees = 157.41269;
};
}),
(635,1,l,{
"Letterink-NibData" = {
AngleInDegrees = 90;
};
}),
(680,1,l,{
"Letterink-NibData" = {
AngleInDegrees = 337.30364;
};
}),
(391,692,l,{
"Letterink-NibData" = {
AngleInDegrees = 270;
};
}),
(383,692,l,{
"Letterink-NibData" = {
AngleInDegrees = 202.68401;
};
}),
(118,58,ls,{
"Letterink-NibData" = {
AngleInDegrees = 202.61986;
};
}),
(113,46,o),
(98,31,o),
(81,31,cs,{
"Letterink-NibData" = {
AngleInDegrees = 270;
};
}),
(62,31,o),
(46,45,o),
(41,59,c,{
"Letterink-NibData" = {
AngleInDegrees = 261.25384;
};
}),
(2,53,l,{
"Letterink-NibData" = {
AngleInDegrees = 163.85566;
};
}),
(13,15,o),
(42,-9,o),
(80,-9,cs,{
"Letterink-NibData" = {
AngleInDegrees = 90;
};
})
);
},
{
closed = 1;
nodes = (
(367,560,l,{
"Letterink-NibData" = {
AngleInDegrees = 16.29405;
};
}),
(386,625,l,{
"Letterink-NibData" = {
AngleInDegrees = 163.21735;
};
}),
(405,562,l,{
"Letterink-NibData" = {
AngleInDegrees = 158.19859;
};
}),
(527,257,l,{
"Letterink-NibData" = {
AngleInDegrees = 32.90524;
};
}),
(538,274,l,{
"Letterink-NibData" = {
AngleInDegrees = 270;
};
}),
(233,274,l,{
"Letterink-NibData" = {
AngleInDegrees = 147.09476;
};
}),
(244,257,l,{
"Letterink-NibData" = {
AngleInDegrees = 22.09423;
};
})
);
}
);
width = 718;
},
{
anchors = (
{
name = bottom;
pos = (424,0);
},
{
name = ogonek;
pos = (759,0);
},
{
name = top;
pos = (423,693);
}
);
hints = (
{
name = _corner.caps_diag;
options = 1;
origin = (0,4);
scale = (-1,1);
type = Corner;
}
);
layerId = m004;
shapes = (
{
closed = 1;
nodes = (
(759,0,l,{
"Letterink-NibData" = {
AngleInDegrees = "337.32254";
};
}),
(475,699,l,{
"Letterink-NibData" = {
AngleInDegrees = "270";
};
}),
(378,699,l,{
"Letterink-NibData" = {
AngleInDegrees = "202.53914";
};
}),
(141,143,l,{
"Letterink-NibData" = {
AngleInDegrees = "90";
};
}),
(287,65,l,{
"Letterink-NibData" = {
AngleInDegrees = "22.65189";
};
}),
(366,257,l,{
"Letterink-NibData" = {
AngleInDegrees = "236.57519";
};
}),
(270,141,l,{
"Letterink-NibData" = {
AngleInDegrees = "90";
};
}),
(580,141,l,{
"Letterink-NibData" = {
AngleInDegrees = "303.42481";
};
}),
(480,257,l,{
"Letterink-NibData" = {
AngleInDegrees = "156.96496";
};
}),
(581,0,l,{
"Letterink-NibData" = {
AngleInDegrees = "90";
};
})
);
},
{
closed = 1;
nodes = (
(453,490,l,{
"Letterink-NibData" = {
AngleInDegrees = "19.98311";
};
}),
(424,504,l,{
"Letterink-NibData" = {
AngleInDegrees = "161.56505";
};
}),
(397,490,l,{
"Letterink-NibData" = {
AngleInDegrees = "158.35875";
};
}),
(476,272,l,{
"Letterink-NibData" = {
AngleInDegrees = "34.87533";
};
}),
(518,283,l,{
"Letterink-NibData" = {
AngleInDegrees = "270";
};
}),
(327,283,l,{
"Letterink-NibData" = {
AngleInDegrees = "145.92281";
};
}),
(373,268,l,{
"Letterink-NibData" = {
AngleInDegrees = "21.36191";
};
})
);
}
);
width = 761;
}
);
metricLeft = "=H*.8";
unicode = 65;
userData = {
position = 666;
width = 20;
};
},
{
glyphname = A.ss01;
kernLeft = Atext;
kernRight = A;
layers = (
{
anchors = (
{
name = bottom;
pos = (327,0);
},
{
name = ogonek;
pos = (638,-1);
},
{
name = top;
pos = (327,690);
}
);
layerId = "0CAF3BED-C4AC-4024-B3E1-4C69D1EF7EC0";
shapes = (
{
closed = 1;
nodes = (
(106,0,l,{
"Letterink-NibData" = {
AngleInDegrees = 22.65189;
};
}),
(211,253,l,{
"Letterink-NibData" = {
AngleInDegrees = 236.57519;
};
}),
(160,210,l,{
"Letterink-NibData" = {
AngleInDegrees = 90;
};
}),
(493,210,l,{
"Letterink-NibData" = {
AngleInDegrees = 303.42481;
};
}),
(443,253,l,{
"Letterink-NibData" = {
AngleInDegrees = 156.96496;
};
}),
(549,0,l,{
"Letterink-NibData" = {
AngleInDegrees = 90;
};
}),
(638,0,l,{
"Letterink-NibData" = {
AngleInDegrees = 337.32254;
};
}),
(343,702,l,{
"Letterink-NibData" = {
AngleInDegrees = 270;
};
}),
(310,702,l,{
"Letterink-NibData" = {
AngleInDegrees = 202.53914;
};
}),
(17,0,l,{
"Letterink-NibData" = {
AngleInDegrees = 90;
};
})
);
},
{
closed = 1;
nodes = (
(316,511,l,{
"Letterink-NibData" = {
AngleInDegrees = 19.98311;
};
}),
(326,553,l,{
"Letterink-NibData" = {
AngleInDegrees = 161.56505;
};
}),
(337,511,l,{
"Letterink-NibData" = {
AngleInDegrees = 158.35875;
};
}),
(436,260,l,{
"Letterink-NibData" = {
AngleInDegrees = 34.87533;
};
}),
(461,284,l,{
"Letterink-NibData" = {
AngleInDegrees = 270;
};
}),
(191,284,l,{
"Letterink-NibData" = {
AngleInDegrees = 145.92281;
};
}),
(216,260,l,{
"Letterink-NibData" = {
AngleInDegrees = 21.36191;
};
})
);
}
);
width = 655;
},
{
anchors = (
{
name = bottom;
pos = (331,-2);
},
{
name = ogonek;
pos = (633,0);
},
{
name = top;
pos = (330,684);
}
);
layerId = "49C16FD3-6177-408B-A733-AEB3898BB77C";
shapes = (
{
closed = 1;
nodes = (
(71,0,l,{
"Letterink-NibData" = {
AngleInDegrees = 22.78241;
};
}),
(175,251,l,{
"Letterink-NibData" = {
AngleInDegrees = 235.7843;
};
}),
(154,236,l,{
"Letterink-NibData" = {
AngleInDegrees = 90;
};
}),
(507,236,l,{
"Letterink-NibData" = {
AngleInDegrees = 304.2157;
};
}),
(486,251,l,{
"Letterink-NibData" = {
AngleInDegrees = 157.02305;
};
}),
(592,0,l,{
"Letterink-NibData" = {
AngleInDegrees = 90;
};
}),
(633,0,l,{
"Letterink-NibData" = {
AngleInDegrees = 336.95898;
};
}),
(335,699,l,{
"Letterink-NibData" = {
AngleInDegrees = 270;
};
}),
(326,699,l,{
"Letterink-NibData" = {
AngleInDegrees = 202.90284;
};
}),
(30,0,l,{
"Letterink-NibData" = {
AngleInDegrees = 90;
};
})
);
},
{
closed = 1;
nodes = (
(317,585,l,{
"Letterink-NibData" = {
AngleInDegrees = 22.61986;
};
}),
(331,631,l,{
"Letterink-NibData" = {
AngleInDegrees = 160.34617;
};
}),
(344,587,l,{
"Letterink-NibData" = {
AngleInDegrees = 157.39526;
};
}),
(483,257,l,{
"Letterink-NibData" = {
AngleInDegrees = 32.90524;
};
}),
(493,272,l,{
"Letterink-NibData" = {
AngleInDegrees = 270;
};
}),
(168,272,l,{
"Letterink-NibData" = {
AngleInDegrees = 147.09476;
};
}),
(178,257,l,{
"Letterink-NibData" = {
AngleInDegrees = 22.96683;
};
})
);
}
);
width = 663;
},
{
anchors = (
{
name = bottom;
pos = (343,0);
},
{
name = ogonek;
pos = (683,0);
},
{
name = top;
pos = (342,694);
}
);
layerId = m004;
shapes = (
{
closed = 1;
nodes = (
(183,0,l,{
"Letterink-NibData" = {
AngleInDegrees = 22.65189;
};
}),
(288,257,l,{
"Letterink-NibData" = {
AngleInDegrees = 236.57519;
};
}),
(187,136,l,{
"Letterink-NibData" = {
AngleInDegrees = 90;
};
}),
(497,136,l,{
"Letterink-NibData" = {
AngleInDegrees = 303.42481;
};
}),
(397,257,l,{
"Letterink-NibData" = {
AngleInDegrees = 156.96496;
};
}),
(505,0,l,{
"Letterink-NibData" = {
AngleInDegrees = 90;
};
}),
(683,0,l,{
"Letterink-NibData" = {
AngleInDegrees = 337.32254;
};
}),
(389,694,l,{
"Letterink-NibData" = {
AngleInDegrees = 270;
};
}),
(303,694,l,{
"Letterink-NibData" = {
AngleInDegrees = 202.53914;
};
}),
(2,0,l,{
"Letterink-NibData" = {
AngleInDegrees = 90;
};
})
);
},
{
closed = 1;
nodes = (
(360,480,l,{
"Letterink-NibData" = {
AngleInDegrees = 19.98311;
};
}),
(341,484,l,{
"Letterink-NibData" = {
AngleInDegrees = 161.56505;
};
}),
(318,480,l,{
"Letterink-NibData" = {
AngleInDegrees = 158.35875;
};
}),
(389,272,l,{
"Letterink-NibData" = {
AngleInDegrees = 34.87533;
};
}),
(435,274,l,{
"Letterink-NibData" = {
AngleInDegrees = 270;
};
}),
(244,274,l,{
"Letterink-NibData" = {
AngleInDegrees = 145.92281;
};
}),
(294,268,l,{
"Letterink-NibData" = {
AngleInDegrees = 21.36191;
};
})
);
}
);
width = 685;
}
);
metricLeft = "=|A";
metricRight = A;
userData = {
position = 10;
width = 615;
};
},
{
glyphname = A.swsh;
kernLeft = A;
kernRight = A;
layers = (
{
anchors = (
{
name = bottom;
pos = (423,0);
},
{
name = ogonek;
pos = (732,0);
},
{
name = top;
pos = (421,684);
}
);
hints = (
{
name = _corner.caps_swash_diag;
options = 1;
origin = (0,4);
scale = (-1,1);
type = Corner;
},
{
name = _corner.caps_swash.big;
origin = (2,2);
type = Corner;
}
);
layerId = "0CAF3BED-C4AC-4024-B3E1-4C69D1EF7EC0";
shapes = (
{
closed = 1;
nodes = (
(732,0,l,{
"Letterink-NibData" = {
AngleInDegrees = "336.96218";
};
}),
(446,685,l,{
"Letterink-NibData" = {
AngleInDegrees = "270";
};
}),
(399,685,l,{
"Letterink-NibData" = {
AngleInDegrees = "202.82503";
};
}),
(150,83,l,{
"Letterink-NibData" = {
AngleInDegrees = "202.38014";
};
}),
(226,53,l,{
"Letterink-NibData" = {
AngleInDegrees = "22.71999";
};
}),
(307,253,l,{
"Letterink-NibData" = {
AngleInDegrees = "236.57519";
};
}),
(257,210,l,{
"Letterink-NibData" = {
AngleInDegrees = "90";
};
}),
(589,210,l,{
"Letterink-NibData" = {
AngleInDegrees = "303.42481";
};
}),
(539,253,l,{
"Letterink-NibData" = {
AngleInDegrees = "157.34811";
};
}),
(645,0,l,{
"Letterink-NibData" = {
AngleInDegrees = "90";
};
})
);
},
{
closed = 1;
nodes = (
(416,541,l,{
"Letterink-NibData" = {
AngleInDegrees = "8.130100000000001";
};
}),
(422,571,l,{
"Letterink-NibData" = {
AngleInDegrees = "171.8699";
};
}),
(429,541,l,{
"Letterink-NibData" = {
AngleInDegrees = "159.79358";
};
}),
(533,260,l,{
"Letterink-NibData" = {
AngleInDegrees = "35.21759";
};
}),
(555,284,l,{
"Letterink-NibData" = {
AngleInDegrees = "270";
};
}),
(287,284,l,{
"Letterink-NibData" = {
AngleInDegrees = "145.92281";
};
}),
(310,260,l,{
"Letterink-NibData" = {
AngleInDegrees = "20.73026";
};
})
);
},
{
closed = 1;
nodes = (
(433,609,l),
(433,685,l,{
"Letterink-NibData" = {
AngleInDegrees = "270";
};
}),
(280,685,l,{
"Letterink-NibData" = {
AngleInDegrees = "180";
};
}),
(280,609,l,{
"Letterink-NibData" = {
AngleInDegrees = "90";
};
})
);
}
);
width = 749;
},
{
anchors = (
{
name = bottom;
pos = (421,0);
},
{
name = ogonek;
pos = (713,1);
},
{
name = top;
pos = (422,684);
}
);
hints = (
{
name = _corner.caps_swash_diag;
options = 1;
origin = (0,4);
scale = (-1,1);
type = Corner;
},
{
name = _corner.caps_swash.big;
origin = (2,2);
type = Corner;
}
);
layerId = "49C16FD3-6177-408B-A733-AEB3898BB77C";
shapes = (
{
closed = 1;
nodes = (
(713,0,l,{
"Letterink-NibData" = {
AngleInDegrees = "337.30364";
};
}),
(426,684,l,{
"Letterink-NibData" = {
AngleInDegrees = "270";
};
}),
(417,684,l,{
"Letterink-NibData" = {
AngleInDegrees = "202.68401";
};
}),
(155,70,l,{
"Letterink-NibData" = {
AngleInDegrees = "202.61986";
};
}),
(189,54,l,{
"Letterink-NibData" = {
AngleInDegrees = "22.1315";
};
}),
(272,251,l,{
"Letterink-NibData" = {
AngleInDegrees = "235.7843";
};
}),
(250,234,l,{
"Letterink-NibData" = {
AngleInDegrees = "90";
};
}),
(591,234,l,{
"Letterink-NibData" = {
AngleInDegrees = "304.2157";
};
}),
(569,251,l,{
"Letterink-NibData" = {
AngleInDegrees = "157.41269";
};
}),
(672,0,l,{
"Letterink-NibData" = {
AngleInDegrees = "90";
};
})
);
},
{
closed = 1;
nodes = (
(408,576,l,{
"Letterink-NibData" = {
AngleInDegrees = "16.29405";
};
}),
(421,619,l,{
"Letterink-NibData" = {
AngleInDegrees = "163.21735";
};
}),
(435,576,l,{
"Letterink-NibData" = {
AngleInDegrees = "158.19859";
};
}),
(565,257,l,{
"Letterink-NibData" = {
AngleInDegrees = "32.90524";
};
}),
(574,270,l,{
"Letterink-NibData" = {
AngleInDegrees = "270";
};
}),
(265,270,l,{
"Letterink-NibData" = {
AngleInDegrees = "147.09476";
};
}),
(275,257,l,{
"Letterink-NibData" = {
AngleInDegrees = "22.09423";
};
})
);
},
{
closed = 1;
nodes = (
(420,648,l),
(420,684,l,{
"Letterink-NibData" = {
AngleInDegrees = "270";
};
}),
(277,684,l,{
"Letterink-NibData" = {
AngleInDegrees = "180";
};
}),
(277,648,l,{
"Letterink-NibData" = {
AngleInDegrees = "90";
};
})
);
}
);
width = 743;
},
{
anchors = (
{
name = bottom;
pos = (386,-6);
},
{
name = ogonek;
pos = (682,0);
},
{
name = top;
pos = (386,684);
}
);
associatedMasterId = "49C16FD3-6177-408B-A733-AEB3898BB77C";
layerId = "58617E73-3A60-467D-AD5A-D66EDA6AE7B6";
name = "6 Jan 22, 16:52";
shapes = (
{
closed = 1;
nodes = (
(124,-11,o),
(150,10,o),
(166,49,cs,{
"Letterink-NibData" = {
AngleInDegrees = 21.9487;
};
}),
(247,250,l,{
"Letterink-NibData" = {
AngleInDegrees = 235.7843;
};
}),
(222,233,l,{
"Letterink-NibData" = {
AngleInDegrees = 90;
};
}),
(549,233,l,{
"Letterink-NibData" = {
AngleInDegrees = 304.2157;
};
}),
(524,250,l,{
"Letterink-NibData" = {
AngleInDegrees = 157.41269;
};
}),
(628,0,l,{
"Letterink-NibData" = {
AngleInDegrees = 90;
};
}),
(677,0,l,{
"Letterink-NibData" = {
AngleInDegrees = 337.54495;
};
}),
(391,692,l,{
"Letterink-NibData" = {
AngleInDegrees = 270;
};
}),
(381,692,l,{
"Letterink-NibData" = {
AngleInDegrees = 202.29205;
};
}),
(126,70,ls,{
"Letterink-NibData" = {
AngleInDegrees = 202.47943;
};
}),
(114,41,o),
(103,30,o),
(83,30,cs,{
"Letterink-NibData" = {
AngleInDegrees = 270;
};
}),
(63,30,o),
(46,48,o),
(46,67,cs),
(46,72,o),
(47,77,o),
(49,82,c,{
"Letterink-NibData" = {
AngleInDegrees = 304.43899;
};
}),
(14,106,l,{
"Letterink-NibData" = {
AngleInDegrees = 213.69007;
};
}),
(6,94,o),
(2,76,o),
(2,66,cs,{
"Letterink-NibData" = {
AngleInDegrees = 180;
};
}),
(2,21,o),
(43,-11,o),
(85,-11,cs,{
"Letterink-NibData" = {
AngleInDegrees = 90;
};
})
);
},
{
closed = 1;
nodes = (
(372,569,l,{
"Letterink-NibData" = {
AngleInDegrees = 15.64224;
};
}),
(386,619,l,{
"Letterink-NibData" = {
AngleInDegrees = 165.42579;
};
}),
(399,569,l,{
"Letterink-NibData" = {
AngleInDegrees = 158.93765;
};
}),
(518,260,l,{
"Letterink-NibData" = {
AngleInDegrees = 35.21759;
};
}),
(530,277,l,{
"Letterink-NibData" = {
AngleInDegrees = 270;
};
}),
(241,277,l,{
"Letterink-NibData" = {
AngleInDegrees = 144.78241;
};
}),
(253,260,l,{
"Letterink-NibData" = {
AngleInDegrees = 21.06235;
};
})
);
}
);
width = 707;
},
{
anchors = (
{
name = bottom;
pos = (481,0);
},
{
name = ogonek;
pos = (823,0);
},
{
name = top;
pos = (480,694);
}
);
hints = (
{
name = _corner.caps_swash_diag;
options = 1;
origin = (0,4);
scale = (-1,1);
type = Corner;
},
{
name = _corner.caps_swash.big;
origin = (2,2);
type = Corner;
}
);
layerId = m004;
shapes = (
{
closed = 1;
nodes = (
(823,0,l,{
"Letterink-NibData" = {
AngleInDegrees = "337.32254";
};
}),
(555,684,l,{
"Letterink-NibData" = {
AngleInDegrees = "270";
};
}),
(409,684,l,{
"Letterink-NibData" = {
AngleInDegrees = "202.53914";
};
}),
(186,144,l,{
"Letterink-NibData" = {
AngleInDegrees = "90";
};
}),
(331,66,l,{
"Letterink-NibData" = {
AngleInDegrees = "22.65189";
};
}),
(424,257,l,{
"Letterink-NibData" = {
AngleInDegrees = "236.57519";
};
}),
(327,146,l,{
"Letterink-NibData" = {
AngleInDegrees = "90";
};
}),
(637,146,l,{
"Letterink-NibData" = {
AngleInDegrees = "303.42481";
};
}),
(542,257,l,{
"Letterink-NibData" = {
AngleInDegrees = "156.96496";
};
}),
(650,0,l,{
"Letterink-NibData" = {
AngleInDegrees = "90";
};
})
);
},
{
closed = 1;
nodes = (
(498,480,l,{
"Letterink-NibData" = {
AngleInDegrees = "19.98311";
};
}),
(481,484,l,{
"Letterink-NibData" = {
AngleInDegrees = "161.56505";
};
}),
(462,480,l,{
"Letterink-NibData" = {
AngleInDegrees = "158.35875";
};
}),
(529,272,l,{
"Letterink-NibData" = {
AngleInDegrees = "34.87533";
};
}),
(575,284,l,{
"Letterink-NibData" = {
AngleInDegrees = "270";
};
}),
(384,284,l,{
"Letterink-NibData" = {
AngleInDegrees = "145.92281";
};
}),
(430,268,l,{
"Letterink-NibData" = {
AngleInDegrees = "21.36191";
};
})
);
},
{
closed = 1;
nodes = (
(517,536,l),
(517,684,l,{
"Letterink-NibData" = {
AngleInDegrees = "270";
};
}),
(295,684,l,{
"Letterink-NibData" = {
AngleInDegrees = "180";
};
}),
(295,535,l)
);
}
);
width = 825;
}
);
metricLeft = A;
metricRight = A;
userData = {
position = 666;
width = 20;
};
},
{
glyphname = AE;
kernLeft = A;
kernRight = E;
layers = (
{
anchors = (
{
name = bottom;
pos = (515,0);
},
{
name = top;
pos = (526,673);
}
);
hints = (
{
name = _corner.caps_diag;
options = 1;
origin = (0,12);
scale = (-1,1);
type = Corner;
}
);
layerId = "0CAF3BED-C4AC-4024-B3E1-4C69D1EF7EC0";
shapes = (
{
closed = 1;
nodes = (
(892,-1,l),
(892,75,l,{
"Letterink-NibData" = {
AngleInDegrees = 270;
};
}),
(537,75,l),
(537,325,l,{
"Letterink-NibData" = {
AngleInDegrees = 90;
};
}),
(774,325,l),
(774,401,l,{
"Letterink-NibData" = {
AngleInDegrees = 270;
};
}),
(537,401,l),
(537,610,l,{
"Letterink-NibData" = {
AngleInDegrees = 90;
};
}),
(872,610,l),
(872,686,l,{
"Letterink-NibData" = {
AngleInDegrees = 270;
};
}),
(428,686,l,{
"Letterink-NibData" = {
AngleInDegrees = 208.5766;
};
}),
(120,86,l,{
"Letterink-NibData" = {
AngleInDegrees = 209.0546;
};
}),
(184,37,l,{
"Letterink-NibData" = {
AngleInDegrees = 26.8249;
};
}),
(289,252,l,{
"Letterink-NibData" = {
AngleInDegrees = 90;
};
}),
(232,210,l,{
"Letterink-NibData" = {
AngleInDegrees = 90;
};
}),
(491,210,l,{
"Letterink-NibData" = {
AngleInDegrees = 180;
};
}),
(455,256,l,{
"Letterink-NibData" = {
AngleInDegrees = 180;
};
}),
(455,-1,l,{
"Letterink-NibData" = {
AngleInDegrees = 90;
};
})
);
},
{
closed = 1;
nodes = (
(491,286,l,{
"Letterink-NibData" = {
AngleInDegrees = 270;
};
}),
(276,286,l,{
"Letterink-NibData" = {
AngleInDegrees = 28.71031;
};
}),
(295,264,l,{
"Letterink-NibData" = {
AngleInDegrees = 28.71031;
};
}),
(437,537,l,{
"Letterink-NibData" = {
AngleInDegrees = 23.19859;
};
}),
(455,586,l,{
"Letterink-NibData" = {
AngleInDegrees = 180;
};
}),
(455,260,l,{
"Letterink-NibData" = {
AngleInDegrees = 270;
};
})
);
}
);
width = 939;
},
{
anchors = (
{
name = bottom;
pos = (532,0);
},
{
name = top;
pos = (574,684);
}
);
hints = (
{
name = _corner.caps_diag;
options = 1;
origin = (0,12);
scale = (-1,1);
type = Corner;
}
);
layerId = "49C16FD3-6177-408B-A733-AEB3898BB77C";
shapes = (
{
closed = 1;
nodes = (
(905,1,l),
(905,37,l,{
"Letterink-NibData" = {
AngleInDegrees = 270;
};
}),
(525,37,l),
(525,346,l,{
"Letterink-NibData" = {
AngleInDegrees = 90;
};
}),
(781,346,l),
(781,382,l,{
"Letterink-NibData" = {
AngleInDegrees = 270;
};
}),
(525,382,l),
(525,649,l,{
"Letterink-NibData" = {
AngleInDegrees = 90;
};
}),
(885,649,l),
(885,685,l,{
"Letterink-NibData" = {
AngleInDegrees = 270;
};
}),
(459,685,l,{
"Letterink-NibData" = {
AngleInDegrees = 208.82166;
};
}),
(125,61,l,{
"Letterink-NibData" = {
AngleInDegrees = 213.69007;
};
}),
(157,43,l,{
"Letterink-NibData" = {
AngleInDegrees = 29.29136;
};
}),
(263,249,l,{
"Letterink-NibData" = {
AngleInDegrees = 90;
};
}),
(240,237,l,{
"Letterink-NibData" = {
AngleInDegrees = 90;
};
}),
(504,237,l,{
"Letterink-NibData" = {
AngleInDegrees = 180;
};
}),
(488,253,l,{
"Letterink-NibData" = {
AngleInDegrees = 180;
};
}),
(488,1,l,{
"Letterink-NibData" = {
AngleInDegrees = 90;
};
})
);
},
{
closed = 1;
nodes = (
(504,273,l,{
"Letterink-NibData" = {
AngleInDegrees = 270;
};
}),
(258,273,l,{
"Letterink-NibData" = {
AngleInDegrees = 28.59795;
};
}),
(269,259,l,{
"Letterink-NibData" = {
AngleInDegrees = 28.59795;
};
}),
(467,627,l,{
"Letterink-NibData" = {
AngleInDegrees = 27.32389;
};
}),
(488,663,l,{
"Letterink-NibData" = {
AngleInDegrees = 179.84962;
};
}),
(488,257,l,{
"Letterink-NibData" = {
AngleInDegrees = 270;
};
})
);
}
);
width = 925;
},
{
anchors = (
{
name = bottom;
pos = (533,0);
},
{
name = top;
pos = (541,692);
}
);
associatedMasterId = "49C16FD3-6177-408B-A733-AEB3898BB77C";
layerId = "C1A3D0A8-503D-4B78-876F-381CB7337013";
name = "11 Jan 22, 13:13";
shapes = (
{
closed = 1;
nodes = (
(124,-2,o),
(136,26,o),
(167,71,c,{
"Letterink-NibData" = {
AngleInDegrees = 29.29136;
};
}),
(259,235,l,{
"Letterink-NibData" = {
AngleInDegrees = 90;
};
}),
(487,235,l,{
"Letterink-NibData" = {
AngleInDegrees = 180;
};
}),
(487,1,l,{
"Letterink-NibData" = {
AngleInDegrees = 90;
};
}),
(906,1,l),
(906,41,l,{
"Letterink-NibData" = {
AngleInDegrees = 270;
};
}),
(529,41,l),
(529,344,l,{
"Letterink-NibData" = {
AngleInDegrees = 90;
};
}),
(783,344,l),
(783,384,l,{
"Letterink-NibData" = {
AngleInDegrees = 270;
};
}),
(529,384,l),
(529,645,l,{
"Letterink-NibData" = {
AngleInDegrees = 90;
};
}),
(886,645,l),
(886,685,l,{
"Letterink-NibData" = {
AngleInDegrees = 270;
};
}),
(459,685,l,{
"Letterink-NibData" = {
AngleInDegrees = 208.82166;
};
}),
(125,78,l,{
"Letterink-NibData" = {
AngleInDegrees = 213.69007;
};
}),
(111,57,o),
(102,38,o),
(78,38,cs,{
"Letterink-NibData" = {
AngleInDegrees = 270;
};
}),
(64,38,o),
(47,47,o),
(39,56,c,{
"Letterink-NibData" = {
AngleInDegrees = 244.0577;
};
}),
(2,38,l,{
"Letterink-NibData" = {
AngleInDegrees = 146.82149;
};
}),
(19,12,o),
(46,-2,o),
(77,-2,cs,{
"Letterink-NibData" = {
AngleInDegrees = 90;
};
})
);
},
{
closed = 1;
nodes = (
(455,596,l,{
"Letterink-NibData" = {
AngleInDegrees = 27.32389;
};
}),
(486,656,l,{
"Letterink-NibData" = {
AngleInDegrees = 179.84962;
};
}),
(487,275,l,{
"Letterink-NibData" = {
AngleInDegrees = 270;
};
}),
(280,275,l,{
"Letterink-NibData" = {
AngleInDegrees = 28.59795;
};
})
);
}
);
width = 951;
},
{
anchors = (
{
name = bottom;
pos = (523,0);
},
{
name = top;
pos = (534,673);
}
);
associatedMasterId = "0CAF3BED-C4AC-4024-B3E1-4C69D1EF7EC0";
layerId = "8D16C2AC-4E99-48C9-ADA3-C168C353B72B";
name = "11 Jan 22, 13:30";
shapes = (
{
closed = 1;
nodes = (
(122,-12,o),
(159,8,o),
(177,44,cs,{
"Letterink-NibData" = {
AngleInDegrees = 26.8249;
};
}),
(266,220,l,{
"Letterink-NibData" = {
AngleInDegrees = 90;
};
}),
(463,220,l,{
"Letterink-NibData" = {
AngleInDegrees = 180;
};
}),
(463,-1,l,{
"Letterink-NibData" = {
AngleInDegrees = 90;
};
}),
(900,-1,l),
(900,75,l,{
"Letterink-NibData" = {
AngleInDegrees = 270;
};
}),
(545,75,l),
(545,325,l,{
"Letterink-NibData" = {
AngleInDegrees = 90;
};
}),
(782,325,l),
(782,401,l,{
"Letterink-NibData" = {
AngleInDegrees = 270;
};
}),
(545,401,l),
(545,610,l,{
"Letterink-NibData" = {
AngleInDegrees = 90;
};
}),
(880,610,l),
(880,686,l,{
"Letterink-NibData" = {
AngleInDegrees = 270;
};
}),
(436,686,l,{
"Letterink-NibData" = {
AngleInDegrees = 208.5766;
};
}),
(113,93,ls,{
"Letterink-NibData" = {
AngleInDegrees = 209.0546;
};
}),
(103,75,o),
(94,67,o),
(79,67,cs,{
"Letterink-NibData" = {
AngleInDegrees = 270;
};
}),
(68,67,o),
(56,72,o),
(46,86,c,{
"Letterink-NibData" = {
AngleInDegrees = 220.6013;
};
}),
(-2,30,l,{
"Letterink-NibData" = {
AngleInDegrees = 145.7843;
};
}),
(15,5,o),
(46,-12,o),
(87,-12,cs,{
"Letterink-NibData" = {
AngleInDegrees = 90;
};
})
);
},
{
closed = 1;
nodes = (
(442,537,l,{
"Letterink-NibData" = {
AngleInDegrees = 23.19859;
};
}),
(463,586,l,{
"Letterink-NibData" = {
AngleInDegrees = 180;
};
}),
(463,296,l,{
"Letterink-NibData" = {
AngleInDegrees = 270;
};
}),
(310,296,l,{
"Letterink-NibData" = {
AngleInDegrees = 28.71031;
};
})
);
}
);
width = 942;
},
{
anchors = (
{
name = bottom;
pos = (612,0);
},
{
name = top;
pos = (623,684);
}
);
hints = (
{
name = _corner.caps_diag;
options = 1;
origin = (0,12);
scale = (-1,1);
type = Corner;
}
);
layerId = m004;
shapes = (
{
closed = 1;
nodes = (
(955,0,l),
(955,148,l,{
"Letterink-NibData" = {
AngleInDegrees = "270";
};
}),
(656,148,l),
(656,281,l,{
"Letterink-NibData" = {
AngleInDegrees = "90";
};
}),
(845,281,l),
(845,419,l,{
"Letterink-NibData" = {
AngleInDegrees = "270";
};
}),
(656,419,l),
(656,536,l,{
"Letterink-NibData" = {
AngleInDegrees = "90";
};
}),
(935,536,l),
(935,684,l,{
"Letterink-NibData" = {
AngleInDegrees = "270";
};
}),
(436,684,l,{
"Letterink-NibData" = {
AngleInDegrees = "209.70894";
};
}),
(141,145,l,{
"Letterink-NibData" = {
AngleInDegrees = "89.3704";
};
}),
(288,70,l,{
"Letterink-NibData" = {
AngleInDegrees = "28.81079";
};
}),
(384,256,l,{
"Letterink-NibData" = {
AngleInDegrees = "90";
};
}),
(292,146,l,{
"Letterink-NibData" = {
AngleInDegrees = "90";
};
}),
(561,146,l,{
"Letterink-NibData" = {
AngleInDegrees = "180";
};
}),
(491,264,l,{
"Letterink-NibData" = {
AngleInDegrees = "180";
};
}),
(491,0,l,{
"Letterink-NibData" = {
AngleInDegrees = "90";
};
})
);
},
{
closed = 1;
nodes = (
(561,284,l,{
"Letterink-NibData" = {
AngleInDegrees = "270";
};
}),
(373,284,l,{
"Letterink-NibData" = {
AngleInDegrees = "28.68615";
};
}),
(410,279,l,{
"Letterink-NibData" = {
AngleInDegrees = "28.68615";
};
}),
(496,488,l,{
"Letterink-NibData" = {
AngleInDegrees = "23.62938";
};
}),
(491,449,l,{
"Letterink-NibData" = {
AngleInDegrees = "180";
};
}),
(491,275,l,{
"Letterink-NibData" = {
AngleInDegrees = "270";
};
})
);
}
);
width = 965;
},
{
anchors = (
{
name = bottom;
pos = (512,0);
},
{
name = top;
pos = (523,673);
}
);
associatedMasterId = m004;
layerId = "80EF8790-0869-49FF-90A7-EBAC34F5F575";
name = "11 Jan 22, 13:30";
shapes = (
{
closed = 1;
nodes = (
(111,-12,o),
(148,8,o),
(166,44,cs,{
"Letterink-NibData" = {
AngleInDegrees = 26.8249;
};
}),
(255,220,l,{
"Letterink-NibData" = {
AngleInDegrees = 90;
};
}),
(452,220,l,{
"Letterink-NibData" = {
AngleInDegrees = 180;
};
}),
(452,-1,l,{
"Letterink-NibData" = {
AngleInDegrees = 90;
};
}),
(889,-1,l),
(889,75,l,{
"Letterink-NibData" = {
AngleInDegrees = 270;
};
}),
(534,75,l),
(534,325,l,{
"Letterink-NibData" = {
AngleInDegrees = 90;
};
}),
(771,325,l),
(771,401,l,{
"Letterink-NibData" = {
AngleInDegrees = 270;
};
}),
(534,401,l),
(534,610,l,{
"Letterink-NibData" = {
AngleInDegrees = 90;
};
}),
(869,610,l),
(869,686,l,{
"Letterink-NibData" = {
AngleInDegrees = 270;
};
}),
(425,686,l,{
"Letterink-NibData" = {
AngleInDegrees = 208.5766;
};
}),
(102,93,ls,{
"Letterink-NibData" = {
AngleInDegrees = 209.0546;
};
}),
(92,75,o),
(83,67,o),
(68,67,cs,{
"Letterink-NibData" = {
AngleInDegrees = 270;
};
}),
(57,67,o),
(45,72,o),
(35,86,c,{
"Letterink-NibData" = {
AngleInDegrees = 220.6013;
};
}),
(-13,30,l,{
"Letterink-NibData" = {
AngleInDegrees = 145.7843;
};
}),
(4,5,o),
(35,-12,o),
(76,-12,cs,{
"Letterink-NibData" = {
AngleInDegrees = 90;
};
})
);
},
{
closed = 1;
nodes = (
(431,537,l,{
"Letterink-NibData" = {
AngleInDegrees = 23.19859;
};
}),
(452,586,l,{
"Letterink-NibData" = {
AngleInDegrees = 180;
};
}),
(452,296,l,{
"Letterink-NibData" = {
AngleInDegrees = 270;
};
}),
(299,296,l,{
"Letterink-NibData" = {
AngleInDegrees = 28.71031;
};
})
);
}
);
width = 931;
}
);
metricLeft = A;
unicode = 198;
userData = {
position = 422;
width = 61;
};
},
{
glyphname = AE.ss01;
kernLeft = Atext;
kernRight = E;
layers = (
{
anchors = (
{
name = bottom;
pos = (486,0);
},
{
name = top;
pos = (497,673);
}
);
layerId = "0CAF3BED-C4AC-4024-B3E1-4C69D1EF7EC0";
shapes = (
{
closed = 1;
nodes = (
(108,0,l,{
"Letterink-NibData" = {
AngleInDegrees = 28.81079;
};
}),
(246,252,l,{
"Letterink-NibData" = {
AngleInDegrees = 90;
};
}),
(193,210,l,{
"Letterink-NibData" = {
AngleInDegrees = 90;
};
}),
(462,210,l,{
"Letterink-NibData" = {
AngleInDegrees = 180;
};
}),
(426,256,l,{
"Letterink-NibData" = {
AngleInDegrees = 180;
};
}),
(426,-1,l,{
"Letterink-NibData" = {
AngleInDegrees = 90;
};
}),
(853,-1,l),
(853,75,l,{
"Letterink-NibData" = {
AngleInDegrees = 270;
};
}),
(508,75,l),
(508,325,l,{
"Letterink-NibData" = {
AngleInDegrees = 90;
};
}),
(735,325,l),
(735,401,l,{
"Letterink-NibData" = {
AngleInDegrees = 270;
};
}),
(508,401,l),
(508,610,l,{
"Letterink-NibData" = {
AngleInDegrees = 90;
};
}),
(833,610,l),
(833,686,l,{
"Letterink-NibData" = {
AngleInDegrees = 270;
};
}),
(409,686,l,{
"Letterink-NibData" = {
AngleInDegrees = 209.70894;
};
}),
(17,-1,l,{
"Letterink-NibData" = {
AngleInDegrees = 89.3704;
};
})
);
},
{
closed = 1;
nodes = (
(462,286,l,{
"Letterink-NibData" = {
AngleInDegrees = 270;
};
}),
(231,286,l,{
"Letterink-NibData" = {
AngleInDegrees = 28.68615;
};
}),
(250,264,l,{
"Letterink-NibData" = {
AngleInDegrees = 28.68615;
};
}),
(412,561,l,{
"Letterink-NibData" = {
AngleInDegrees = 23.62938;
};
}),
(426,593,l,{
"Letterink-NibData" = {
AngleInDegrees = 180;
};
}),
(426,260,l,{
"Letterink-NibData" = {
AngleInDegrees = 270;
};
})
);
}
);
width = 894;
},
{
anchors = (
{
name = bottom;
pos = (461,0);
},
{
name = top;
pos = (534,684);
}
);
layerId = "49C16FD3-6177-408B-A733-AEB3898BB77C";
shapes = (
{
closed = 1;
nodes = (
(72,1,l,{
"Letterink-NibData" = {
AngleInDegrees = 28.2127;
};
}),
(205,250,l,{
"Letterink-NibData" = {
AngleInDegrees = 90;
};
}),
(171,236,l,{
"Letterink-NibData" = {
AngleInDegrees = 90;
};
}),
(433,236,l,{
"Letterink-NibData" = {
AngleInDegrees = 180;
};
}),
(417,252,l,{
"Letterink-NibData" = {
AngleInDegrees = 180;
};
}),
(417,1,l,{
"Letterink-NibData" = {
AngleInDegrees = 90;
};
}),
(837,1,l),
(837,37,l,{
"Letterink-NibData" = {
AngleInDegrees = 270;
};
}),
(454,37,l),
(454,346,l,{
"Letterink-NibData" = {
AngleInDegrees = 90;
};
}),
(714,346,l),
(714,382,l,{
"Letterink-NibData" = {
AngleInDegrees = 270;
};
}),
(454,382,l),
(454,649,l,{
"Letterink-NibData" = {
AngleInDegrees = 90;
};
}),
(817,649,l),
(817,685,l,{
"Letterink-NibData" = {
AngleInDegrees = 270;
};
}),
(401,685,l,{
"Letterink-NibData" = {
AngleInDegrees = 208.86222;
};
}),
(30,1,l,{
"Letterink-NibData" = {
AngleInDegrees = 90;
};
})
);
},
{
closed = 1;
nodes = (
(433,272,l,{
"Letterink-NibData" = {
AngleInDegrees = 270;
};
}),
(187,272,l,{
"Letterink-NibData" = {
AngleInDegrees = 28.9193;
};
}),
(210,257,l,{
"Letterink-NibData" = {
AngleInDegrees = 28.9193;
};
}),
(394,601,l,{
"Letterink-NibData" = {
AngleInDegrees = 32.55;
};
}),
(417,650,l,{
"Letterink-NibData" = {
AngleInDegrees = 180;
};
}),
(417,256,l,{
"Letterink-NibData" = {
AngleInDegrees = 270;
};
})
);
}
);
width = 884;
},
{
anchors = (
{
name = bottom;
pos = (430,0);
},
{
name = top;
pos = (501,684);
}
);
layerId = m004;
shapes = (
{
closed = 1;
nodes = (
(185,1,l,{
"Letterink-NibData" = {
AngleInDegrees = "28.81079";
};
}),
(323,256,l,{
"Letterink-NibData" = {
AngleInDegrees = "90";
};
}),
(231,146,l,{
"Letterink-NibData" = {
AngleInDegrees = "90";
};
}),
(500,146,l,{
"Letterink-NibData" = {
AngleInDegrees = "180";
};
}),
(430,264,l,{
"Letterink-NibData" = {
AngleInDegrees = "180";
};
}),
(430,0,l,{
"Letterink-NibData" = {
AngleInDegrees = "90";
};
}),
(894,0,l),
(894,148,l,{
"Letterink-NibData" = {
AngleInDegrees = "270";
};
}),
(595,148,l),
(595,281,l,{
"Letterink-NibData" = {
AngleInDegrees = "90";
};
}),
(784,281,l),
(784,419,l,{
"Letterink-NibData" = {
AngleInDegrees = "270";
};
}),
(595,419,l),
(595,536,l,{
"Letterink-NibData" = {
AngleInDegrees = "90";
};
}),
(874,536,l),
(874,684,l,{
"Letterink-NibData" = {
AngleInDegrees = "270";
};
}),
(375,684,l,{
"Letterink-NibData" = {
AngleInDegrees = "209.70894";
};
}),
(2,0,l,{
"Letterink-NibData" = {
AngleInDegrees = "89.3704";
};
})
);
},
{
closed = 1;
nodes = (
(500,284,l,{
"Letterink-NibData" = {
AngleInDegrees = "270";
};
}),
(312,284,l,{
"Letterink-NibData" = {
AngleInDegrees = "28.68615";
};
}),
(349,279,l,{
"Letterink-NibData" = {
AngleInDegrees = "28.68615";
};
}),
(431,488,l,{
"Letterink-NibData" = {
AngleInDegrees = "23.62938";
};
}),
(430,449,l,{
"Letterink-NibData" = {
AngleInDegrees = "180";
};
}),
(430,275,l,{
"Letterink-NibData" = {
AngleInDegrees = "270";
};
})
);
}
);
width = 934;
}
);
metricLeft = A.ss01;
metricRight = E;
userData = {
position = 422;
width = 61;
};
},
{
glyphname = AE.swsh;
kernLeft = A;
kernRight = E;
layers = (
{
anchors = (
{
name = bottom;
pos = (533,0);
},
{
name = top;
pos = (544,673);
}
);
hints = (
{
name = _corner.caps_swash_diag;
options = 1;
origin = (0,12);
scale = (-1,1);
type = Corner;
},
{
name = _corner.caps_swash.big;
origin = (2,2);
type = Corner;
}
);
layerId = "0CAF3BED-C4AC-4024-B3E1-4C69D1EF7EC0";
shapes = (
{
closed = 1;
nodes = (
(910,-1,l),
(910,75,l,{
"Letterink-NibData" = {
AngleInDegrees = 270;
};
}),
(555,75,l),
(555,325,l,{
"Letterink-NibData" = {
AngleInDegrees = 90;
};
}),
(792,325,l),
(792,401,l,{
"Letterink-NibData" = {
AngleInDegrees = 270;
};
}),
(555,401,l),
(555,610,l,{
"Letterink-NibData" = {
AngleInDegrees = 90;
};
}),
(890,610,l),
(890,686,l,{
"Letterink-NibData" = {
AngleInDegrees = 270;
};
}),
(446,686,l,{
"Letterink-NibData" = {
AngleInDegrees = 208.5766;
};
}),
(148,116,l,{
"Letterink-NibData" = {
AngleInDegrees = 209.0546;
};
}),
(211,67,l,{
"Letterink-NibData" = {
AngleInDegrees = 26.8249;
};
}),
(302,252,l,{
"Letterink-NibData" = {
AngleInDegrees = 90;
};
}),
(250,210,l,{
"Letterink-NibData" = {
AngleInDegrees = 90;
};
}),
(509,210,l,{
"Letterink-NibData" = {
AngleInDegrees = 180;
};
}),
(473,256,l,{
"Letterink-NibData" = {
AngleInDegrees = 180;
};
}),
(473,-1,l,{
"Letterink-NibData" = {
AngleInDegrees = 90;
};
})
);
},
{
closed = 1;
nodes = (
(509,286,l,{
"Letterink-NibData" = {
AngleInDegrees = 270;
};
}),
(294,286,l,{
"Letterink-NibData" = {
AngleInDegrees = 28.71031;
};
}),
(313,264,l,{
"Letterink-NibData" = {
AngleInDegrees = 28.71031;
};
}),
(457,537,l,{
"Letterink-NibData" = {
AngleInDegrees = 23.19859;
};
}),
(473,586,l,{
"Letterink-NibData" = {
AngleInDegrees = 180;
};
}),
(473,260,l,{
"Letterink-NibData" = {
AngleInDegrees = 270;
};
})
);
},
{
closed = 1;
nodes = (
(449,609,l),
(449,685,l,{
"Letterink-NibData" = {
AngleInDegrees = "270";
};
}),
(296,685,l,{
"Letterink-NibData" = {
AngleInDegrees = "180";
};
}),
(296,609,l,{
"Letterink-NibData" = {
AngleInDegrees = "90";
};
})
);
}
);
width = 957;
},
{
anchors = (
{
name = bottom;
pos = (567,0);
},
{
name = top;
pos = (575,694);
}
);
hints = (
{
name = _corner.caps_swash_diag;
options = 1;
origin = (0,12);
scale = (-1,1);
type = Corner;
},
{
name = _corner.caps_swash.big;
origin = (2,2);
type = Corner;
}
);
layerId = "49C16FD3-6177-408B-A733-AEB3898BB77C";
shapes = (
{
closed = 1;
nodes = (
(939,1,l),
(939,37,l,{
"Letterink-NibData" = {
AngleInDegrees = 270;
};
}),
(560,37,l),
(560,346,l,{
"Letterink-NibData" = {
AngleInDegrees = 90;
};
}),
(816,346,l),
(816,382,l,{
"Letterink-NibData" = {
AngleInDegrees = 270;
};
}),
(560,382,l),
(560,649,l,{
"Letterink-NibData" = {
AngleInDegrees = 90;
};
}),
(919,649,l),
(919,685,l,{
"Letterink-NibData" = {
AngleInDegrees = 270;
};
}),
(502,685,l,{
"Letterink-NibData" = {
AngleInDegrees = 208.82166;
};
}),
(154,65,l,{
"Letterink-NibData" = {
AngleInDegrees = 213.69007;
};
}),
(188,48,l,{
"Letterink-NibData" = {
AngleInDegrees = 29.29136;
};
}),
(303,249,l,{
"Letterink-NibData" = {
AngleInDegrees = 90;
};
}),
(275,237,l,{
"Letterink-NibData" = {
AngleInDegrees = 90;
};
}),
(538,237,l,{
"Letterink-NibData" = {
AngleInDegrees = 180;
};
}),
(522,253,l,{
"Letterink-NibData" = {
AngleInDegrees = 180;
};
}),
(522,1,l,{
"Letterink-NibData" = {
AngleInDegrees = 90;
};
})
);
},
{
closed = 1;
nodes = (
(538,273,l,{
"Letterink-NibData" = {
AngleInDegrees = 270;
};
}),
(293,273,l,{
"Letterink-NibData" = {
AngleInDegrees = 28.59795;
};
}),
(306,259,l,{
"Letterink-NibData" = {
AngleInDegrees = 28.59795;
};
}),
(495,600,l,{
"Letterink-NibData" = {
AngleInDegrees = 27.32389;
};
}),
(521,650,l,{
"Letterink-NibData" = {
AngleInDegrees = 179.84962;
};
}),
(522,257,l,{
"Letterink-NibData" = {
AngleInDegrees = 270;
};
})
);
},
{
closed = 1;
nodes = (
(502,648,l),
(502,684,l,{
"Letterink-NibData" = {
AngleInDegrees = "270";
};
}),
(359,684,l,{
"Letterink-NibData" = {
AngleInDegrees = "180";
};
}),
(359,648,l,{
"Letterink-NibData" = {
AngleInDegrees = "90";
};
})
);
}
);
width = 959;
},
{
anchors = (
{
name = bottom;
pos = (533,0);
},
{
name = top;
pos = (541,692);
}
);
associatedMasterId = "49C16FD3-6177-408B-A733-AEB3898BB77C";
layerId = "C1A3D0A8-503D-4B78-876F-381CB7337013";
name = "11 Jan 22, 13:13";
shapes = (
{
closed = 1;
nodes = (
(124,-2,o),
(136,26,o),
(167,71,c,{
"Letterink-NibData" = {
AngleInDegrees = 29.29136;
};
}),
(259,235,l,{
"Letterink-NibData" = {
AngleInDegrees = 90;
};
}),
(487,235,l,{
"Letterink-NibData" = {
AngleInDegrees = 180;
};
}),
(487,1,l,{
"Letterink-NibData" = {
AngleInDegrees = 90;
};
}),
(906,1,l),
(906,41,l,{
"Letterink-NibData" = {
AngleInDegrees = 270;
};
}),
(529,41,l),
(529,344,l,{
"Letterink-NibData" = {
AngleInDegrees = 90;
};
}),
(783,344,l),
(783,384,l,{
"Letterink-NibData" = {
AngleInDegrees = 270;
};
}),
(529,384,l),
(529,645,l,{
"Letterink-NibData" = {
AngleInDegrees = 90;
};
}),
(886,645,l),
(886,685,l,{
"Letterink-NibData" = {
AngleInDegrees = 270;
};
}),
(459,685,l,{
"Letterink-NibData" = {
AngleInDegrees = 208.82166;
};
}),
(125,78,l,{
"Letterink-NibData" = {
AngleInDegrees = 213.69007;
};
}),
(111,57,o),
(102,38,o),
(78,38,cs,{
"Letterink-NibData" = {
AngleInDegrees = 270;
};
}),
(64,38,o),
(47,47,o),
(39,56,c,{
"Letterink-NibData" = {
AngleInDegrees = 244.0577;
};
}),
(2,38,l,{
"Letterink-NibData" = {
AngleInDegrees = 146.82149;
};
}),
(19,12,o),
(46,-2,o),
(77,-2,cs,{
"Letterink-NibData" = {
AngleInDegrees = 90;
};
})
);
},
{
closed = 1;
nodes = (
(455,596,l,{
"Letterink-NibData" = {
AngleInDegrees = 27.32389;
};
}),
(486,656,l,{
"Letterink-NibData" = {
AngleInDegrees = 179.84962;
};
}),
(487,275,l,{
"Letterink-NibData" = {
AngleInDegrees = 270;
};
}),
(280,275,l,{
"Letterink-NibData" = {
AngleInDegrees = 28.59795;
};
})
);
}
);
width = 951;
},
{
anchors = (
{
name = bottom;
pos = (523,0);
},
{
name = top;
pos = (534,673);
}
);
associatedMasterId = "0CAF3BED-C4AC-4024-B3E1-4C69D1EF7EC0";
layerId = "8D16C2AC-4E99-48C9-ADA3-C168C353B72B";
name = "11 Jan 22, 13:30";
shapes = (
{
closed = 1;
nodes = (
(122,-12,o),
(159,8,o),
(177,44,cs,{
"Letterink-NibData" = {
AngleInDegrees = 26.8249;
};
}),
(266,220,l,{
"Letterink-NibData" = {
AngleInDegrees = 90;
};
}),
(463,220,l,{
"Letterink-NibData" = {
AngleInDegrees = 180;
};
}),
(463,-1,l,{
"Letterink-NibData" = {
AngleInDegrees = 90;
};
}),
(900,-1,l),
(900,75,l,{
"Letterink-NibData" = {
AngleInDegrees = 270;
};
}),
(545,75,l),
(545,325,l,{
"Letterink-NibData" = {
AngleInDegrees = 90;
};
}),
(782,325,l),
(782,401,l,{
"Letterink-NibData" = {
AngleInDegrees = 270;
};
}),
(545,401,l),
(545,610,l,{
"Letterink-NibData" = {
AngleInDegrees = 90;
};
}),
(880,610,l),
(880,686,l,{
"Letterink-NibData" = {
AngleInDegrees = 270;
};
}),
(436,686,l,{
"Letterink-NibData" = {
AngleInDegrees = 208.5766;
};
}),
(113,93,ls,{
"Letterink-NibData" = {
AngleInDegrees = 209.0546;
};
}),
(103,75,o),
(94,67,o),
(79,67,cs,{
"Letterink-NibData" = {
AngleInDegrees = 270;
};
}),
(68,67,o),
(56,72,o),
(46,86,c,{
"Letterink-NibData" = {
AngleInDegrees = 220.6013;
};
}),
(-2,30,l,{
"Letterink-NibData" = {
AngleInDegrees = 145.7843;
};
}),
(15,5,o),
(46,-12,o),
(87,-12,cs,{
"Letterink-NibData" = {
AngleInDegrees = 90;
};
})
);
},
{
closed = 1;
nodes = (
(442,537,l,{
"Letterink-NibData" = {
AngleInDegrees = 23.19859;
};
}),
(463,586,l,{
"Letterink-NibData" = {
AngleInDegrees = 180;
};
}),
(463,296,l,{
"Letterink-NibData" = {
AngleInDegrees = 270;
};
}),
(310,296,l,{
"Letterink-NibData" = {
AngleInDegrees = 28.71031;
};
})
);
}
);
width = 942;
},
{
anchors = (
{
name = bottom;
pos = (528,0);
},
{
name = top;
pos = (660,673);
}
);
hints = (
{
name = _corner.caps_swash_diag;
options = 1;
origin = (0,12);
scale = (-1,1);
type = Corner;
},
{
name = _corner.caps_swash.big;
origin = (2,2);
type = Corner;
}
);
layerId = m004;
shapes = (
{
closed = 1;
nodes = (
(992,0,l),
(992,148,l,{
"Letterink-NibData" = {
AngleInDegrees = "270";
};
}),
(693,148,l),
(693,291,l,{
"Letterink-NibData" = {
AngleInDegrees = "90";
};
}),
(882,291,l),
(882,429,l,{
"Letterink-NibData" = {
AngleInDegrees = "270";
};
}),
(693,429,l),
(693,536,l,{
"Letterink-NibData" = {
AngleInDegrees = "90";
};
}),
(972,536,l),
(972,684,l,{
"Letterink-NibData" = {
AngleInDegrees = "270";
};
}),
(468,684,l,{
"Letterink-NibData" = {
AngleInDegrees = "209.70894";
};
}),
(187,143,l,{
"Letterink-NibData" = {
AngleInDegrees = "89.3704";
};
}),
(327,58,l,{
"Letterink-NibData" = {
AngleInDegrees = "28.81079";
};
}),
(421,256,l,{
"Letterink-NibData" = {
AngleInDegrees = "90";
};
}),
(329,146,l,{
"Letterink-NibData" = {
AngleInDegrees = "90";
};
}),
(598,146,l,{
"Letterink-NibData" = {
AngleInDegrees = "180";
};
}),
(528,264,l,{
"Letterink-NibData" = {
AngleInDegrees = "180";
};
}),
(528,0,l,{
"Letterink-NibData" = {
AngleInDegrees = "90";
};
})
);
},
{
closed = 1;
nodes = (
(598,284,l,{
"Letterink-NibData" = {
AngleInDegrees = "270";
};
}),
(410,284,l,{
"Letterink-NibData" = {
AngleInDegrees = "28.68615";
};
}),
(447,279,l,{
"Letterink-NibData" = {
AngleInDegrees = "28.68615";
};
}),
(530,488,l,{
"Letterink-NibData" = {
AngleInDegrees = "23.62938";
};
}),
(528,449,l,{
"Letterink-NibData" = {
AngleInDegrees = "180";
};
}),
(528,275,l,{
"Letterink-NibData" = {
AngleInDegrees = "270";
};
})
);
},
{
closed = 1;
nodes = (
(517,536,l),
(517,684,l,{
"Letterink-NibData" = {
AngleInDegrees = "270";
};
}),
(295,684,l,{
"Letterink-NibData" = {
AngleInDegrees = "180";
};
}),
(296,535,l)
);
}
);
width = 1002;
},
{
anchors = (
{
name = bottom;
pos = (512,0);
},
{
name = top;
pos = (523,673);
}
);
associatedMasterId = m004;
layerId = "80EF8790-0869-49FF-90A7-EBAC34F5F575";
name = "11 Jan 22, 13:30";
shapes = (
{
closed = 1;
nodes = (
(111,-12,o),
(148,8,o),
(166,44,cs,{
"Letterink-NibData" = {
AngleInDegrees = 26.8249;
};
}),
(255,220,l,{
"Letterink-NibData" = {
AngleInDegrees = 90;
};
}),
(452,220,l,{
"Letterink-NibData" = {
AngleInDegrees = 180;
};
}),
(452,-1,l,{
"Letterink-NibData" = {
AngleInDegrees = 90;
};
}),
(889,-1,l),
(889,75,l,{
"Letterink-NibData" = {
AngleInDegrees = 270;
};
}),
(534,75,l),
(534,325,l,{
"Letterink-NibData" = {
AngleInDegrees = 90;
};
}),
(771,325,l),
(771,401,l,{
"Letterink-NibData" = {
AngleInDegrees = 270;
};
}),
(534,401,l),
(534,610,l,{
"Letterink-NibData" = {
AngleInDegrees = 90;
};
}),
(869,610,l),
(869,686,l,{
"Letterink-NibData" = {
AngleInDegrees = 270;
};
}),
(425,686,l,{
"Letterink-NibData" = {
AngleInDegrees = 208.5766;
};
}),
(102,93,ls,{
"Letterink-NibData" = {
AngleInDegrees = 209.0546;
};
}),
(92,75,o),
(83,67,o),
(68,67,cs,{
"Letterink-NibData" = {
AngleInDegrees = 270;
};
}),
(57,67,o),
(45,72,o),
(35,86,c,{
"Letterink-NibData" = {
AngleInDegrees = 220.6013;
};
}),
(-13,30,l,{
"Letterink-NibData" = {
AngleInDegrees = 145.7843;
};
}),
(4,5,o),
(35,-12,o),
(76,-12,cs,{
"Letterink-NibData" = {
AngleInDegrees = 90;
};
})
);
},
{
closed = 1;
nodes = (
(431,537,l,{
"Letterink-NibData" = {
AngleInDegrees = 23.19859;
};
}),
(452,586,l,{
"Letterink-NibData" = {
AngleInDegrees = 180;
};
}),
(452,296,l,{
"Letterink-NibData" = {
AngleInDegrees = 270;
};
}),
(299,296,l,{
"Letterink-NibData" = {
AngleInDegrees = 28.71031;
};
})
);
}
);
width = 931;
}
);
metricLeft = A.swsh;
userData = {
position = 422;
width = 61;
};
},
{
glyphname = B;
kernLeft = E;
kernRight = B;
layers = (
{
anchors = (
{
name = bottom;
pos = (333,0);
},
{
name = center;
pos = (343,368);
},
{
name = top;
pos = (333,684);
}
);
hints = (
{
name = _corner.caps_left;
origin = (0,18);
type = Corner;
}
);
layerId = "0CAF3BED-C4AC-4024-B3E1-4C69D1EF7EC0";
shapes = (
{
closed = 1;
nodes = (
(503,-10,o),
(596,63,o),
(596,190,cs),
(596,269,o),
(561,322,o),
(507,350,cs),
(491,359,o),
(473,367,o),
(454,370,c,{
"Letterink-NibData" = {
AngleInDegrees = 71.56505;
};
}),
(469,373,o),
(488,380,o),
(506,392,cs),
(537,411,o),
(566,446,o),
(566,511,cs),
(566,617,o),
(486,684,o),
(358,684,cs,{
"Letterink-NibData" = {
AngleInDegrees = 270;
};
}),
(132,684,l,{
"Letterink-NibData" = {
AngleInDegrees = 180;
};
}),
(132,608,l,{
"Letterink-NibData" = {
AngleInDegrees = 90;
};
}),
(359,608,l,{
"Letterink-NibData" = {
AngleInDegrees = 93.91825;
};
}),
(442,608,o),
(484,568,o),
(484,508,cs,{
"Letterink-NibData" = {
AngleInDegrees = 180;
};
}),
(484,443,o),
(435,401,o),
(357,401,cs,{
"Letterink-NibData" = {
AngleInDegrees = 270;
};
}),
(172,401,l,{
"Letterink-NibData" = {
AngleInDegrees = 180;
};
}),
(172,325,l,{
"Letterink-NibData" = {
AngleInDegrees = 90;
};
}),
(364,324,ls,{
"Letterink-NibData" = {
AngleInDegrees = 90;
};
}),
(457,324,o),
(515,273,o),
(515,188,cs,{
"Letterink-NibData" = {
AngleInDegrees = 180;
};
}),
(515,102,o),
(456,66,o),
(331,64,cs,{
"Letterink-NibData" = {
AngleInDegrees = 270;
};
}),
(295,63,o),
(252,65,o),
(214,71,c),
(214,642,l,{
"Letterink-NibData" = {
AngleInDegrees = 270;
};
}),
(132,642,l,{
"Letterink-NibData" = {
AngleInDegrees = 180;
};
}),
(132,2,l,{
"Letterink-NibData" = {
AngleInDegrees = 96.54629;
};
}),
(208,-7,o),
(242,-10,o),
(318,-10,cs,{
"Letterink-NibData" = {
AngleInDegrees = 90;
};
})
);
}
);
width = 647;
},
{
anchors = (
{
name = bottom;
pos = (320,-2);
},
{
name = center;
pos = (337,367);
},
{
name = top;
pos = (320,684);
}
);
hints = (
{
name = _corner.caps_left;
origin = (0,18);
type = Corner;
}
);
layerId = "49C16FD3-6177-408B-A733-AEB3898BB77C";
shapes = (
{
closed = 1;
nodes = (
(454,-9,o),
(577,43,o),
(577,181,cs),
(577,254,o),
(540,315,o),
(470,349,cs,{
"Letterink-NibData" = {
AngleInDegrees = 305.53768;
};
}),
(459,354,o),
(435,361,o),
(407,366,c,{
"Letterink-NibData" = {
AngleInDegrees = 75.67728;
};
}),
(437,373,o),
(456,375,o),
(485,398,cs,{
"Letterink-NibData" = {
AngleInDegrees = 53.1301;
};
}),
(515,422,o),
(544,453,o),
(544,515,cs),
(544,633,o),
(451,684,o),
(347,684,cs,{
"Letterink-NibData" = {
AngleInDegrees = 270;
};
}),
(134,684,l,{
"Letterink-NibData" = {
AngleInDegrees = 180;
};
}),
(134,648,l,{
"Letterink-NibData" = {
AngleInDegrees = 90;
};
}),
(363,648,l,{
"Letterink-NibData" = {
AngleInDegrees = 93.81407;
};
}),
(454,648,o),
(505,598,o),
(505,519,cs,{
"Letterink-NibData" = {
AngleInDegrees = 180;
};
}),
(505,425,o),
(433,382,o),
(346,382,cs,{
"Letterink-NibData" = {
AngleInDegrees = 270;
};
}),
(160,382,l,{
"Letterink-NibData" = {
AngleInDegrees = 180;
};
}),
(160,346,l,{
"Letterink-NibData" = {
AngleInDegrees = 90;
};
}),
(353,346,ls,{
"Letterink-NibData" = {
AngleInDegrees = 90;
};
}),
(473,346,o),
(539,271,o),
(539,181,cs,{
"Letterink-NibData" = {
AngleInDegrees = 180;
};
}),
(539,78,o),
(455,26,o),
(339,26,cs,{
"Letterink-NibData" = {
AngleInDegrees = 270;
};
}),
(331,26,o),
(221,26,o),
(172,32,c),
(172,654,l,{
"Letterink-NibData" = {
AngleInDegrees = 270;
};
}),
(131,654,l,{
"Letterink-NibData" = {
AngleInDegrees = 90;
};
}),
(135,3,l,{
"Letterink-NibData" = {
AngleInDegrees = 98.65254;
};
}),
(221,-11,o),
(270,-9,o),
(346,-9,cs,{
"Letterink-NibData" = {
AngleInDegrees = 90;
};
})
);
}
);
width = 638;
},
{
anchors = (
{
name = bottom;
pos = (391,-2);
},
{
name = center;
pos = (391,356);
},
{
name = top;
pos = (386,684);
}
);
hints = (
{
name = _corner.caps_left;
origin = (0,18);
type = Corner;
}
);
layerId = m004;
shapes = (
{
closed = 1;
nodes = (
(528,-12,o),
(659,38,o),
(659,195,cs),
(659,254,o),
(626,313,o),
(581,339,cs),
(551,356,o),
(535,361,o),
(507,365,c,{
"Letterink-NibData" = {
AngleInDegrees = "77.90524000000001";
};
}),
(539,369,o),
(555,377,o),
(574,391,cs,{
"Letterink-NibData" = {
AngleInDegrees = "63.90458";
};
}),
(622,426,o),
(637,471,o),
(637,520,cs),
(637,617,o),
(553,684,o),
(420,684,cs,{
"Letterink-NibData" = {
AngleInDegrees = "270";
};
}),
(166,684,l,{
"Letterink-NibData" = {
AngleInDegrees = "180";
};
}),
(166,536,l),
(420,536,ls,{
"Letterink-NibData" = {
AngleInDegrees = "90";
};
}),
(455,536,o),
(476,513,o),
(476,485,cs,{
"Letterink-NibData" = {
AngleInDegrees = "180";
};
}),
(476,451,o),
(453,424,o),
(426,424,cs,{
"Letterink-NibData" = {
AngleInDegrees = "269.3338";
};
}),
(301,424,l,{
"Letterink-NibData" = {
AngleInDegrees = "180.77422";
};
}),
(301,289,l,{
"Letterink-NibData" = {
AngleInDegrees = "90";
};
}),
(417,289,ls,{
"Letterink-NibData" = {
AngleInDegrees = "90";
};
}),
(465,289,o),
(504,258,o),
(504,211,cs,{
"Letterink-NibData" = {
AngleInDegrees = "180";
};
}),
(504,158,o),
(467,132,o),
(393,132,cs,{
"Letterink-NibData" = {
AngleInDegrees = "270";
};
}),
(370,132,o),
(356,133,o),
(331,137,c),
(331,551,l,{
"Letterink-NibData" = {
AngleInDegrees = "90";
};
}),
(166,552,l),
(166,6,l,{
"Letterink-NibData" = {
AngleInDegrees = "96.44159999999999";
};
}),
(256,-11,o),
(305,-13,o),
(371,-13,cs)
);
}
);
width = 687;
}
);
metricLeft = E;
unicode = 66;
userData = {
position = 514;
width = 59;
};
},
{
glyphname = B.ss01;
kernLeft = L;
kernRight = B;
layers = (
{
anchors = (
{
name = bottom;
pos = (269,0);
},
{
name = center;
pos = (279,370);
},
{
name = top;
pos = (269,684);
}
);
layerId = "0CAF3BED-C4AC-4024-B3E1-4C69D1EF7EC0";
shapes = (
{
closed = 1;
nodes = (
(439,-10,o),
(532,63,o),
(532,190,cs),
(532,264,o),
(501,318,o),
(451,348,cs,{
"Letterink-NibData" = {
AngleInDegrees = 300.96376;
};
}),
(424,364,o),
(392,368,o),
(380,370,c,{
"Letterink-NibData" = {
AngleInDegrees = 71.56505;
};
}),
(394,372,o),
(414,375,o),
(434,385,cs,{
"Letterink-NibData" = {
AngleInDegrees = 63.43495;
};
}),
(478,407,o),
(502,453,o),
(502,511,cs),
(502,617,o),
(422,684,o),
(294,684,cs,{
"Letterink-NibData" = {
AngleInDegrees = 270;
};
}),
(68,684,l,{
"Letterink-NibData" = {
AngleInDegrees = 180;
};
}),
(68,606,l,{
"Letterink-NibData" = {
AngleInDegrees = 90;
};
}),
(295,606,l,{
"Letterink-NibData" = {
AngleInDegrees = 93.91825;
};
}),
(378,601,o),
(420,568,o),
(420,508,cs,{
"Letterink-NibData" = {
AngleInDegrees = 180;
};
}),
(420,443,o),
(371,401,o),
(293,401,cs,{
"Letterink-NibData" = {
AngleInDegrees = 270;
};
}),
(108,401,l,{
"Letterink-NibData" = {
AngleInDegrees = 180;
};
}),
(108,325,l,{
"Letterink-NibData" = {
AngleInDegrees = 90;
};
}),
(300,324,ls,{
"Letterink-NibData" = {
AngleInDegrees = 90;
};
}),
(393,324,o),
(451,273,o),
(451,188,cs,{
"Letterink-NibData" = {
AngleInDegrees = 180;
};
}),
(451,102,o),
(392,66,o),
(267,64,cs,{
"Letterink-NibData" = {
AngleInDegrees = 270;
};
}),
(231,63,o),
(188,65,o),
(150,71,c),
(150,642,l,{
"Letterink-NibData" = {
AngleInDegrees = 270;
};
}),
(68,642,l,{
"Letterink-NibData" = {
AngleInDegrees = 180;
};
}),
(68,2,l,{
"Letterink-NibData" = {
AngleInDegrees = 96.54629;
};
}),
(138,-7,o),
(174,-10,o),
(254,-10,cs,{
"Letterink-NibData" = {
AngleInDegrees = 90;
};
})
);
}
);
width = 583;
},
{
anchors = (
{
name = bottom;
pos = (269,0);
},
{
name = center;
pos = (263,363);
},
{
name = top;
pos = (269,684);
}
);
layerId = "49C16FD3-6177-408B-A733-AEB3898BB77C";
shapes = (
{
closed = 1;
nodes = (
(438,-9,o),
(526,58,o),
(526,177,cs),
(526,256,o),
(487,317,o),
(429,346,cs,{
"Letterink-NibData" = {
AngleInDegrees = 305.53768;
};
}),
(407,356,o),
(381,361,o),
(356,365,c,{
"Letterink-NibData" = {
AngleInDegrees = 75.67728;
};
}),
(384,369,o),
(413,380,o),
(442,403,cs,{
"Letterink-NibData" = {
AngleInDegrees = 53.1301;
};
}),
(476,430,o),
(493,467,o),
(493,516,cs),
(493,619,o),
(417,684,o),
(296,684,cs,{
"Letterink-NibData" = {
AngleInDegrees = 270;
};
}),
(80,684,l,{
"Letterink-NibData" = {
AngleInDegrees = 180;
};
}),
(80,648,l,{
"Letterink-NibData" = {
AngleInDegrees = 90;
};
}),
(312,648,l,{
"Letterink-NibData" = {
AngleInDegrees = 93.81407;
};
}),
(405,641,o),
(454,596,o),
(454,520,cs,{
"Letterink-NibData" = {
AngleInDegrees = 180;
};
}),
(454,435,o),
(393,382,o),
(295,382,cs,{
"Letterink-NibData" = {
AngleInDegrees = 270;
};
}),
(113,382,l,{
"Letterink-NibData" = {
AngleInDegrees = 180;
};
}),
(113,347,l,{
"Letterink-NibData" = {
AngleInDegrees = 90;
};
}),
(302,347,ls,{
"Letterink-NibData" = {
AngleInDegrees = 90;
};
}),
(412,347,o),
(488,276,o),
(488,179,cs,{
"Letterink-NibData" = {
AngleInDegrees = 180;
};
}),
(488,63,o),
(412,26,o),
(259,26,cs,{
"Letterink-NibData" = {
AngleInDegrees = 270;
};
}),
(224,26,o),
(147,29,o),
(121,32,c),
(121,654,l,{
"Letterink-NibData" = {
AngleInDegrees = 270;
};
}),
(80,654,l,{
"Letterink-NibData" = {
AngleInDegrees = 90;
};
}),
(81,3,l,{
"Letterink-NibData" = {
AngleInDegrees = 98.65254;
};
}),
(161,-11,o),
(205,-9,o),
(303,-9,cs,{
"Letterink-NibData" = {
AngleInDegrees = 90;
};
})
);
}
);
width = 587;
},
{
anchors = (
{
name = bottom;
pos = (277,0);
},
{
name = center;
pos = (277,356);
},
{
name = top;
pos = (277,684);
}
);
layerId = m004;
shapes = (
{
closed = 1;
nodes = (
(405,-14,o),
(545,31,o),
(545,195,cs),
(545,254,o),
(512,313,o),
(467,339,cs),
(437,356,o),
(421,361,o),
(393,365,c,{
"Letterink-NibData" = {
AngleInDegrees = "77.90524000000001";
};
}),
(425,369,o),
(441,377,o),
(460,391,cs,{
"Letterink-NibData" = {
AngleInDegrees = "63.90458";
};
}),
(508,426,o),
(523,471,o),
(523,520,cs),
(523,617,o),
(439,686,o),
(306,686,cs,{
"Letterink-NibData" = {
AngleInDegrees = "270";
};
}),
(52,686,l,{
"Letterink-NibData" = {
AngleInDegrees = "180";
};
}),
(52,535,l),
(306,536,ls,{
"Letterink-NibData" = {
AngleInDegrees = "90";
};
}),
(341,536,o),
(362,513,o),
(362,485,cs,{
"Letterink-NibData" = {
AngleInDegrees = "180";
};
}),
(362,451,o),
(339,424,o),
(312,424,cs,{
"Letterink-NibData" = {
AngleInDegrees = "269.3338";
};
}),
(187,424,l,{
"Letterink-NibData" = {
AngleInDegrees = "180.77422";
};
}),
(187,289,l,{
"Letterink-NibData" = {
AngleInDegrees = "90";
};
}),
(303,289,ls,{
"Letterink-NibData" = {
AngleInDegrees = "90";
};
}),
(351,289,o),
(390,258,o),
(390,211,cs,{
"Letterink-NibData" = {
AngleInDegrees = "180";
};
}),
(390,158,o),
(353,132,o),
(279,132,cs,{
"Letterink-NibData" = {
AngleInDegrees = "270";
};
}),
(256,132,o),
(242,133,o),
(217,137,c),
(217,551,l,{
"Letterink-NibData" = {
AngleInDegrees = "90";
};
}),
(52,552,l),
(52,6,l,{
"Letterink-NibData" = {
AngleInDegrees = "96.44159999999999";
};
}),
(127,-9,o),
(174,-13,o),
(247,-13,cs)
);
}
);
width = 573;
}
);
metricLeft = N.ss01;
metricRight = B;
userData = {
position = 494;
width = 59;
};
},
{
glyphname = B.swsh;
kernLeft = Swash;
kernRight = B;
layers = (
{
anchors = (
{
name = bottom;
pos = (367,0);
},
{
name = center;
pos = (377,369);
},
{
name = top;
pos = (367,684);
}
);
background = {
hints = (
{
name = _corner.caps_swash;
origin = (0,18);
type = Corner;
}
);
shapes = (
{
closed = 1;
nodes = (
(536,-10,o),
(615,76,o),
(615,187,cs),
(615,254,o),
(587,306,o),
(548,335,cs,{
"Letterink-NibData" = {
AngleInDegrees = 306.46923;
};
}),
(525,352,o),
(486,363,o),
(463,363,c,{
"Letterink-NibData" = {
AngleInDegrees = 78.69007;
};
}),
(483,367,o),
(509,368,o),
(536,393,cs,{
"Letterink-NibData" = {
AngleInDegrees = 47.91084;
};
}),
(567,421,o),
(584,458,o),
(584,506,cs),
(584,621,o),
(495,685,o),
(376,685,cs,{
"Letterink-NibData" = {
AngleInDegrees = 270;
};
}),
(140,685,l,{
"Letterink-NibData" = {
AngleInDegrees = 180;
};
}),
(140,609,l,{
"Letterink-NibData" = {
AngleInDegrees = 90;
};
}),
(389,609,ls,{
"Letterink-NibData" = {
AngleInDegrees = 90;
};
}),
(459,609,o),
(502,571,o),
(502,509,cs,{
"Letterink-NibData" = {
AngleInDegrees = 180;
};
}),
(502,434,o),
(449,401,o),
(375,401,cs,{
"Letterink-NibData" = {
AngleInDegrees = 270;
};
}),
(288,401,l,{
"Letterink-NibData" = {
AngleInDegrees = 180;
};
}),
(288,324,l,{
"Letterink-NibData" = {
AngleInDegrees = 90;
};
}),
(382,324,ls,{
"Letterink-NibData" = {
AngleInDegrees = 90;
};
}),
(463,324,o),
(533,278,o),
(533,191,cs,{
"Letterink-NibData" = {
AngleInDegrees = 180;
};
}),
(533,97,o),
(469,66,o),
(353,66,cs,{
"Letterink-NibData" = {
AngleInDegrees = 270;
};
}),
(334,66,o),
(323,67,o),
(241,71,c),
(241,561,l,{
"Letterink-NibData" = {
AngleInDegrees = 270;
};
}),
(159,561,l,{
"Letterink-NibData" = {
AngleInDegrees = 180;
};
}),
(159,2,l,{
"Letterink-NibData" = {
AngleInDegrees = 96.34019;
};
}),
(222,-5,ls,{
"Letterink-NibData" = {
AngleInDegrees = 97.12502;
};
}),
(246,-8,o),
(300,-10,o),
(347,-10,cs,{
"Letterink-NibData" = {
AngleInDegrees = 90;
};
})
);
}
);
};
hints = (
{
name = _corner.caps_swash;
options = 2;
origin = (0,18);
type = Corner;
}
);
layerId = "0CAF3BED-C4AC-4024-B3E1-4C69D1EF7EC0";
shapes = (
{
closed = 1;
nodes = (
(537,-10,o),
(630,63,o),
(630,190,cs),
(630,264,o),
(599,318,o),
(553,345,cs,{
"Letterink-NibData" = {
AngleInDegrees = "300.96376";
};
}),
(524,363,o),
(490,369,o),
(478,370,c,{
"Letterink-NibData" = {
AngleInDegrees = "71.56505";
};
}),
(491,373,o),
(512,375,o),
(533,386,cs,{
"Letterink-NibData" = {
AngleInDegrees = "63.43495";
};
}),
(576,407,o),
(600,453,o),
(600,511,cs),
(600,617,o),
(520,684,o),
(392,684,cs,{
"Letterink-NibData" = {
AngleInDegrees = "270";
};
}),
(166,684,l,{
"Letterink-NibData" = {
AngleInDegrees = "180";
};
}),
(166,608,l,{
"Letterink-NibData" = {
AngleInDegrees = "90";
};
}),
(393,608,l,{
"Letterink-NibData" = {
AngleInDegrees = "93.91825";
};
}),
(476,603,o),
(518,568,o),
(518,508,cs,{
"Letterink-NibData" = {
AngleInDegrees = "180";
};
}),
(518,443,o),
(469,401,o),
(391,401,cs,{
"Letterink-NibData" = {
AngleInDegrees = "270";
};
}),
(296,401,l,{
"Letterink-NibData" = {
AngleInDegrees = "180";
};
}),
(296,325,l,{
"Letterink-NibData" = {
AngleInDegrees = "90";
};
}),
(398,325,ls,{
"Letterink-NibData" = {
AngleInDegrees = "90";
};
}),
(491,325,o),
(549,273,o),
(549,193,cs,{
"Letterink-NibData" = {
AngleInDegrees = "180";
};
}),
(549,112,o),
(490,66,o),
(361,64,cs,{
"Letterink-NibData" = {
AngleInDegrees = "270";
};
}),
(329,63,o),
(286,65,o),
(248,71,c),
(248,560,l,{
"Letterink-NibData" = {
AngleInDegrees = "270";
};
}),
(166,560,l,{
"Letterink-NibData" = {
AngleInDegrees = "180";
};
}),
(166,2,l,{
"Letterink-NibData" = {
AngleInDegrees = "96.54629";
};
}),
(232,-7,o),
(276,-10,o),
(352,-10,cs,{
"Letterink-NibData" = {
AngleInDegrees = "90";
};
})
);
}
);
width = 668;
},
{
anchors = (
{
name = bottom;
pos = (306,0);
},
{
name = center;
pos = (324,367);
},
{
name = top;
pos = (306,684);
}
);
background = {
hints = (
{
name = _corner.caps_swash;
origin = (0,18);
type = Corner;
}
);
shapes = (
{
closed = 1;
nodes = (
(495,-9,o),
(589,47,o),
(589,178,cs),
(589,266,o),
(547,319,o),
(483,351,cs,{
"Letterink-NibData" = {
AngleInDegrees = 296.56505;
};
}),
(475,355,o),
(444,362,o),
(429,365,c,{
"Letterink-NibData" = {
AngleInDegrees = 80.83765;
};
}),
(460,370,o),
(478,380,o),
(480,381,cs,{
"Letterink-NibData" = {
AngleInDegrees = 63.43495;
};
}),
(530,406,o),
(558,452,o),
(558,514,cs),
(558,620,o),
(467,685,o),
(360,685,cs,{
"Letterink-NibData" = {
AngleInDegrees = 270;
};
}),
(122,685,l,{
"Letterink-NibData" = {
AngleInDegrees = 180;
};
}),
(122,645,l,{
"Letterink-NibData" = {
AngleInDegrees = 90;
};
}),
(374,645,l,{
"Letterink-NibData" = {
AngleInDegrees = 93.40644;
};
}),
(458,640,o),
(515,593,o),
(515,517,cs,{
"Letterink-NibData" = {
AngleInDegrees = 180;
};
}),
(515,425,o),
(445,383,o),
(359,383,cs,{
"Letterink-NibData" = {
AngleInDegrees = 270;
};
}),
(277,383,l,{
"Letterink-NibData" = {
AngleInDegrees = 180;
};
}),
(277,345,l,{
"Letterink-NibData" = {
AngleInDegrees = 90;
};
}),
(366,345,ls,{
"Letterink-NibData" = {
AngleInDegrees = 90;
};
}),
(461,345,o),
(547,289,o),
(547,182,cs,{
"Letterink-NibData" = {
AngleInDegrees = 180;
};
}),
(547,78,o),
(467,29,o),
(334,29,cs,{
"Letterink-NibData" = {
AngleInDegrees = 270;
};
}),
(316,29,o),
(271,31,o),
(195,34,c),
(195,591,l,{
"Letterink-NibData" = {
AngleInDegrees = 270;
};
}),
(153,591,l,{
"Letterink-NibData" = {
AngleInDegrees = 180;
};
}),
(153,1,l,{
"Letterink-NibData" = {
AngleInDegrees = 94.96974;
};
}),
(199,-3,ls,{
"Letterink-NibData" = {
AngleInDegrees = 94.92711;
};
}),
(257,-8,o),
(284,-9,o),
(314,-9,cs,{
"Letterink-NibData" = {
AngleInDegrees = 90;
};
})
);
}
);
};
hints = (
{
name = _corner.caps_swash;
origin = (0,18);
type = Corner;
}
);
layerId = "49C16FD3-6177-408B-A733-AEB3898BB77C";
shapes = (
{
closed = 1;
nodes = (
(513,-9,o),
(601,58,o),
(601,177,cs),
(601,256,o),
(562,319,o),
(503,348,cs,{
"Letterink-NibData" = {
AngleInDegrees = "305.53768";
};
}),
(482,358,o),
(456,363,o),
(431,364,c,{
"Letterink-NibData" = {
AngleInDegrees = "75.67728";
};
}),
(459,371,o),
(488,379,o),
(518,403,cs,{
"Letterink-NibData" = {
AngleInDegrees = "53.1301";
};
}),
(551,430,o),
(568,467,o),
(568,516,cs),
(568,619,o),
(492,684,o),
(371,684,cs,{
"Letterink-NibData" = {
AngleInDegrees = "270";
};
}),
(155,684,l,{
"Letterink-NibData" = {
AngleInDegrees = "180";
};
}),
(155,648,l,{
"Letterink-NibData" = {
AngleInDegrees = "90";
};
}),
(387,648,l,{
"Letterink-NibData" = {
AngleInDegrees = "93.81407";
};
}),
(480,641,o),
(529,596,o),
(529,520,cs,{
"Letterink-NibData" = {
AngleInDegrees = "180";
};
}),
(529,435,o),
(468,382,o),
(370,382,cs,{
"Letterink-NibData" = {
AngleInDegrees = "270";
};
}),
(281,382,l,{
"Letterink-NibData" = {
AngleInDegrees = "180";
};
}),
(281,347,l,{
"Letterink-NibData" = {
AngleInDegrees = "90";
};
}),
(377,347,ls,{
"Letterink-NibData" = {
AngleInDegrees = "90";
};
}),
(479,347,o),
(563,280,o),
(563,183,cs,{
"Letterink-NibData" = {
AngleInDegrees = "180";
};
}),
(563,76,o),
(487,26,o),
(352,26,cs,{
"Letterink-NibData" = {
AngleInDegrees = "270";
};
}),
(300,26,o),
(222,29,o),
(196,32,c),
(196,597,l,{
"Letterink-NibData" = {
AngleInDegrees = "270";
};
}),
(155,597,l,{
"Letterink-NibData" = {
AngleInDegrees = "179.91332";
};
}),
(156,3,l,{
"Letterink-NibData" = {
AngleInDegrees = "98.65254";
};
}),
(246,-13,o),
(280,-9,o),
(378,-9,cs,{
"Letterink-NibData" = {
AngleInDegrees = "90";
};
})
);
}
);
width = 642;
},
{
anchors = (
{
name = bottom;
pos = (397,0);
},
{
name = center;
pos = (397,355);
},
{
name = top;
pos = (397,684);
}
);
hints = (
{
name = _corner.caps_swash;
options = 2;
origin = (0,18);
type = Corner;
}
);
layerId = m004;
shapes = (
{
closed = 1;
nodes = (
(549,-14,o),
(689,32,o),
(689,195,cs),
(689,254,o),
(656,313,o),
(611,339,cs),
(581,356,o),
(565,361,o),
(537,365,c,{
"Letterink-NibData" = {
AngleInDegrees = "77.90524000000001";
};
}),
(569,369,o),
(585,377,o),
(604,391,cs,{
"Letterink-NibData" = {
AngleInDegrees = "63.90458";
};
}),
(652,426,o),
(667,471,o),
(667,520,cs),
(667,617,o),
(583,686,o),
(450,686,cs,{
"Letterink-NibData" = {
AngleInDegrees = "270";
};
}),
(196,686,l,{
"Letterink-NibData" = {
AngleInDegrees = "180";
};
}),
(196,538,l),
(450,539,ls,{
"Letterink-NibData" = {
AngleInDegrees = "90";
};
}),
(485,539,o),
(506,513,o),
(506,485,cs,{
"Letterink-NibData" = {
AngleInDegrees = "180";
};
}),
(506,451,o),
(483,425,o),
(456,424,cs,{
"Letterink-NibData" = {
AngleInDegrees = "269.3338";
};
}),
(406,423,l,{
"Letterink-NibData" = {
AngleInDegrees = "180.77422";
};
}),
(406,289,l,{
"Letterink-NibData" = {
AngleInDegrees = "90";
};
}),
(447,289,ls,{
"Letterink-NibData" = {
AngleInDegrees = "90";
};
}),
(495,289,o),
(534,258,o),
(534,211,cs,{
"Letterink-NibData" = {
AngleInDegrees = "180";
};
}),
(534,158,o),
(497,132,o),
(423,132,cs,{
"Letterink-NibData" = {
AngleInDegrees = "270";
};
}),
(400,132,o),
(386,133,o),
(361,137,c),
(361,498,l,{
"Letterink-NibData" = {
AngleInDegrees = "90";
};
}),
(196,499,l),
(196,6,l,{
"Letterink-NibData" = {
AngleInDegrees = "96.44159999999999";
};
}),
(273,-9,o),
(325,-13,o),
(394,-13,cs)
);
}
);
width = 717;
}
);
metricLeft = E.swsh;
userData = {
position = 514;
width = 59;
};
},
{
glyphname = C;
kernLeft = O;
kernRight = C;
layers = (
{
anchors = (
{
name = bottom;
pos = (392,-5);
},
{
name = top;
pos = (391,689);
}
);
background = {
shapes = (
{
closed = 1;
nodes = (
(578,-25,o),
(724,126,o),
(724,326,cs),
(724,355,ls),
(724,548,o),
(572,702,o),
(382,702,cs,{
"Letterink-NibData" = {
AngleInDegrees = "270";
};
}),
(192,702,o),
(41,548,o),
(41,355,cs,{
"Letterink-NibData" = {
AngleInDegrees = "180";
};
}),
(41,326,ls,{
"Letterink-NibData" = {
AngleInDegrees = "180";
};
}),
(41,126,o),
(185,-19,o),
(386,-22,cs,{
"Letterink-NibData" = {
AngleInDegrees = "90.89517371732774";
};
})
);
},
{
closed = 1;
nodes = (
(235,54,o),
(123,170,o),
(123,326,cs),
(123,355,ls),
(123,504,o),
(237,626,o),
(381,626,cs,{
"Letterink-NibData" = {
AngleInDegrees = "90";
};
}),
(527,626,o),
(642,504,o),
(642,355,cs,{
"Letterink-NibData" = {
AngleInDegrees = "180";
};
}),
(642,326,ls,{
"Letterink-NibData" = {
AngleInDegrees = "180";
};
}),
(642,170,o),
(530,54,o),
(383,54,cs,{
"Letterink-NibData" = {
AngleInDegrees = "270";
};
})
);
}
);
};
layerId = "0CAF3BED-C4AC-4024-B3E1-4C69D1EF7EC0";
shapes = (
{
closed = 1;
nodes = (
(506,-19,o),
(608,33,o),
(662,121,c),
(599,159,l),
(558,95,o),
(480,55,o),
(390,55,cs),
(235,55,o),
(126,173,o),
(126,338,cs),
(126,507,o),
(240,627,o),
(399,627,cs),
(492,627,o),
(562,586,o),
(562,529,cs),
(562,511,o),
(555,496,o),
(538,496,cs),
(529,496,o),
(521,500,o),
(517,503,c),
(475,447,l),
(494,431,o),
(515,422,o),
(538,422,cs),
(592,422,o),
(636,472,o),
(636,533,cs),
(636,628,o),
(528,703,o),
(396,703,cs),
(203,703,o),
(46,541,o),
(46,332,cs),
(46,132,o),
(189,-19,o),
(389,-19,cs)
);
}
);
width = 703;
},
{
anchors = (
{
name = bottom;
pos = (404,-4);
},
{
name = top;
pos = (406,688);
}
);
background = {
shapes = (
{
closed = 1;
nodes = (
(595,-14,o),
(737,131,o),
(737,331,cs),
(737,350,ls),
(737,550,o),
(589,702,o),
(395,702,cs,{
"Letterink-NibData" = {
AngleInDegrees = "270";
};
}),
(201,702,o),
(55,551,o),
(55,350,cs,{
"Letterink-NibData" = {
AngleInDegrees = "180";
};
}),
(55,331,ls,{
"Letterink-NibData" = {
AngleInDegrees = "180";
};
}),
(55,133,o),
(202,-14,o),
(399,-14,cs,{
"Letterink-NibData" = {
AngleInDegrees = "90";
};
})
);
},
{
closed = 1;
nodes = (
(225,24,o),
(97,156,o),
(97,331,cs),
(97,350,ls),
(97,526,o),
(226,662,o),
(394,662,cs,{
"Letterink-NibData" = {
AngleInDegrees = "90";
};
}),
(563,662,o),
(695,526,o),
(695,350,cs,{
"Letterink-NibData" = {
AngleInDegrees = "180";
};
}),
(695,331,ls,{
"Letterink-NibData" = {
AngleInDegrees = "180";
};
}),
(695,156,o),
(566,24,o),
(396,24,cs,{
"Letterink-NibData" = {
AngleInDegrees = "270";
};
})
);
}
);
};
layerId = "49C16FD3-6177-408B-A733-AEB3898BB77C";
shapes = (
{
closed = 1;
nodes = (
(522,-10,o),
(627,47,o),
(673,130,c),
(643,148,l),
(601,76,o),
(508,26,o),
(402,26,cs),
(229,26,o),
(96,148,o),
(96,327,cs),
(96,532,o),
(230,663,o),
(406,663,cs),
(500,663,o),
(608,623,o),
(608,542,cs),
(608,517,o),
(594,482,o),
(562,482,cs),
(553,482,o),
(538,485,o),
(528,493,c),
(510,466,l),
(526,453,o),
(545,447,o),
(561,447,cs),
(607,447,o),
(644,485,o),
(644,542,cs),
(644,614,o),
(564,699,o),
(406,699,cs),
(211,699,o),
(58,555,o),
(58,327,cs),
(58,127,o),
(203,-10,o),
(402,-10,cs)
);
}
);
width = 725;
},
{
anchors = (
{
name = bottom;
pos = (382,-29);
},
{
name = top;
pos = (382,723);
}
);
associatedMasterId = "49C16FD3-6177-408B-A733-AEB3898BB77C";
layerId = "9A6A7639-79A9-4EC5-AE88-1E69E535A513";
name = "3 Jan 22, 15:02";
shapes = (
{
closed = 1;
nodes = (
(502,-22,o),
(605,20,o),
(674,118,c,{
"Letterink-NibData" = {
AngleInDegrees = 307.18471;
};
}),
(645,140,l,{
"Letterink-NibData" = {
AngleInDegrees = 215.75389;
};
}),
(591,65,o),
(498,18,o),
(399,18,cs,{
"Letterink-NibData" = {
AngleInDegrees = 270;
};
}),
(224,18,o),
(100,167,o),
(100,335,cs),
(100,508,o),
(233,665,o),
(403,665,cs,{
"Letterink-NibData" = {
AngleInDegrees = 90;
};
}),
(486,665,o),
(593,637,o),
(593,558,cs,{
"Letterink-NibData" = {
AngleInDegrees = 180;
};
}),
(593,531,o),
(580,510,o),
(557,510,cs,{
"Letterink-NibData" = {
AngleInDegrees = 270;
};
}),
(549,510,o),
(534,515,o),
(527,522,c,{
"Letterink-NibData" = {
AngleInDegrees = 217.99873;
};
}),
(502,490,l,{
"Letterink-NibData" = {
AngleInDegrees = 132.27369;
};
}),
(513,480,o),
(538,472,o),
(554,472,cs,{
"Letterink-NibData" = {
AngleInDegrees = 90;
};
}),
(601,472,o),
(633,510,o),
(633,562,cs),
(633,661,o),
(515,706,o),
(411,706,cs,{
"Letterink-NibData" = {
AngleInDegrees = 270;
};
}),
(209,706,o),
(58,535,o),
(58,335,cs,{
"Letterink-NibData" = {
AngleInDegrees = 180;
};
}),
(58,140,o),
(202,-22,o),
(400,-22,cs,{
"Letterink-NibData" = {
AngleInDegrees = 90;
};
})
);
}
);
width = 726;
},
{
anchors = (
{
name = bottom;
pos = (380,-9);
},
{
name = top;
pos = (380,703);
}
);
associatedMasterId = "0CAF3BED-C4AC-4024-B3E1-4C69D1EF7EC0";
layerId = "354B442F-650F-4F84-82F8-D7A6B1A052DE";
name = "3 Jan 22, 15:22";
shapes = (
{
closed = 1;
nodes = (
(526,-19,o),
(630,45,o),
(677,146,c,{
"Letterink-NibData" = {
AngleInDegrees = 296.92768;
};
}),
(614,178,l,{
"Letterink-NibData" = {
AngleInDegrees = 204.38637;
};
}),
(580,103,o),
(491,52,o),
(394,52,cs,{
"Letterink-NibData" = {
AngleInDegrees = 270;
};
}),
(243,52,o),
(128,178,o),
(128,340,cs),
(128,509,o),
(252,632,o),
(392,632,cs,{
"Letterink-NibData" = {
AngleInDegrees = 90;
};
}),
(451,632,o),
(555,610,o),
(555,547,cs,{
"Letterink-NibData" = {
AngleInDegrees = 180;
};
}),
(555,530,o),
(547,517,o),
(531,517,cs,{
"Letterink-NibData" = {
AngleInDegrees = 270;
};
}),
(519,517,o),
(506,525,o),
(499,534,c,{
"Letterink-NibData" = {
AngleInDegrees = 218.25442;
};
}),
(458,482,l,{
"Letterink-NibData" = {
AngleInDegrees = 143.53076;
};
}),
(475,459,o),
(501,445,o),
(531,445,cs,{
"Letterink-NibData" = {
AngleInDegrees = 90;
};
}),
(584,445,o),
(630,490,o),
(630,551,cs),
(630,642,o),
(525,706,o),
(397,706,cs,{
"Letterink-NibData" = {
AngleInDegrees = 270;
};
}),
(190,706,o),
(46,539,o),
(46,341,cs,{
"Letterink-NibData" = {
AngleInDegrees = 180;
};
}),
(46,147,o),
(183,-26,o),
(397,-22,cs,{
"Letterink-NibData" = {
AngleInDegrees = 88.66778;
};
})
);
}
);
width = 718;
},
{
anchors = (
{
name = bottom;
pos = (385,-29);
},
{
name = top;
pos = (385,723);
}
);
associatedMasterId = "49C16FD3-6177-408B-A733-AEB3898BB77C";
background = {
shapes = (
{
closed = 1;
nodes = (
(505,-22,o),
(608,20,o),
(677,118,c),
(648,140,l),
(594,65,o),
(501,18,o),
(402,18,cs),
(227,18,o),
(103,167,o),
(103,335,cs),
(103,508,o),
(236,665,o),
(406,665,cs),
(489,665,o),
(596,637,o),
(596,558,cs),
(596,531,o),
(583,510,o),
(560,510,cs),
(552,510,o),
(537,515,o),
(530,522,c),
(505,490,l),
(516,480,o),
(541,472,o),
(557,472,cs),
(604,472,o),
(636,510,o),
(636,562,cs),
(636,661,o),
(518,706,o),
(414,706,cs),
(212,706,o),
(61,535,o),
(61,335,cs),
(61,140,o),
(205,-22,o),
(403,-22,cs)
);
}
);
};
layerId = "4473E775-5B50-49F8-862E-9DFFC95B4874";
name = "5 Jan 22, 07:44";
shapes = (
{
attr = {
strokeHeight = 38;
strokeWidth = 42;
};
closed = 0;
nodes = (
(513,484,l,{
"Letterink-NibData" = {
AngleInDegrees = 116.56505;
};
}),
(523,479,o),
(533,477,o),
(544,477,cs,{
"Letterink-NibData" = {
AngleInDegrees = 91.50744;
};
}),
(582,476,o),
(608,516,o),
(608,556,cs),
(608,630,o),
(514,690,o),
(390,684,cs,{
"Letterink-NibData" = {
AngleInDegrees = 267.08916;
};
}),
(213,675,o),
(79,532,o),
(79,330,cs,{
"Letterink-NibData" = {
AngleInDegrees = 180;
};
}),
(79,136,o),
(214,0,o),
(404,0,cs,{
"Letterink-NibData" = {
AngleInDegrees = 90;
};
}),
(502,0,o),
(597,52,o),
(643,130,c,{
"Letterink-NibData" = {
AngleInDegrees = 30.52971;
};
})
);
}
);
width = 713;
},
{
anchors = (
{
name = bottom;
pos = (407,-10);
},
{
name = top;
pos = (390,699);
}
);
background = {
shapes = (
{
closed = 1;
nodes = (
(587,-25,o),
(733,126,o),
(733,326,cs),
(733,355,ls),
(733,548,o),
(581,702,o),
(391,702,cs,{
"Letterink-NibData" = {
AngleInDegrees = "270";
};
}),
(201,702,o),
(50,548,o),
(50,355,cs,{
"Letterink-NibData" = {
AngleInDegrees = "180";
};
}),
(50,326,ls,{
"Letterink-NibData" = {
AngleInDegrees = "180";
};
}),
(50,126,o),
(194,-19,o),
(395,-22,cs,{
"Letterink-NibData" = {
AngleInDegrees = "90.89517371732774";
};
})
);
},
{
closed = 1;
nodes = (
(244,54,o),
(132,170,o),
(132,326,cs),
(132,355,ls),
(132,504,o),
(246,626,o),
(390,626,cs,{
"Letterink-NibData" = {
AngleInDegrees = "90";
};
}),
(536,626,o),
(651,504,o),
(651,355,cs,{
"Letterink-NibData" = {
AngleInDegrees = "180";
};
}),
(651,326,ls,{
"Letterink-NibData" = {
AngleInDegrees = "180";
};
}),
(651,170,o),
(539,54,o),
(392,54,cs,{
"Letterink-NibData" = {
AngleInDegrees = "270";
};
})
);
}
);
};
layerId = m004;
shapes = (
{
closed = 1;
nodes = (
(528,-27,o),
(634,27,o),
(690,121,c),
(562,196,l),
(535,151,o),
(467,121,o),
(395,121,cs),
(276,121,o),
(197,207,o),
(197,337,cs),
(197,471,o),
(280,565,o),
(398,565,cs),
(479,565,o),
(535,532,o),
(534,497,cs),
(534,480,o),
(523,475,o),
(517,475,cs),
(508,475,o),
(501,482,o),
(497,488,c),
(420,390,l),
(440,359,o),
(483,338,o),
(532,338,cs),
(618,338,o),
(682,400,o),
(682,487,cs),
(682,614,o),
(554,713,o),
(390,713,cs),
(184,713,o),
(32,555,o),
(32,337,cs),
(32,130,o),
(188,-27,o),
(401,-27,cs)
);
}
);
width = 719;
},
{
anchors = (
{
name = bottom;
pos = (366,-9);
},
{
name = top;
pos = (366,703);
}
);
associatedMasterId = m004;
layerId = "1D3C4DC7-3234-4807-8E35-E7EE46E86FD4";
name = "3 Jan 22, 15:22";
shapes = (
{
closed = 1;
nodes = (
(512,-19,o),
(616,45,o),
(663,146,c,{
"Letterink-NibData" = {
AngleInDegrees = 296.92768;
};
}),
(600,178,l,{
"Letterink-NibData" = {
AngleInDegrees = 204.38637;
};
}),
(566,103,o),
(477,52,o),
(380,52,cs,{
"Letterink-NibData" = {
AngleInDegrees = 270;
};
}),
(229,52,o),
(114,178,o),
(114,340,cs),
(114,509,o),
(238,632,o),
(378,632,cs,{
"Letterink-NibData" = {
AngleInDegrees = 90;
};
}),
(437,632,o),
(541,610,o),
(541,547,cs,{
"Letterink-NibData" = {
AngleInDegrees = 180;
};
}),
(541,530,o),
(533,517,o),
(517,517,cs,{
"Letterink-NibData" = {
AngleInDegrees = 270;
};
}),
(505,517,o),
(492,525,o),
(485,534,c,{
"Letterink-NibData" = {
AngleInDegrees = 218.25442;
};
}),
(444,482,l,{
"Letterink-NibData" = {
AngleInDegrees = 143.53076;
};
}),
(461,459,o),
(487,445,o),
(517,445,cs,{
"Letterink-NibData" = {
AngleInDegrees = 90;
};
}),
(570,445,o),
(616,490,o),
(616,551,cs),
(616,642,o),
(511,706,o),
(383,706,cs,{
"Letterink-NibData" = {
AngleInDegrees = 270;
};
}),
(176,706,o),
(32,539,o),
(32,341,cs,{
"Letterink-NibData" = {
AngleInDegrees = 180;
};
}),
(32,147,o),
(169,-26,o),
(383,-22,cs,{
"Letterink-NibData" = {
AngleInDegrees = 88.66778;
};
})
);
}
);
width = 692;
},
{
anchors = (
{
name = bottom;
pos = (398,0);
},
{
name = top;
pos = (390,684);
}
);
associatedMasterId = m004;
background = {
shapes = (
{
closed = 1;
nodes = (
(582,-25,o),
(728,126,o),
(728,326,cs),
(728,355,ls),
(728,548,o),
(576,702,o),
(386,702,cs,{
"Letterink-NibData" = {
AngleInDegrees = "270";
};
}),
(196,702,o),
(45,548,o),
(45,355,cs,{
"Letterink-NibData" = {
AngleInDegrees = "180";
};
}),
(45,326,ls,{
"Letterink-NibData" = {
AngleInDegrees = "180";
};
}),
(45,126,o),
(189,-19,o),
(390,-22,cs,{
"Letterink-NibData" = {
AngleInDegrees = "90.89517371732774";
};
})
);
},
{
closed = 1;
nodes = (
(239,54,o),
(127,170,o),
(127,326,cs),
(127,355,ls),
(127,504,o),
(241,626,o),
(385,626,cs,{
"Letterink-NibData" = {
AngleInDegrees = "90";
};
}),
(531,626,o),
(646,504,o),
(646,355,cs,{
"Letterink-NibData" = {
AngleInDegrees = "180";
};
}),
(646,326,ls,{
"Letterink-NibData" = {
AngleInDegrees = "180";
};
}),
(646,170,o),
(534,54,o),
(387,54,cs,{
"Letterink-NibData" = {
AngleInDegrees = "270";
};
})
);
}
);
};
layerId = "C056148C-2549-4511-9EFE-DD576A128247";
name = "19 Jan 22, 08:49";
shapes = (
{
closed = 0;
nodes = (
(475,430,l,{
"Letterink-NibData" = {
AngleInDegrees = -45;
MainAxisWidth = 118;
MinorAxisWidth = -15;
ValidForParentMainAxisWidth = 30;
ValidForParentMinorAxisWidth = 15;
};
"Letterink-NibStyleId" = "8";
}),
(495,410,o),
(517,408,o),
(533,408,cs,{
"Letterink-NibData" = {
AngleInDegrees = -45;
MainAxisWidth = 118;
MinorAxisWidth = -15;
ValidForParentMainAxisWidth = 30;
ValidForParentMinorAxisWidth = 15;
};
"Letterink-NibStyleId" = "8";
}),
(575,408,o),
(608,452,o),
(608,500,cs,{
"Letterink-NibData" = {
AngleInDegrees = -45;
MainAxisWidth = 118;
MinorAxisWidth = -15;
ValidForParentMainAxisWidth = 30;
ValidForParentMinorAxisWidth = 15;
};
"Letterink-NibStyleId" = "8";
}),
(608,568,o),
(509,639,o),
(399,639,cs,{
"Letterink-NibData" = {
AngleInDegrees = -45;
MainAxisWidth = 118;
MinorAxisWidth = -15;
ValidForParentMainAxisWidth = 30;
ValidForParentMinorAxisWidth = 15;
};
"Letterink-NibStyleId" = "8";
}),
(238,639,o),
(114,519,o),
(114,331,cs,{
"Letterink-NibData" = {
AngleInDegrees = -45;
MainAxisWidth = 135;
MinorAxisWidth = -15;
ValidForParentMainAxisWidth = 30;
ValidForParentMinorAxisWidth = 15;
};
"Letterink-NibStyleId" = "8";
}),
(114,164,o),
(237,47,o),
(407,47,cs,{
"Letterink-NibData" = {
AngleInDegrees = -45;
MainAxisWidth = 118;
MinorAxisWidth = -15;
ValidForParentMainAxisWidth = 30;
ValidForParentMinorAxisWidth = 15;
};
"Letterink-NibStyleId" = "8";
}),
(496,47,o),
(580,90,o),
(621,159,c,{
"Letterink-NibData" = {
AngleInDegrees = -45;
MainAxisWidth = 118;
MinorAxisWidth = -15;
ValidForParentMainAxisWidth = 30;
ValidForParentMinorAxisWidth = 15;
};
"Letterink-NibStyleId" = "8";
})
);
}
);
userData = {
"Letterink-ComputationAllowed" = YES;
};
width = 714;
}
);
metricLeft = O;
metricRight = "=O*.9";
unicode = 67;
userData = {
position = 570;
width = 54;
};
},
{
glyphname = C.ss01;
kernLeft = O;
kernRight = C;
layers = (
{
anchors = (
{
name = bottom;
pos = (394,-6);
},
{
name = top;
pos = (390,689);
}
);
background = {
shapes = (
{
closed = 1;
nodes = (
(581,-25,o),
(727,126,o),
(727,326,cs),
(727,355,ls),
(727,548,o),
(575,702,o),
(385,702,cs,{
"Letterink-NibData" = {
AngleInDegrees = "270";
};
}),
(195,702,o),
(44,548,o),
(44,355,cs,{
"Letterink-NibData" = {
AngleInDegrees = "180";
};
}),
(44,326,ls,{
"Letterink-NibData" = {
AngleInDegrees = "180";
};
}),
(44,126,o),
(188,-19,o),
(389,-22,cs,{
"Letterink-NibData" = {
AngleInDegrees = "90.89517371732774";
};
})
);
},
{
closed = 1;
nodes = (
(238,54,o),
(126,170,o),
(126,326,cs),
(126,355,ls),
(126,504,o),
(240,626,o),
(384,626,cs,{
"Letterink-NibData" = {
AngleInDegrees = "90";
};
}),
(530,626,o),
(645,504,o),
(645,355,cs,{
"Letterink-NibData" = {
AngleInDegrees = "180";
};
}),
(645,326,ls,{
"Letterink-NibData" = {
AngleInDegrees = "180";
};
}),
(645,170,o),
(533,54,o),
(386,54,cs,{
"Letterink-NibData" = {
AngleInDegrees = "270";
};
})
);
}
);
};
layerId = "0CAF3BED-C4AC-4024-B3E1-4C69D1EF7EC0";
shapes = (
{
closed = 1;
nodes = (
(510,-23,o),
(614,27,o),
(669,118,c),
(603,158,l),
(564,93,o),
(489,53,o),
(396,53,cs),
(241,53,o),
(128,165,o),
(128,335,cs),
(128,505,o),
(240,629,o),
(399,629,cs),
(509,629,o),
(570,570,o),
(592,512,c),
(659,531,l),
(632,626,o),
(531,705,o),
(393,705,cs),
(201,705,o),
(46,555,o),
(46,336,cs),
(46,115,o),
(199,-23,o),
(395,-23,cs)
);
}
);
width = 710;
},
{
anchors = (
{
name = bottom;
pos = (402,-12);
},
{
name = top;
pos = (388,685);
}
);
background = {
anchors = (
{
name = bottom;
pos = (377,-27);
},
{
name = top;
pos = (377,721);
}
);
shapes = (
{
attr = {
strokeHeight = 38;
strokeWidth = 42;
};
closed = 0;
nodes = (
(613,537,l,{
"Letterink-NibData" = {
AngleInDegrees = 356.78451;
};
}),
(608,626,o),
(510,691,o),
(386,685,cs,{
"Letterink-NibData" = {
AngleInDegrees = 267.08916;
};
}),
(209,676,o),
(74,532,o),
(74,330,cs,{
"Letterink-NibData" = {
AngleInDegrees = 180;
};
}),
(74,136,o),
(209,0,o),
(399,0,cs,{
"Letterink-NibData" = {
AngleInDegrees = 90;
};
}),
(497,0,o),
(592,52,o),
(638,130,c,{
"Letterink-NibData" = {
AngleInDegrees = 30.52971;
};
})
);
}
);
};
layerId = "49C16FD3-6177-408B-A733-AEB3898BB77C";
shapes = (
{
closed = 1;
nodes = (
(510,-12,o),
(610,36,o),
(663,124,c),
(632,142,l),
(587,66,o),
(504,24,o),
(398,24,cs),
(231,24,o),
(96,146,o),
(96,336,cs),
(96,529,o),
(226,661,o),
(392,661,cs),
(523,661,o),
(602,595,o),
(624,522,c),
(658,531,l),
(631,627,o),
(532,697,o),
(394,697,cs),
(207,697,o),
(58,549,o),
(58,336,cs),
(58,123,o),
(209,-12,o),
(396,-12,cs)
);
}
);
width = 715;
},
{
anchors = (
{
name = bottom;
pos = (378,-27);
},
{
name = top;
pos = (378,721);
}
);
associatedMasterId = "49C16FD3-6177-408B-A733-AEB3898BB77C";
layerId = "5C147D22-45CB-49AC-8F59-80A6CB628E42";
name = "3 Jan 22, 15:09";
shapes = (
{
closed = 1;
nodes = (
(505,-20,o),
(603,31,o),
(663,119,c,{
"Letterink-NibData" = {
AngleInDegrees = 304.07719;
};
}),
(629,142,l,{
"Letterink-NibData" = {
AngleInDegrees = 214.03213;
};
}),
(577,65,o),
(489,20,o),
(393,20,cs,{
"Letterink-NibData" = {
AngleInDegrees = 270;
};
}),
(222,20,o),
(100,159,o),
(100,331,cs),
(100,497,o),
(221,669,o),
(403,669,cs,{
"Letterink-NibData" = {
AngleInDegrees = 90;
};
}),
(502,669,o),
(583,618,o),
(589,552,c,{
"Letterink-NibData" = {
AngleInDegrees = 90;
};
}),
(630,552,l,{
"Letterink-NibData" = {
AngleInDegrees = 355.69553;
};
}),
(623,645,o),
(532,709,o),
(408,709,cs,{
"Letterink-NibData" = {
AngleInDegrees = 270;
};
}),
(204,709,o),
(58,535,o),
(58,334,cs,{
"Letterink-NibData" = {
AngleInDegrees = 180;
};
}),
(58,132,o),
(198,-20,o),
(394,-20,cs,{
"Letterink-NibData" = {
AngleInDegrees = 90;
};
})
);
}
);
width = 715;
},
{
anchors = (
{
name = bottom;
pos = (369,-7);
},
{
name = top;
pos = (369,701);
}
);
associatedMasterId = "0CAF3BED-C4AC-4024-B3E1-4C69D1EF7EC0";
layerId = "F3AD09C8-78E5-4679-83B5-5B942013D0D4";
name = "3 Jan 22, 15:21";
shapes = (
{
closed = 1;
nodes = (
(505,-17,o),
(609,40,o),
(671,139,c,{
"Letterink-NibData" = {
AngleInDegrees = 304.31509;
};
}),
(608,182,l,{
"Letterink-NibData" = {
AngleInDegrees = 211.07166;
};
}),
(561,104,o),
(481,59,o),
(386,59,cs,{
"Letterink-NibData" = {
AngleInDegrees = 270;
};
}),
(233,59,o),
(126,176,o),
(126,324,cs),
(126,494,o),
(241,631,o),
(384,631,cs,{
"Letterink-NibData" = {
AngleInDegrees = 90;
};
}),
(484,631,o),
(562,582,o),
(559,520,c,{
"Letterink-NibData" = {
AngleInDegrees = 90;
};
}),
(638,520,l,{
"Letterink-NibData" = {
AngleInDegrees = 1.06091;
};
}),
(640,628,o),
(535,707,o),
(389,707,cs,{
"Letterink-NibData" = {
AngleInDegrees = 270;
};
}),
(200,707,o),
(46,538,o),
(46,327,cs,{
"Letterink-NibData" = {
AngleInDegrees = 180;
};
}),
(46,132,o),
(190,-17,o),
(385,-17,cs,{
"Letterink-NibData" = {
AngleInDegrees = 90;
};
})
);
}
);
width = 712;
},
{
anchors = (
{
name = bottom;
pos = (382,-27);
},
{
name = top;
pos = (382,721);
}
);
associatedMasterId = "49C16FD3-6177-408B-A733-AEB3898BB77C";
layerId = "60C93F8E-5478-4CF7-8F44-AF3ED9540F66";
name = "5 Jan 22, 07:47";
shapes = (
{
attr = {
strokeHeight = 38;
strokeWidth = 42;
};
closed = 0;
nodes = (
(618,537,l,{
"Letterink-NibData" = {
AngleInDegrees = 356.78451;
};
}),
(613,626,o),
(515,691,o),
(391,685,cs,{
"Letterink-NibData" = {
AngleInDegrees = 267.08916;
};
}),
(214,676,o),
(79,532,o),
(79,330,cs,{
"Letterink-NibData" = {
AngleInDegrees = 180;
};
}),
(79,136,o),
(214,0,o),
(404,0,cs,{
"Letterink-NibData" = {
AngleInDegrees = 90;
};
}),
(502,0,o),
(597,52,o),
(643,130,c,{
"Letterink-NibData" = {
AngleInDegrees = 30.52971;
};
})
);
}
);
width = 713;
},
{
anchors = (
{
name = bottom;
pos = (368,-7);
},
{
name = top;
pos = (368,701);
}
);
associatedMasterId = "0CAF3BED-C4AC-4024-B3E1-4C69D1EF7EC0";
layerId = "E3615987-2AFD-4696-A41C-F6163A2589A7";
name = "5 Jan 22, 07:50";
shapes = (
{
attr = {
strokeHeight = 74;
strokeWidth = 80;
};
closed = 0;
nodes = (
(606,525,ls,{
"Letterink-NibData" = {
AngleInDegrees = 356.63354;
};
}),
(601,610,o),
(508,671,o),
(391,665,cs,{
"Letterink-NibData" = {
AngleInDegrees = 267.02198;
};
}),
(218,656,o),
(86,521,o),
(86,331,cs,{
"Letterink-NibData" = {
AngleInDegrees = 180;
};
}),
(86,148,o),
(216,20,o),
(399,20,cs,{
"Letterink-NibData" = {
AngleInDegrees = 90;
};
}),
(494,20,o),
(585,68,o),
(630,142,c,{
"Letterink-NibData" = {
AngleInDegrees = 31.30412;
};
})
);
}
);
width = 705;
},
{
anchors = (
{
name = bottom;
pos = (396,-12);
},
{
name = top;
pos = (385,696);
}
);
background = {
shapes = (
{
closed = 1;
nodes = (
(593,-25,o),
(739,126,o),
(739,326,cs),
(739,355,ls),
(739,548,o),
(587,702,o),
(397,702,cs,{
"Letterink-NibData" = {
AngleInDegrees = "270";
};
}),
(207,702,o),
(56,548,o),
(56,355,cs,{
"Letterink-NibData" = {
AngleInDegrees = "180";
};
}),
(56,326,ls,{
"Letterink-NibData" = {
AngleInDegrees = "180";
};
}),
(56,126,o),
(200,-19,o),
(401,-22,cs,{
"Letterink-NibData" = {
AngleInDegrees = "90.89517371732774";
};
})
);
},
{
closed = 1;
nodes = (
(250,54,o),
(138,170,o),
(138,326,cs),
(138,355,ls),
(138,504,o),
(252,626,o),
(396,626,cs,{
"Letterink-NibData" = {
AngleInDegrees = "90";
};
}),
(542,626,o),
(657,504,o),
(657,355,cs,{
"Letterink-NibData" = {
AngleInDegrees = "180";
};
}),
(657,326,ls,{
"Letterink-NibData" = {
AngleInDegrees = "180";
};
}),
(657,170,o),
(545,54,o),
(398,54,cs,{
"Letterink-NibData" = {
AngleInDegrees = "270";
};
})
);
}
);
};
layerId = m004;
shapes = (
{
closed = 1;
nodes = (
(514,-28,o),
(623,27,o),
(674,120,c),
(549,196,l),
(519,149,o),
(461,120,o),
(395,120,cs),
(282,120,o),
(197,211,o),
(197,333,cs),
(197,466,o),
(278,565,o),
(385,565,cs),
(459,565,o),
(516,530,o),
(530,482,c),
(670,522,l),
(642,634,o),
(528,713,o),
(385,713,cs),
(184,713,o),
(32,552,o),
(32,341,cs),
(32,130,o),
(186,-28,o),
(393,-28,cs)
);
}
);
width = 703;
},
{
anchors = (
{
name = bottom;
pos = (355,-7);
},
{
name = top;
pos = (355,701);
}
);
associatedMasterId = m004;
layerId = "61EB21C3-3EB3-448C-BA61-69CC21CFBA6E";
name = "3 Jan 22, 15:21";
shapes = (
{
closed = 1;
nodes = (
(491,-17,o),
(595,40,o),
(657,139,c,{
"Letterink-NibData" = {
AngleInDegrees = 304.31509;
};
}),
(594,182,l,{
"Letterink-NibData" = {
AngleInDegrees = 211.07166;
};
}),
(547,104,o),
(467,59,o),
(372,59,cs,{
"Letterink-NibData" = {
AngleInDegrees = 270;
};
}),
(219,59,o),
(112,176,o),
(112,324,cs),
(112,494,o),
(227,631,o),
(370,631,cs,{
"Letterink-NibData" = {
AngleInDegrees = 90;
};
}),
(470,631,o),
(548,582,o),
(545,520,c,{
"Letterink-NibData" = {
AngleInDegrees = 90;
};
}),
(624,520,l,{
"Letterink-NibData" = {
AngleInDegrees = 1.06091;
};
}),
(626,628,o),
(521,707,o),
(375,707,cs,{
"Letterink-NibData" = {
AngleInDegrees = 270;
};
}),
(186,707,o),
(32,538,o),
(32,327,cs,{
"Letterink-NibData" = {
AngleInDegrees = 180;
};
}),
(32,132,o),
(176,-17,o),
(371,-17,cs,{
"Letterink-NibData" = {
AngleInDegrees = 90;
};
})
);
}
);
width = 686;
},
{
anchors = (
{
name = bottom;
pos = (354,-7);
},
{
name = top;
pos = (354,701);
}
);
associatedMasterId = m004;
layerId = "2E6EA62A-4F0C-4C83-906A-4BFA96122663";
name = "5 Jan 22, 07:50";
shapes = (
{
attr = {
strokeHeight = 74;
strokeWidth = 80;
};
closed = 0;
nodes = (
(592,525,ls,{
"Letterink-NibData" = {
AngleInDegrees = 356.63354;
};
}),
(587,610,o),
(494,671,o),
(377,665,cs,{
"Letterink-NibData" = {
AngleInDegrees = 267.02198;
};
}),
(204,656,o),
(72,521,o),
(72,331,cs,{
"Letterink-NibData" = {
AngleInDegrees = 180;
};
}),
(72,148,o),
(202,20,o),
(385,20,cs,{
"Letterink-NibData" = {
AngleInDegrees = 90;
};
}),
(480,20,o),
(571,68,o),
(616,142,c,{
"Letterink-NibData" = {
AngleInDegrees = 31.30412;
};
})
);
}
);
width = 679;
}
);
metricLeft = O;
metricRight = "=O*.9";
userData = {
position = 570;
width = 54;
};
},
{
glyphname = C.swsh;
kernLeft = O;
kernRight = C;
layers = (
{
anchors = (
{
name = bottom;
pos = (399,-8);
},
{
name = top;
pos = (388,691);
}
);
background = {
shapes = (
{
closed = 1;
nodes = (
(578,-25,o),
(724,126,o),
(724,326,cs),
(724,355,ls),
(724,548,o),
(572,702,o),
(382,702,cs,{
"Letterink-NibData" = {
AngleInDegrees = "270";
};
}),
(192,702,o),
(41,548,o),
(41,355,cs,{
"Letterink-NibData" = {
AngleInDegrees = "180";
};
}),
(41,326,ls,{
"Letterink-NibData" = {
AngleInDegrees = "180";
};
}),
(41,126,o),
(185,-19,o),
(386,-22,cs,{
"Letterink-NibData" = {
AngleInDegrees = "90.89517371732774";
};
})
);
},
{
closed = 1;
nodes = (
(235,54,o),
(123,170,o),
(123,326,cs),
(123,355,ls),
(123,504,o),
(237,626,o),
(381,626,cs,{
"Letterink-NibData" = {
AngleInDegrees = "90";
};
}),
(527,626,o),
(642,504,o),
(642,355,cs,{
"Letterink-NibData" = {
AngleInDegrees = "180";
};
}),
(642,326,ls,{
"Letterink-NibData" = {
AngleInDegrees = "180";
};
}),
(642,170,o),
(530,54,o),
(383,54,cs,{
"Letterink-NibData" = {
AngleInDegrees = "270";
};
})
);
}
);
};
layerId = "0CAF3BED-C4AC-4024-B3E1-4C69D1EF7EC0";
shapes = (
{
closed = 1;
nodes = (
(515,-22,o),
(617,31,o),
(670,120,c),
(604,158,l),
(565,91,o),
(491,54,o),
(400,54,cs),
(238,54,o),
(126,169,o),
(126,335,cs),
(126,503,o),
(240,624,o),
(400,624,cs),
(490,624,o),
(564,577,o),
(564,520,cs),
(564,498,o),
(552,483,o),
(534,483,cs),
(514,483,o),
(495,498,o),
(488,518,c),
(416,496,l),
(431,443,o),
(479,407,o),
(533,407,cs),
(598,407,o),
(644,455,o),
(644,524,cs),
(644,626,o),
(542,700,o),
(400,700,cs),
(195,700,o),
(46,546,o),
(46,335,cs),
(46,128,o),
(193,-22,o),
(397,-22,cs)
);
}
);
width = 715;
},
{
anchors = (
{
name = bottom;
pos = (404,-2);
},
{
name = top;
pos = (405,686);
}
);
background = {
shapes = (
{
closed = 1;
nodes = (
(597,-14,o),
(739,131,o),
(739,331,cs),
(739,350,ls),
(739,550,o),
(591,702,o),
(397,702,cs,{
"Letterink-NibData" = {
AngleInDegrees = "270";
};
}),
(203,702,o),
(57,551,o),
(57,350,cs,{
"Letterink-NibData" = {
AngleInDegrees = "180";
};
}),
(57,331,ls,{
"Letterink-NibData" = {
AngleInDegrees = "180";
};
}),
(57,133,o),
(204,-14,o),
(401,-14,cs,{
"Letterink-NibData" = {
AngleInDegrees = "90";
};
})
);
},
{
closed = 1;
nodes = (
(227,24,o),
(99,156,o),
(99,331,cs),
(99,350,ls),
(99,526,o),
(228,662,o),
(396,662,cs,{
"Letterink-NibData" = {
AngleInDegrees = "90";
};
}),
(565,662,o),
(697,526,o),
(697,350,cs,{
"Letterink-NibData" = {
AngleInDegrees = "180";
};
}),
(697,331,ls,{
"Letterink-NibData" = {
AngleInDegrees = "180";
};
}),
(697,156,o),
(568,24,o),
(398,24,cs,{
"Letterink-NibData" = {
AngleInDegrees = "270";
};
})
);
}
);
};
layerId = "49C16FD3-6177-408B-A733-AEB3898BB77C";
shapes = (
{
closed = 1;
nodes = (
(523,-11,o),
(622,40,o),
(673,126,c),
(643,143,l),
(598,67,o),
(512,25,o),
(407,25,cs),
(229,25,o),
(96,153,o),
(96,341,cs),
(96,523,o),
(227,656,o),
(405,656,cs),
(517,656,o),
(608,600,o),
(608,530,cs),
(608,491,o),
(584,462,o),
(550,462,cs),
(514,462,o),
(489,484,o),
(480,518,c),
(447,509,l),
(460,458,o),
(497,428,o),
(550,428,cs),
(603,428,o),
(644,472,o),
(644,530,cs),
(644,619,o),
(537,692,o),
(405,692,cs),
(205,692,o),
(58,543,o),
(58,341,cs),
(58,137,o),
(204,-11,o),
(407,-11,cs)
);
}
);
width = 730;
},
{
anchors = (
{
name = bottom;
pos = (369,0);
},
{
name = top;
pos = (381,684);
}
);
associatedMasterId = "49C16FD3-6177-408B-A733-AEB3898BB77C";
layerId = "3D02E95B-60B1-4244-8F26-D84725EF13C9";
name = "3 Jan 22, 15:07";
shapes = (
{
closed = 1;
nodes = (
(505,-21,o),
(628,33,o),
(678,140,c,{
"Letterink-NibData" = {
AngleInDegrees = 293.55226;
};
}),
(639,157,l,{
"Letterink-NibData" = {
AngleInDegrees = 204.62357;
};
}),
(606,85,o),
(525,18,o),
(388,19,cs,{
"Letterink-NibData" = {
AngleInDegrees = 270.40348;
};
}),
(246,20,o),
(100,149,o),
(100,343,cs),
(100,508,o),
(232,657,o),
(392,657,cs,{
"Letterink-NibData" = {
AngleInDegrees = 90;
};
}),
(473,657,o),
(570,621,o),
(570,548,cs,{
"Letterink-NibData" = {
AngleInDegrees = 180;
};
}),
(570,521,o),
(554,500,o),
(530,500,cs,{
"Letterink-NibData" = {
AngleInDegrees = 270;
};
}),
(517,500,o),
(500,510,o),
(493,523,c,{
"Letterink-NibData" = {
AngleInDegrees = 238.57043;
};
}),
(457,501,l,{
"Letterink-NibData" = {
AngleInDegrees = 149.03624;
};
}),
(475,471,o),
(502,458,o),
(529,458,cs,{
"Letterink-NibData" = {
AngleInDegrees = 90;
};
}),
(571,458,o),
(612,492,o),
(612,546,cs),
(612,639,o),
(504,697,o),
(393,697,cs,{
"Letterink-NibData" = {
AngleInDegrees = 270;
};
}),
(209,697,o),
(58,536,o),
(58,344,cs,{
"Letterink-NibData" = {
AngleInDegrees = 180;
};
}),
(58,159,o),
(189,-21,o),
(389,-21,cs,{
"Letterink-NibData" = {
AngleInDegrees = 90;
};
})
);
}
);
width = 735;
},
{
anchors = (
{
name = bottom;
pos = (371,-9);
},
{
name = top;
pos = (371,703);
}
);
associatedMasterId = "0CAF3BED-C4AC-4024-B3E1-4C69D1EF7EC0";
layerId = "430F94E4-6E0B-477D-BEA9-4D1159DC2E2A";
name = "3 Jan 22, 15:17";
shapes = (
{
closed = 1;
nodes = (
(498,-16,o),
(614,32,o),
(680,139,c,{
"Letterink-NibData" = {
AngleInDegrees = 303.88696;
};
}),
(613,184,l,{
"Letterink-NibData" = {
AngleInDegrees = 210.52971;
};
}),
(567,106,o),
(482,60,o),
(388,60,cs,{
"Letterink-NibData" = {
AngleInDegrees = 270;
};
}),
(236,60,o),
(126,184,o),
(126,337,cs),
(126,493,o),
(244,630,o),
(394,630,cs,{
"Letterink-NibData" = {
AngleInDegrees = 90;
};
}),
(457,630,o),
(551,604,o),
(551,552,cs,{
"Letterink-NibData" = {
AngleInDegrees = 180;
};
}),
(551,539,o),
(541,528,o),
(530,528,cs,{
"Letterink-NibData" = {
AngleInDegrees = 270;
};
}),
(523,528,o),
(513,532,o),
(508,539,c,{
"Letterink-NibData" = {
AngleInDegrees = 218.19868;
};
}),
(460,478,l,{
"Letterink-NibData" = {
AngleInDegrees = 135;
};
}),
(478,460,o),
(506,447,o),
(536,447,cs,{
"Letterink-NibData" = {
AngleInDegrees = 90;
};
}),
(587,447,o),
(631,494,o),
(631,551,cs),
(631,661,o),
(504,706,o),
(393,706,cs,{
"Letterink-NibData" = {
AngleInDegrees = 270;
};
}),
(200,706,o),
(46,536,o),
(46,337,cs,{
"Letterink-NibData" = {
AngleInDegrees = 180;
};
}),
(46,141,o),
(193,-16,o),
(387,-16,cs,{
"Letterink-NibData" = {
AngleInDegrees = 90;
};
})
);
}
);
width = 725;
},
{
anchors = (
{
name = bottom;
pos = (372,0);
},
{
name = top;
pos = (384,684);
}
);
associatedMasterId = "49C16FD3-6177-408B-A733-AEB3898BB77C";
layerId = "BE458C1D-0A4B-40C4-BCF4-9649CDEB98A4";
name = "5 Jan 22, 08:01";
shapes = (
{
attr = {
strokeHeight = 38;
strokeWidth = 42;
};
closed = 0;
nodes = (
(479,527,l,{
"Letterink-NibData" = {
AngleInDegrees = 168.31063;
};
}),
(485,498,o),
(510,478,o),
(544,477,cs,{
"Letterink-NibData" = {
AngleInDegrees = 91.50744;
};
}),
(582,476,o),
(608,516,o),
(608,556,cs),
(608,630,o),
(515,690,o),
(391,684,cs,{
"Letterink-NibData" = {
AngleInDegrees = 267.08916;
};
}),
(214,675,o),
(79,532,o),
(79,330,cs,{
"Letterink-NibData" = {
AngleInDegrees = 180;
};
}),
(79,136,o),
(214,0,o),
(404,0,cs,{
"Letterink-NibData" = {
AngleInDegrees = 90;
};
}),
(502,0,o),
(597,52,o),
(643,130,c,{
"Letterink-NibData" = {
AngleInDegrees = 30.52971;
};
})
);
}
);
width = 718;
},
{
anchors = (
{
name = bottom;
pos = (373,31);
},
{
name = top;
pos = (373,662);
}
);
associatedMasterId = "0CAF3BED-C4AC-4024-B3E1-4C69D1EF7EC0";
layerId = "26DD77D8-93B1-4CFB-A5C5-84AD5242F402";
name = "5 Jan 22, 08:04";
shapes = (
{
attr = {
strokeHeight = 74;
strokeWidth = 80;
};
closed = 0;
nodes = (
(478,519,l,{
"Letterink-NibData" = {
AngleInDegrees = 169.50852;
};
}),
(483,492,o),
(507,472,o),
(536,471,cs,{
"Letterink-NibData" = {
AngleInDegrees = 91.33222;
};
}),
(579,470,o),
(604,508,o),
(604,546,cs),
(604,617,o),
(515,674,o),
(394,669,cs,{
"Letterink-NibData" = {
AngleInDegrees = 267.03906;
};
}),
(220,660,o),
(86,523,o),
(86,334,cs,{
"Letterink-NibData" = {
AngleInDegrees = 180;
};
}),
(86,145,o),
(218,15,o),
(392,15,cs,{
"Letterink-NibData" = {
AngleInDegrees = 90;
};
}),
(497,15,o),
(592,63,o),
(638,140,c,{
"Letterink-NibData" = {
AngleInDegrees = 30.8542;
};
})
);
}
);
width = 717;
},
{
anchors = (
{
name = bottom;
pos = (393,-12);
},
{
name = top;
pos = (388,696);
}
);
background = {
shapes = (
{
closed = 1;
nodes = (
(589,-25,o),
(735,126,o),
(735,326,cs),
(735,355,ls),
(735,548,o),
(583,702,o),
(393,702,cs,{
"Letterink-NibData" = {
AngleInDegrees = "270";
};
}),
(203,702,o),
(52,548,o),
(52,355,cs,{
"Letterink-NibData" = {
AngleInDegrees = "180";
};
}),
(52,326,ls,{
"Letterink-NibData" = {
AngleInDegrees = "180";
};
}),
(52,126,o),
(196,-19,o),
(397,-22,cs,{
"Letterink-NibData" = {
AngleInDegrees = "90.89517371732774";
};
})
);
},
{
closed = 1;
nodes = (
(246,54,o),
(134,170,o),
(134,326,cs),
(134,355,ls),
(134,504,o),
(248,626,o),
(392,626,cs,{
"Letterink-NibData" = {
AngleInDegrees = "90";
};
}),
(538,626,o),
(653,504,o),
(653,355,cs,{
"Letterink-NibData" = {
AngleInDegrees = "180";
};
}),
(653,326,ls,{
"Letterink-NibData" = {
AngleInDegrees = "180";
};
}),
(653,170,o),
(541,54,o),
(394,54,cs,{
"Letterink-NibData" = {
AngleInDegrees = "270";
};
})
);
}
);
};
layerId = m004;
shapes = (
{
closed = 1;
nodes = (
(515,-28,o),
(624,29,o),
(674,121,c),
(549,196,l),
(517,147,o),
(465,120,o),
(397,120,cs),
(276,120,o),
(197,204,o),
(197,332,cs),
(197,469,o),
(280,566,o),
(397,566,cs),
(438,566,o),
(509,548,o),
(506,509,cs),
(505,500,o),
(500,493,o),
(489,493,cs),
(482,493,o),
(476,496,o),
(472,504,c),
(346,462,l),
(358,399,o),
(429,349,o),
(496,349,cs),
(588,349,o),
(655,416,o),
(655,510,cs),
(655,627,o),
(542,714,o),
(389,714,cs),
(185,714,o),
(32,554,o),
(32,340,cs),
(32,130,o),
(187,-28,o),
(393,-28,cs)
);
}
);
width = 705;
},
{
anchors = (
{
name = bottom;
pos = (357,-9);
},
{
name = top;
pos = (357,703);
}
);
associatedMasterId = m004;
layerId = "E1B422B0-C5DA-4EE8-BF30-75EC1E1BD4CA";
name = "3 Jan 22, 15:17";
shapes = (
{
closed = 1;
nodes = (
(484,-16,o),
(600,32,o),
(666,139,c,{
"Letterink-NibData" = {
AngleInDegrees = 303.88696;
};
}),
(599,184,l,{
"Letterink-NibData" = {
AngleInDegrees = 210.52971;
};
}),
(553,106,o),
(468,60,o),
(374,60,cs,{
"Letterink-NibData" = {
AngleInDegrees = 270;
};
}),
(222,60,o),
(112,184,o),
(112,337,cs),
(112,493,o),
(230,630,o),
(380,630,cs,{
"Letterink-NibData" = {
AngleInDegrees = 90;
};
}),
(443,630,o),
(537,604,o),
(537,552,cs,{
"Letterink-NibData" = {
AngleInDegrees = 180;
};
}),
(537,539,o),
(527,528,o),
(516,528,cs,{
"Letterink-NibData" = {
AngleInDegrees = 270;
};
}),
(509,528,o),
(499,532,o),
(494,539,c,{
"Letterink-NibData" = {
AngleInDegrees = 218.19868;
};
}),
(446,478,l,{
"Letterink-NibData" = {
AngleInDegrees = 135;
};
}),
(464,460,o),
(492,447,o),
(522,447,cs,{
"Letterink-NibData" = {
AngleInDegrees = 90;
};
}),
(573,447,o),
(617,494,o),
(617,551,cs),
(617,661,o),
(490,706,o),
(379,706,cs,{
"Letterink-NibData" = {
AngleInDegrees = 270;
};
}),
(186,706,o),
(32,536,o),
(32,337,cs,{
"Letterink-NibData" = {
AngleInDegrees = 180;
};
}),
(32,141,o),
(179,-16,o),
(373,-16,cs,{
"Letterink-NibData" = {
AngleInDegrees = 90;
};
})
);
}
);
width = 697;
},
{
anchors = (
{
name = bottom;
pos = (359,31);
},
{
name = top;
pos = (359,662);
}
);
associatedMasterId = m004;
layerId = "4CF65D10-8B5F-49BE-AA91-F2DD426CB74F";
name = "5 Jan 22, 08:04";
shapes = (
{
attr = {
strokeHeight = 74;
strokeWidth = 80;
};
closed = 0;
nodes = (
(464,519,l,{
"Letterink-NibData" = {
AngleInDegrees = 169.50852;
};
}),
(469,492,o),
(493,472,o),
(522,471,cs,{
"Letterink-NibData" = {
AngleInDegrees = 91.33222;
};
}),
(565,470,o),
(590,508,o),
(590,546,cs),
(590,617,o),
(501,674,o),
(380,669,cs,{
"Letterink-NibData" = {
AngleInDegrees = 267.03906;
};
}),
(206,660,o),
(72,523,o),
(72,334,cs,{
"Letterink-NibData" = {
AngleInDegrees = 180;
};
}),
(72,145,o),
(204,15,o),
(378,15,cs,{
"Letterink-NibData" = {
AngleInDegrees = 90;
};
}),
(483,15,o),
(578,63,o),
(624,140,c,{
"Letterink-NibData" = {
AngleInDegrees = 30.8542;
};
})
);
}
);
width = 689;
}
);
metricLeft = O;
metricRight = "=O*.98";
userData = {
position = 570;
width = 54;
};
},
{
glyphname = D;
kernLeft = E;
kernRight = O;
layers = (
{
anchors = (
{
name = bottom;
pos = (359,-10);
},
{
name = center;
pos = (214,367);
},
{
name = top;
pos = (374,684);
}
);
hints = (
{
name = _corner.caps_left;
origin = (0,6);
type = Corner;
}
);
layerId = "0CAF3BED-C4AC-4024-B3E1-4C69D1EF7EC0";
shapes = (
{
closed = 1;
nodes = (
(563,-10,o),
(707,136,o),
(707,342,cs),
(707,535,o),
(580,684,o),
(378,684,c,{
"Letterink-NibData" = {
AngleInDegrees = 270.21459;
};
}),
(132,684,l,{
"Letterink-NibData" = {
AngleInDegrees = 180;
};
}),
(132,609,l,{
"Letterink-NibData" = {
AngleInDegrees = 90;
};
}),
(378,609,ls,{
"Letterink-NibData" = {
AngleInDegrees = 92.97373;
};
}),
(537,609,o),
(625,501,o),
(625,339,cs,{
"Letterink-NibData" = {
AngleInDegrees = 180;
};
}),
(625,163,o),
(519,65,o),
(327,65,cs,{
"Letterink-NibData" = {
AngleInDegrees = 270;
};
}),
(296,65,o),
(256,67,o),
(214,70,c),
(214,651,l,{
"Letterink-NibData" = {
AngleInDegrees = 270;
};
}),
(132,651,l,{
"Letterink-NibData" = {
AngleInDegrees = 180;
};
}),
(132,1,l,{
"Letterink-NibData" = {
AngleInDegrees = 95.10217;
};
}),
(188,-4,ls,{
"Letterink-NibData" = {
AngleInDegrees = 95.12819;
};
}),
(254,-10,o),
(277,-10,o),
(359,-10,cs,{
"Letterink-NibData" = {
AngleInDegrees = 90;
};
})
);
}
);
width = 753;
},
{
anchors = (
{
name = bottom;
pos = (327,-9);
},
{
name = center;
pos = (173,358);
},
{
name = top;
pos = (344,685);
}
);
hints = (
{
name = _corner.caps_left;
origin = (0,6);
type = Corner;
}
);
layerId = "49C16FD3-6177-408B-A733-AEB3898BB77C";
shapes = (
{
closed = 1;
nodes = (
(566,-9,o),
(700,131,o),
(700,342,cs),
(700,541,o),
(576,684,o),
(371,684,cs,{
"Letterink-NibData" = {
AngleInDegrees = 270.22037;
};
}),
(134,684,l,{
"Letterink-NibData" = {
AngleInDegrees = 180;
};
}),
(134,649,l,{
"Letterink-NibData" = {
AngleInDegrees = 90;
};
}),
(366,649,ls,{
"Letterink-NibData" = {
AngleInDegrees = 93.25195;
};
}),
(553,649,o),
(661,525,o),
(661,339,cs,{
"Letterink-NibData" = {
AngleInDegrees = 180;
};
}),
(661,141,o),
(547,26,o),
(341,26,cs,{
"Letterink-NibData" = {
AngleInDegrees = 270;
};
}),
(276,26,o),
(189,29,o),
(172,31,c),
(172,649,l,{
"Letterink-NibData" = {
AngleInDegrees = 270;
};
}),
(134,649,l,{
"Letterink-NibData" = {
AngleInDegrees = 180;
};
}),
(134,0,l,{
"Letterink-NibData" = {
AngleInDegrees = 94.18492;
};
}),
(173,-3,ls,{
"Letterink-NibData" = {
AngleInDegrees = 94.20536;
};
}),
(240,-8,o),
(284,-9,o),
(363,-9,cs,{
"Letterink-NibData" = {
AngleInDegrees = 90;
};
})
);
}
);
width = 758;
},
{
anchors = (
{
name = bottom;
pos = (420,-2);
},
{
name = center;
pos = (254,353);
},
{
name = top;
pos = (429,684);
}
);
hints = (
{
name = _corner.caps_left;
origin = (0,6);
type = Corner;
}
);
layerId = m004;
shapes = (
{
closed = 1;
nodes = (
(605,-14,o),
(760,135,o),
(760,346,cs),
(760,531,o),
(625,684,o),
(422,684,cs,{
"Letterink-NibData" = {
AngleInDegrees = "270.21459";
};
}),
(166,684,l,{
"Letterink-NibData" = {
AngleInDegrees = "180";
};
}),
(166,536,l,{
"Letterink-NibData" = {
AngleInDegrees = "90";
};
}),
(423,536,ls,{
"Letterink-NibData" = {
AngleInDegrees = "92.97373";
};
}),
(534,536,o),
(595,461,o),
(595,343,cs,{
"Letterink-NibData" = {
AngleInDegrees = "180";
};
}),
(595,217,o),
(523,141,o),
(404,141,cs,{
"Letterink-NibData" = {
AngleInDegrees = "270";
};
}),
(373,141,o),
(355,142,o),
(331,146,c),
(331,655,l,{
"Letterink-NibData" = {
AngleInDegrees = "270";
};
}),
(166,655,l,{
"Letterink-NibData" = {
AngleInDegrees = "180";
};
}),
(166,5,l,{
"Letterink-NibData" = {
AngleInDegrees = "95.10217";
};
}),
(236,-3,ls,{
"Letterink-NibData" = {
AngleInDegrees = "95.12819";
};
}),
(276,-8,o),
(309,-9,o),
(389,-10,cs,{
"Letterink-NibData" = {
AngleInDegrees = "90";
};
})
);
}
);
width = 792;
}
);
metricLeft = E;
metricRight = O;
unicode = 68;
userData = {
position = 674;
width = 60;
};
},
{
glyphname = D.ss01;
kernLeft = L;
kernRight = O;
layers = (
{
anchors = (
{
name = bottom;
pos = (295,-10);
},
{
name = center;
pos = (150,367);
},
{
name = top;
pos = (282,681);
}
);
layerId = "0CAF3BED-C4AC-4024-B3E1-4C69D1EF7EC0";
shapes = (
{
closed = 1;
nodes = (
(499,-10,o),
(643,136,o),
(643,342,cs),
(643,535,o),
(516,672,o),
(325,684,c,{
"Letterink-NibData" = {
AngleInDegrees = 270.21459;
};
}),
(68,685,l,{
"Letterink-NibData" = {
AngleInDegrees = 180;
};
}),
(68,608,l,{
"Letterink-NibData" = {
AngleInDegrees = 90;
};
}),
(314,608,l,{
"Letterink-NibData" = {
AngleInDegrees = 92.97373;
};
}),
(471,600,o),
(561,501,o),
(561,339,cs,{
"Letterink-NibData" = {
AngleInDegrees = 180;
};
}),
(561,163,o),
(455,65,o),
(263,65,cs,{
"Letterink-NibData" = {
AngleInDegrees = 270;
};
}),
(232,65,o),
(192,67,o),
(150,70,c),
(150,651,l,{
"Letterink-NibData" = {
AngleInDegrees = 270;
};
}),
(68,651,l,{
"Letterink-NibData" = {
AngleInDegrees = 180;
};
}),
(68,1,l,{
"Letterink-NibData" = {
AngleInDegrees = 95.10217;
};
}),
(124,-4,ls,{
"Letterink-NibData" = {
AngleInDegrees = 95.12819;
};
}),
(190,-10,o),
(192,-10,o),
(295,-10,cs,{
"Letterink-NibData" = {
AngleInDegrees = 90;
};
})
);
}
);
width = 689;
},
{
anchors = (
{
name = bottom;
pos = (244,-11);
},
{
name = center;
pos = (118,358);
},
{
name = top;
pos = (354,690);
}
);
layerId = "49C16FD3-6177-408B-A733-AEB3898BB77C";
shapes = (
{
closed = 1;
nodes = (
(512,-9,o),
(646,131,o),
(646,342,cs),
(646,541,o),
(522,672,o),
(329,684,c,{
"Letterink-NibData" = {
AngleInDegrees = 270.22037;
};
}),
(80,685,l,{
"Letterink-NibData" = {
AngleInDegrees = 180;
};
}),
(80,649,l,{
"Letterink-NibData" = {
AngleInDegrees = 90;
};
}),
(320,649,l,{
"Letterink-NibData" = {
AngleInDegrees = 93.25195;
};
}),
(499,639,o),
(607,525,o),
(607,339,cs,{
"Letterink-NibData" = {
AngleInDegrees = 180;
};
}),
(607,141,o),
(493,26,o),
(287,26,cs,{
"Letterink-NibData" = {
AngleInDegrees = 270;
};
}),
(222,26,o),
(135,29,o),
(118,31,c),
(118,649,l,{
"Letterink-NibData" = {
AngleInDegrees = 270;
};
}),
(80,649,l,{
"Letterink-NibData" = {
AngleInDegrees = 180;
};
}),
(80,0,l,{
"Letterink-NibData" = {
AngleInDegrees = 94.18492;
};
}),
(119,-3,ls,{
"Letterink-NibData" = {
AngleInDegrees = 94.20536;
};
}),
(186,-8,o),
(230,-9,o),
(309,-9,cs,{
"Letterink-NibData" = {
AngleInDegrees = 90;
};
})
);
}
);
width = 704;
},
{
anchors = (
{
name = bottom;
pos = (275,-10);
},
{
name = center;
pos = (167,360);
},
{
name = top;
pos = (291,685);
}
);
layerId = m004;
shapes = (
{
closed = 1;
nodes = (
(508,-14,o),
(646,151,o),
(646,346,cs),
(646,523,o),
(519,673,o),
(311,684,c,{
"Letterink-NibData" = {
AngleInDegrees = "270.21459";
};
}),
(52,684,l,{
"Letterink-NibData" = {
AngleInDegrees = "180";
};
}),
(52,532,l,{
"Letterink-NibData" = {
AngleInDegrees = "90";
};
}),
(309,532,l,{
"Letterink-NibData" = {
AngleInDegrees = "92.97373";
};
}),
(432,528,o),
(481,448,o),
(481,343,cs,{
"Letterink-NibData" = {
AngleInDegrees = "180";
};
}),
(481,212,o),
(405,141,o),
(290,141,cs,{
"Letterink-NibData" = {
AngleInDegrees = "270";
};
}),
(269,141,o),
(242,141,o),
(217,146,c),
(217,655,l,{
"Letterink-NibData" = {
AngleInDegrees = "270";
};
}),
(52,655,l,{
"Letterink-NibData" = {
AngleInDegrees = "180";
};
}),
(52,5,l,{
"Letterink-NibData" = {
AngleInDegrees = "95.10217";
};
}),
(142,-4,ls,{
"Letterink-NibData" = {
AngleInDegrees = "95.12819";
};
}),
(145,-4,o),
(149,-8,o),
(275,-10,cs,{
"Letterink-NibData" = {
AngleInDegrees = "90";
};
})
);
}
);
width = 678;
}
);
metricLeft = "=|H";
metricRight = O;
userData = {
position = 674;
width = 60;
};
},
{
glyphname = D.swsh;
kernLeft = Swash;
kernRight = O;
layers = (
{
background = {
anchors = (
{
name = bottom;
pos = (406,0);
},
{
name = center;
pos = (431,11);
},
{
name = top;
pos = (431,11);
}
);
hints = (
{
name = _corner.caps_swash;
origin = (0,7);
type = Corner;
}
);
shapes = (
{
closed = 1;
nodes = (
(370,-10,ls,{
"Letterink-NibData" = {
AngleInDegrees = 90;
};
}),
(574,-10,o),
(719,138,o),
(719,342,cs),
(719,532,o),
(592,678,o),
(400,690,c,{
"Letterink-NibData" = {
AngleInDegrees = 270.20033;
};
}),
(144,691,l,{
"Letterink-NibData" = {
AngleInDegrees = 180;
};
}),
(144,615,l,{
"Letterink-NibData" = {
AngleInDegrees = 90;
};
}),
(389,615,l,{
"Letterink-NibData" = {
AngleInDegrees = 93.55173;
};
}),
(534,606,o),
(637,517,o),
(637,342,cs,{
"Letterink-NibData" = {
AngleInDegrees = 180;
};
}),
(637,175,o),
(544,66,o),
(332,66,cs,{
"Letterink-NibData" = {
AngleInDegrees = 270;
};
}),
(305,66,o),
(279,69,o),
(245,71,c),
(245,559,l,{
"Letterink-NibData" = {
AngleInDegrees = 270;
};
}),
(163,559,l,{
"Letterink-NibData" = {
AngleInDegrees = 180;
};
}),
(163,1,l,{
"Letterink-NibData" = {
AngleInDegrees = 95.01311;
};
}),
(220,-4,ls,{
"Letterink-NibData" = {
AngleInDegrees = 94.93922;
};
}),
(289,-10,o),
(288,-10,o),
(330,-10,cs,{
"Letterink-NibData" = {
AngleInDegrees = 90;
};
})
);
}
);
};
hints = (
{
name = _corner.caps_swash;
origin = (0,6);
type = Corner;
}
);
layerId = "0CAF3BED-C4AC-4024-B3E1-4C69D1EF7EC0";
shapes = (
{
closed = 1;
nodes = (
(598,-10,o),
(742,136,o),
(742,342,cs),
(742,535,o),
(615,672,o),
(424,684,c,{
"Letterink-NibData" = {
AngleInDegrees = "270.21459";
};
}),
(167,685,l,{
"Letterink-NibData" = {
AngleInDegrees = "180";
};
}),
(167,608,l,{
"Letterink-NibData" = {
AngleInDegrees = "90";
};
}),
(413,608,l,{
"Letterink-NibData" = {
AngleInDegrees = "92.97373";
};
}),
(570,600,o),
(660,501,o),
(660,339,cs,{
"Letterink-NibData" = {
AngleInDegrees = "180";
};
}),
(660,163,o),
(554,65,o),
(362,65,cs,{
"Letterink-NibData" = {
AngleInDegrees = "270";
};
}),
(331,65,o),
(291,67,o),
(249,70,c),
(249,560,l,{
"Letterink-NibData" = {
AngleInDegrees = "270";
};
}),
(167,560,l,{
"Letterink-NibData" = {
AngleInDegrees = "180";
};
}),
(167,1,l,{
"Letterink-NibData" = {
AngleInDegrees = "95.10217";
};
}),
(223,-4,ls,{
"Letterink-NibData" = {
AngleInDegrees = "95.12819";
};
}),
(289,-10,o),
(291,-10,o),
(394,-10,cs,{
"Letterink-NibData" = {
AngleInDegrees = "90";
};
})
);
}
);
width = 788;
},
{
background = {
anchors = (
{
name = bottom;
pos = (395,0);
},
{
name = center;
pos = (413,-8);
},
{
name = top;
pos = (413,-8);
}
);
hints = (
{
name = _corner.caps_swash;
origin = (0,7);
type = Corner;
}
);
shapes = (
{
closed = 1;
nodes = (
(362,-9,ls,{
"Letterink-NibData" = {
AngleInDegrees = 90;
};
}),
(550,-9,o),
(699,122,o),
(699,342,cs),
(699,535,o),
(584,690,o),
(382,690,c,{
"Letterink-NibData" = {
AngleInDegrees = 270.19689;
};
}),
(121,691,l,{
"Letterink-NibData" = {
AngleInDegrees = 180;
};
}),
(121,651,l,{
"Letterink-NibData" = {
AngleInDegrees = 90;
};
}),
(372,651,l,{
"Letterink-NibData" = {
AngleInDegrees = 90;
};
}),
(535,651,o),
(657,535,o),
(657,349,cs,{
"Letterink-NibData" = {
AngleInDegrees = 180;
};
}),
(657,161,o),
(548,30,o),
(334,30,cs,{
"Letterink-NibData" = {
AngleInDegrees = 270;
};
}),
(311,30,o),
(255,32,o),
(193,35,c),
(193,573,l,{
"Letterink-NibData" = {
AngleInDegrees = 270;
};
}),
(151,573,l,{
"Letterink-NibData" = {
AngleInDegrees = 180;
};
}),
(151,0,l,{
"Letterink-NibData" = {
AngleInDegrees = 94.28915;
};
}),
(191,-3,ls,{
"Letterink-NibData" = {
AngleInDegrees = 93.66779;
};
}),
(270,-9,o),
(279,-9,o),
(318,-9,cs,{
"Letterink-NibData" = {
AngleInDegrees = 90;
};
})
);
}
);
};
hints = (
{
name = _corner.caps_swash;
origin = (0,6);
type = Corner;
}
);
layerId = "49C16FD3-6177-408B-A733-AEB3898BB77C";
shapes = (
{
closed = 1;
nodes = (
(587,-9,o),
(721,131,o),
(721,342,cs),
(721,541,o),
(597,672,o),
(404,684,c,{
"Letterink-NibData" = {
AngleInDegrees = "270.22037";
};
}),
(155,685,l,{
"Letterink-NibData" = {
AngleInDegrees = "180";
};
}),
(155,649,l,{
"Letterink-NibData" = {
AngleInDegrees = "90";
};
}),
(395,649,l,{
"Letterink-NibData" = {
AngleInDegrees = "93.25194999999999";
};
}),
(574,639,o),
(682,524,o),
(682,339,cs,{
"Letterink-NibData" = {
AngleInDegrees = "180";
};
}),
(682,141,o),
(568,26,o),
(362,26,cs,{
"Letterink-NibData" = {
AngleInDegrees = "270";
};
}),
(297,26,o),
(210,29,o),
(193,31,c),
(193,569,l,{
"Letterink-NibData" = {
AngleInDegrees = "270";
};
}),
(155,569,l,{
"Letterink-NibData" = {
AngleInDegrees = "180";
};
}),
(155,0,l,{
"Letterink-NibData" = {
AngleInDegrees = "94.18492000000001";
};
}),
(194,-3,ls,{
"Letterink-NibData" = {
AngleInDegrees = "94.20536";
};
}),
(261,-8,o),
(305,-9,o),
(384,-9,cs,{
"Letterink-NibData" = {
AngleInDegrees = "90";
};
})
);
}
);
width = 779;
},
{
background = {
anchors = (
{
name = bottom;
pos = (474,0);
},
{
name = center;
pos = (499,11);
},
{
name = top;
pos = (499,11);
}
);
hints = (
{
name = _corner.caps_swash;
origin = (0,7);
type = Corner;
}
);
shapes = (
{
closed = 1;
nodes = (
(438,-10,ls,{
"Letterink-NibData" = {
AngleInDegrees = 90;
};
}),
(642,-10,o),
(787,138,o),
(787,342,cs),
(787,532,o),
(660,678,o),
(468,690,c,{
"Letterink-NibData" = {
AngleInDegrees = 270.20033;
};
}),
(212,691,l,{
"Letterink-NibData" = {
AngleInDegrees = 180;
};
}),
(212,615,l,{
"Letterink-NibData" = {
AngleInDegrees = 90;
};
}),
(457,615,l,{
"Letterink-NibData" = {
AngleInDegrees = 93.55173;
};
}),
(602,606,o),
(705,517,o),
(705,342,cs,{
"Letterink-NibData" = {
AngleInDegrees = 180;
};
}),
(705,175,o),
(612,66,o),
(400,66,cs,{
"Letterink-NibData" = {
AngleInDegrees = 270;
};
}),
(373,66,o),
(347,69,o),
(313,71,c),
(313,559,l,{
"Letterink-NibData" = {
AngleInDegrees = 270;
};
}),
(231,559,l,{
"Letterink-NibData" = {
AngleInDegrees = 180;
};
}),
(231,1,l,{
"Letterink-NibData" = {
AngleInDegrees = 95.01311;
};
}),
(288,-4,ls,{
"Letterink-NibData" = {
AngleInDegrees = 94.93922;
};
}),
(357,-10,o),
(356,-10,o),
(398,-10,cs,{
"Letterink-NibData" = {
AngleInDegrees = 90;
};
})
);
}
);
};
hints = (
{
name = _corner.caps_swash;
origin = (0,6);
type = Corner;
}
);
layerId = m004;
shapes = (
{
closed = 1;
nodes = (
(654,-10,o),
(792,151,o),
(792,341,cs),
(792,523,o),
(665,672,o),
(470,684,c,{
"Letterink-NibData" = {
AngleInDegrees = "270.21459";
};
}),
(198,685,l,{
"Letterink-NibData" = {
AngleInDegrees = "180";
};
}),
(198,536,l,{
"Letterink-NibData" = {
AngleInDegrees = "90";
};
}),
(455,536,l,{
"Letterink-NibData" = {
AngleInDegrees = "92.97373";
};
}),
(578,532,o),
(627,448,o),
(627,346,cs,{
"Letterink-NibData" = {
AngleInDegrees = "180";
};
}),
(627,212,o),
(543,141,o),
(433,141,cs,{
"Letterink-NibData" = {
AngleInDegrees = "270";
};
}),
(415,141,o),
(386,143,o),
(363,146,c),
(363,499,l,{
"Letterink-NibData" = {
AngleInDegrees = "270";
};
}),
(198,499,l,{
"Letterink-NibData" = {
AngleInDegrees = "180";
};
}),
(198,5,l,{
"Letterink-NibData" = {
AngleInDegrees = "95.10217";
};
}),
(288,-4,ls,{
"Letterink-NibData" = {
AngleInDegrees = "95.12819";
};
}),
(322,-7,o),
(367,-10,o),
(396,-10,cs,{
"Letterink-NibData" = {
AngleInDegrees = "90";
};
})
);
}
);
width = 824;
}
);
metricLeft = E;
metricRight = O;
userData = {
position = 674;
width = 60;
};
},
{
glyphname = E;
kernLeft = E;
kernRight = E;
layers = (
{
anchors = (
{
name = bottom;
pos = (390,0);
},
{
name = ogonek;
pos = (601,-1);
},
{
name = top;
pos = (371,684);
},
{
name = topleft;
pos = (60,684);
}
);
hints = (
{
name = _corner.caps_left;
origin = (0,10);
type = Corner;
}
);
layerId = "0CAF3BED-C4AC-4024-B3E1-4C69D1EF7EC0";
shapes = (
{
closed = 1;
nodes = (
(601,-1,l),
(601,75,l,{
"Letterink-NibData" = {
AngleInDegrees = "270";
};
}),
(214,75,l),
(214,323,l,{
"Letterink-NibData" = {
AngleInDegrees = "90";
};
}),
(485,323,l),
(485,399,l,{
"Letterink-NibData" = {
AngleInDegrees = "270";
};
}),
(214,399,l),
(214,608,l,{
"Letterink-NibData" = {
AngleInDegrees = "90";
};
}),
(582,608,l),
(582,684,l,{
"Letterink-NibData" = {
AngleInDegrees = "270";
};
}),
(132,684,l,{
"Letterink-NibData" = {
AngleInDegrees = "180";
};
}),
(132,-1,l,{
"Letterink-NibData" = {
AngleInDegrees = "90";
};
})
);
}
);
width = 642;
},
{
anchors = (
{
name = bottom;
pos = (338,0);
},
{
name = ogonek;
pos = (557,1);
},
{
name = top;
pos = (345,684);
},
{
name = topleft;
pos = (31,684);
}
);
hints = (
{
name = _corner.caps_left;
origin = (0,10);
type = Corner;
}
);
layerId = "49C16FD3-6177-408B-A733-AEB3898BB77C";
shapes = (
{
closed = 1;
nodes = (
(558,0,l),
(558,36,l,{
"Letterink-NibData" = {
AngleInDegrees = 270;
};
}),
(172,36,l),
(172,346,l,{
"Letterink-NibData" = {
AngleInDegrees = 90;
};
}),
(435,346,l),
(435,382,l,{
"Letterink-NibData" = {
AngleInDegrees = 270;
};
}),
(172,382,l),
(172,649,l,{
"Letterink-NibData" = {
AngleInDegrees = 90;
};
}),
(560,649,l),
(560,685,l,{
"Letterink-NibData" = {
AngleInDegrees = 269.86613;
};
}),
(134,684,l,{
"Letterink-NibData" = {
AngleInDegrees = 180;
};
}),
(134,0,l,{
"Letterink-NibData" = {
AngleInDegrees = 90;
};
})
);
}
);
width = 607;
},
{
anchors = (
{
name = bottom;
pos = (425,0);
},
{
name = ogonek;
pos = (628,0);
},
{
name = top;
pos = (407,684);
},
{
name = topleft;
pos = (166,684);
}
);
hints = (
{
name = _corner.caps_left;
origin = (0,10);
type = Corner;
}
);
layerId = m004;
shapes = (
{
closed = 1;
nodes = (
(628,0,l),
(628,148,l,{
"Letterink-NibData" = {
AngleInDegrees = "270";
};
}),
(332,148,l),
(332,273,l,{
"Letterink-NibData" = {
AngleInDegrees = "90";
};
}),
(532,273,l),
(532,421,l,{
"Letterink-NibData" = {
AngleInDegrees = "270";
};
}),
(332,421,l),
(332,536,l,{
"Letterink-NibData" = {
AngleInDegrees = "90";
};
}),
(618,536,l),
(618,684,l,{
"Letterink-NibData" = {
AngleInDegrees = "270";
};
}),
(166,684,l,{
"Letterink-NibData" = {
AngleInDegrees = "180";
};
}),
(166,0,l,{
"Letterink-NibData" = {
AngleInDegrees = "90";
};
})
);
}
);
width = 668;
}
);
unicode = 69;
userData = {
position = 130;
width = 61;
};
},
{
glyphname = E.ss01;
kernLeft = L;
kernRight = E;
layers = (
{
anchors = (
{
name = bottom;
pos = (306,0);
},
{
name = ogonek;
pos = (537,-1);
},
{
name = top;
pos = (308,685);
},
{
name = topleft;
pos = (4,684);
}
);
layerId = "0CAF3BED-C4AC-4024-B3E1-4C69D1EF7EC0";
shapes = (
{
closed = 1;
nodes = (
(537,-1,l),
(537,75,l,{
"Letterink-NibData" = {
AngleInDegrees = 270;
};
}),
(150,75,l),
(150,323,l,{
"Letterink-NibData" = {
AngleInDegrees = 90;
};
}),
(421,323,l),
(421,399,l,{
"Letterink-NibData" = {
AngleInDegrees = 270;
};
}),
(150,399,l),
(150,608,l,{
"Letterink-NibData" = {
AngleInDegrees = 90;
};
}),
(518,608,l),
(518,684,l,{
"Letterink-NibData" = {
AngleInDegrees = 270;
};
}),
(68,684,l,{
"Letterink-NibData" = {
AngleInDegrees = 180;
};
}),
(68,-1,l,{
"Letterink-NibData" = {
AngleInDegrees = 90;
};
})
);
}
);
width = 578;
},
{
anchors = (
{
name = bottom;
pos = (308,2);
},
{
name = ogonek;
pos = (530,1);
},
{
name = top;
pos = (306,684);
},
{
name = topleft;
pos = (14,684);
}
);
layerId = "49C16FD3-6177-408B-A733-AEB3898BB77C";
shapes = (
{
closed = 1;
nodes = (
(530,0,l),
(530,36,l,{
"Letterink-NibData" = {
AngleInDegrees = 270;
};
}),
(118,36,l),
(118,346,l,{
"Letterink-NibData" = {
AngleInDegrees = 90;
};
}),
(407,346,l),
(407,382,l,{
"Letterink-NibData" = {
AngleInDegrees = 270;
};
}),
(118,382,l),
(118,649,l,{
"Letterink-NibData" = {
AngleInDegrees = 90;
};
}),
(510,649,l),
(510,685,l,{
"Letterink-NibData" = {
AngleInDegrees = 270;
};
}),
(80,685,l,{
"Letterink-NibData" = {
AngleInDegrees = 180;
};
}),
(80,0,l,{
"Letterink-NibData" = {
AngleInDegrees = 90;
};
})
);
}
);
width = 577;
},
{
anchors = (
{
name = bottom;
pos = (308,0);
},
{
name = ogonek;
pos = (543,0);
},
{
name = top;
pos = (295,687);
},
{
name = topleft;
pos = (51,684);
}
);
layerId = m004;
shapes = (
{
closed = 1;
nodes = (
(543,0,l),
(543,148,l,{
"Letterink-NibData" = {
AngleInDegrees = 270;
};
}),
(217,148,l),
(217,273,l,{
"Letterink-NibData" = {
AngleInDegrees = 90;
};
}),
(447,273,l),
(447,411,l,{
"Letterink-NibData" = {
AngleInDegrees = 270;
};
}),
(217,411,l),
(217,536,l,{
"Letterink-NibData" = {
AngleInDegrees = 90;
};
}),
(533,536,l),
(533,684,l,{
"Letterink-NibData" = {
AngleInDegrees = 270;
};
}),
(52,684,l,{
"Letterink-NibData" = {
AngleInDegrees = 180;
};
}),
(52,0,l,{
"Letterink-NibData" = {
AngleInDegrees = 90;
};
})
);
}
);
width = 583;
}
);
metricLeft = N.ss01;
metricRight = E;
userData = {
position = 95;
width = 61;
};
},
{
glyphname = E.swsh;
kernLeft = Swash;
kernRight = E;
layers = (
{
anchors = (
{
name = bottom;
pos = (422,0);
},
{
name = ogonek;
pos = (640,0);
},
{
name = top;
pos = (415,684);
},
{
name = topleft;
pos = (23,684);
}
);
hints = (
{
name = _corner.caps_swash;
origin = (1,2);
type = Corner;
}
);
layerId = "0CAF3BED-C4AC-4024-B3E1-4C69D1EF7EC0";
shapes = (
{
closed = 1;
nodes = (
(640,0,l),
(640,76,l,{
"Letterink-NibData" = {
AngleInDegrees = 270;
};
}),
(274,76,l),
(274,325,l,{
"Letterink-NibData" = {
AngleInDegrees = 90;
};
}),
(524,325,l),
(524,401,l,{
"Letterink-NibData" = {
AngleInDegrees = 270;
};
}),
(274,401,l),
(274,559,l,{
"Letterink-NibData" = {
AngleInDegrees = 270;
};
}),
(192,559,l,{
"Letterink-NibData" = {
AngleInDegrees = 180;
};
}),
(192,0,l,{
"Letterink-NibData" = {
AngleInDegrees = 90;
};
})
);
},
{
closed = 1;
nodes = (
(640,609,l),
(640,685,l,{
"Letterink-NibData" = {
AngleInDegrees = 270;
};
}),
(167,685,l,{
"Letterink-NibData" = {
AngleInDegrees = 180;
};
}),
(167,609,l,{
"Letterink-NibData" = {
AngleInDegrees = 90;
};
})
);
}
);
width = 681;
},
{
anchors = (
{
name = bottom;
pos = (410,0);
},
{
name = ogonek;
pos = (618,0);
},
{
name = top;
pos = (400,684);
},
{
name = topleft;
pos = (4,684);
}
);
hints = (
{
name = _corner.caps_swash;
origin = (1,2);
type = Corner;
}
);
layerId = "49C16FD3-6177-408B-A733-AEB3898BB77C";
shapes = (
{
closed = 1;
nodes = (
(618,0,l),
(618,36,l,{
"Letterink-NibData" = {
AngleInDegrees = 270;
};
}),
(226,36,l),
(226,346,l,{
"Letterink-NibData" = {
AngleInDegrees = 90;
};
}),
(494,346,l),
(494,382,l,{
"Letterink-NibData" = {
AngleInDegrees = 270;
};
}),
(226,382,l),
(226,570,l,{
"Letterink-NibData" = {
AngleInDegrees = 270;
};
}),
(189,570,l,{
"Letterink-NibData" = {
AngleInDegrees = 180;
};
}),
(189,0,l,{
"Letterink-NibData" = {
AngleInDegrees = 90;
};
})
);
},
{
closed = 1;
nodes = (
(618,648,l),
(618,684,l,{
"Letterink-NibData" = {
AngleInDegrees = 270;
};
}),
(155,684,l,{
"Letterink-NibData" = {
AngleInDegrees = 180;
};
}),
(155,648,l,{
"Letterink-NibData" = {
AngleInDegrees = 90;
};
})
);
}
);
width = 665;
},
{
anchors = (
{
name = bottom;
pos = (449,0);
},
{
name = ogonek;
pos = (680,0);
},
{
name = top;
pos = (437,684);
},
{
name = topleft;
pos = (-11,728);
}
);
hints = (
{
name = _corner.caps_swash;
origin = (1,2);
type = Corner;
}
);
layerId = m004;
shapes = (
{
closed = 1;
nodes = (
(680,0,l),
(680,148,l,{
"Letterink-NibData" = {
AngleInDegrees = "270";
};
}),
(364,148,l),
(364,276,l,{
"Letterink-NibData" = {
AngleInDegrees = "90";
};
}),
(584,276,l),
(584,414,l,{
"Letterink-NibData" = {
AngleInDegrees = "270";
};
}),
(364,414,l),
(364,501,l,{
"Letterink-NibData" = {
AngleInDegrees = "90";
};
}),
(198,500,l,{
"Letterink-NibData" = {
AngleInDegrees = "180";
};
}),
(198,0,l,{
"Letterink-NibData" = {
AngleInDegrees = "90";
};
})
);
},
{
closed = 1;
nodes = (
(670,536,l),
(670,684,l,{
"Letterink-NibData" = {
AngleInDegrees = "270";
};
}),
(198,684,l,{
"Letterink-NibData" = {
AngleInDegrees = "180";
};
}),
(198,536,l)
);
}
);
width = 720;
}
);
metricLeft = E;
metricRight = E;
userData = {
position = 130;
width = 61;
};
},
{
glyphname = Schwa;
kernLeft = O;
kernRight = O;
layers = (
{
anchors = (
{
name = bottom;
pos = (323,-14);
},
{
name = ogonek;
pos = (544,85);
},
{
name = top;
pos = (324,701);
}
);
layerId = "49C16FD3-6177-408B-A733-AEB3898BB77C";
shapes = (
{
closed = 1;
nodes = (
(503,-16,o),
(629,128,o),
(629,365,cs,{
"Letterink-NibData" = {
AngleInDegrees = 180;
};
}),
(629,566,o),
(522,701,o),
(324,701,cs,{
"Letterink-NibData" = {
AngleInDegrees = 90;
};
}),
(238,701,o),
(156,679,o),
(85,630,c,{
"Letterink-NibData" = {
AngleInDegrees = 328.49573;
};
}),
(101,604,l,{
"Letterink-NibData" = {
AngleInDegrees = 241.38954;
};
}),
(179,648,o),
(239,668,o),
(314,668,cs,{
"Letterink-NibData" = {
AngleInDegrees = 270;
};
}),
(571,668,o),
(594,442,o),
(594,359,cs),
(594,168,o),
(486,16,o),
(321,16,cs,{
"Letterink-NibData" = {
AngleInDegrees = 90;
};
}),
(198,16,o),
(94,121,o),
(94,267,cs,{
"Letterink-NibData" = {
AngleInDegrees = 180;
};
}),
(94,278,o),
(95,315,o),
(102,351,c,{
"Letterink-NibData" = {
AngleInDegrees = 90;
};
}),
(63,351,l,{
"Letterink-NibData" = {
AngleInDegrees = 4.96974;
};
}),
(60,316,o),
(58,291,o),
(58,270,cs),
(58,99,o),
(166,-12,o),
(323,-14,cs,{
"Letterink-NibData" = {
AngleInDegrees = 270.42128;
};
})
);
},
{
closed = 1;
nodes = (
(601,318,l,{
"Letterink-NibData" = {
AngleInDegrees = 180;
};
}),
(601,351,l,{
"Letterink-NibData" = {
AngleInDegrees = 90;
};
}),
(89,351,l),
(89,318,l,{
"Letterink-NibData" = {
AngleInDegrees = 270;
};
})
);
}
);
userData = {
RMXScaler = {
height = 140;
weight = -145;
width = 135;
};
};
width = 687;
},
{
anchors = (
{
name = bottom;
pos = (328,0);
},
{
name = ogonek;
pos = (616,68);
},
{
name = top;
pos = (328,712);
}
);
layerId = "0CAF3BED-C4AC-4024-B3E1-4C69D1EF7EC0";
shapes = (
{
closed = 1;
nodes = (
(532,-15,o),
(642,177,o),
(642,369,cs,{
"Letterink-NibData" = {
AngleInDegrees = 180;
};
}),
(642,568,o),
(530,712,o),
(328,712,cs,{
"Letterink-NibData" = {
AngleInDegrees = 90;
};
}),
(235,712,o),
(140,683,o),
(72,629,c,{
"Letterink-NibData" = {
AngleInDegrees = 328.49573;
};
}),
(108,569,l,{
"Letterink-NibData" = {
AngleInDegrees = 235.0806;
};
}),
(187,621,o),
(249,635,o),
(323,635,cs,{
"Letterink-NibData" = {
AngleInDegrees = 270;
};
}),
(545,635,o),
(558,442,o),
(558,370,cs),
(558,169,o),
(453,62,o),
(328,62,cs,{
"Letterink-NibData" = {
AngleInDegrees = 90;
};
}),
(218,62,o),
(130,153,o),
(130,273,cs,{
"Letterink-NibData" = {
AngleInDegrees = 180;
};
}),
(130,301,o),
(134,337,o),
(140,377,c,{
"Letterink-NibData" = {
AngleInDegrees = 90;
};
}),
(52,377,l,{
"Letterink-NibData" = {
AngleInDegrees = 4.08562;
};
}),
(50,342,o),
(46,313,o),
(46,277,cs),
(46,113,o),
(169,-15,o),
(327,-15,cs,{
"Letterink-NibData" = {
AngleInDegrees = 270;
};
})
);
},
{
closed = 1;
nodes = (
(615,300,l,{
"Letterink-NibData" = {
AngleInDegrees = 180;
};
}),
(615,377,l,{
"Letterink-NibData" = {
AngleInDegrees = 90;
};
}),
(83,377,l),
(83,300,l,{
"Letterink-NibData" = {
AngleInDegrees = 270;
};
})
);
}
);
userData = {
RMXScaler = {
height = 140;
weight = -120;
width = 135;
};
};
width = 688;
},
{
anchors = (
{
name = bottom;
pos = (358,48);
},
{
name = ogonek;
pos = (662,96);
},
{
name = top;
pos = (354,697);
}
);
layerId = m004;
shapes = (
{
closed = 1;
nodes = (
(536,-20,o),
(657,161,o),
(657,354,cs,{
"Letterink-NibData" = {
AngleInDegrees = 180;
};
}),
(657,549,o),
(538,705,o),
(327,705,cs,{
"Letterink-NibData" = {
AngleInDegrees = 90;
};
}),
(211,705,o),
(96,659,o),
(42,592,c,{
"Letterink-NibData" = {
AngleInDegrees = 328.49573;
};
}),
(124,476,l,{
"Letterink-NibData" = {
AngleInDegrees = 235.0806;
};
}),
(175,529,o),
(247,558,o),
(316,558,cs,{
"Letterink-NibData" = {
AngleInDegrees = 270;
};
}),
(457,558,o),
(477,437,o),
(477,354,cs),
(477,198,o),
(403,129,o),
(327,129,cs,{
"Letterink-NibData" = {
AngleInDegrees = 90;
};
}),
(262,129,o),
(207,184,o),
(207,264,cs,{
"Letterink-NibData" = {
AngleInDegrees = 180;
};
}),
(207,299,o),
(207,334,o),
(218,399,c,{
"Letterink-NibData" = {
AngleInDegrees = 90;
};
}),
(41,399,l,{
"Letterink-NibData" = {
AngleInDegrees = 4.08562;
};
}),
(35,354,o),
(32,316,o),
(32,268,cs),
(32,100,o),
(156,-18,o),
(324,-19,cs,{
"Letterink-NibData" = {
AngleInDegrees = 270;
};
})
);
},
{
closed = 1;
nodes = (
(639,261,l,{
"Letterink-NibData" = {
AngleInDegrees = 180;
};
}),
(639,399,l,{
"Letterink-NibData" = {
AngleInDegrees = 90;
};
}),
(52,399,l),
(52,261,l,{
"Letterink-NibData" = {
AngleInDegrees = 270;
};
})
);
}
);
userData = {
RMXScaler = {
height = 140;
weight = 200;
width = 135;
};
};
width = 689;
}
);
metricLeft = O;
metricRight = O;
unicode = 399;
userData = {
RMXScaler = {
source = e.ss01;
};
};
},
{
glyphname = F;
kernLeft = E;
kernRight = F;
layers = (
{
anchors = (
{
name = bottom;
pos = (346,0);
},
{
name = top;
pos = (347,684);
}
);
hints = (
{
name = _corner.caps_left;
origin = (0,8);
type = Corner;
}
);
layerId = "0CAF3BED-C4AC-4024-B3E1-4C69D1EF7EC0";
shapes = (
{
closed = 1;
nodes = (
(215,-1,l),
(215,323,l,{
"Letterink-NibData" = {
AngleInDegrees = 90;
};
}),
(465,323,l),
(465,400,l,{
"Letterink-NibData" = {
AngleInDegrees = 270;
};
}),
(215,400,l),
(215,609,l,{
"Letterink-NibData" = {
AngleInDegrees = 90;
};
}),
(551,609,l),
(551,685,l,{
"Letterink-NibData" = {
AngleInDegrees = 270;
};
}),
(132,685,l,{
"Letterink-NibData" = {
AngleInDegrees = 179.91648;
};
}),
(133,-1,l,{
"Letterink-NibData" = {
AngleInDegrees = 90;
};
})
);
}
);
width = 584;
},
{
anchors = (
{
name = bottom;
pos = (348,-18);
},
{
name = top;
pos = (350,684);
}
);
hints = (
{
name = _corner.caps_left;
origin = (0,8);
type = Corner;
}
);
layerId = "49C16FD3-6177-408B-A733-AEB3898BB77C";
shapes = (
{
closed = 1;
nodes = (
(172,0,l),
(172,345,l,{
"Letterink-NibData" = {
AngleInDegrees = 90;
};
}),
(439,345,l),
(439,381,l,{
"Letterink-NibData" = {
AngleInDegrees = 270;
};
}),
(172,381,l),
(172,648,l,{
"Letterink-NibData" = {
AngleInDegrees = 90;
};
}),
(532,648,l),
(532,684,l,{
"Letterink-NibData" = {
AngleInDegrees = 270;
};
}),
(134,684,l,{
"Letterink-NibData" = {
AngleInDegrees = 180;
};
}),
(134,0,l,{
"Letterink-NibData" = {
AngleInDegrees = 90;
};
})
);
}
);
width = 570;
},
{
anchors = (
{
name = bottom;
pos = (409,-3);
},
{
name = top;
pos = (411,684);
}
);
background = {
anchors = (
{
name = bottom;
pos = (354,0);
},
{
name = top;
pos = (354,684);
}
);
hints = (
{
name = _corner.caps_left;
origin = (0,8);
type = Corner;
}
);
shapes = (
{
closed = 1;
nodes = (
(262,-1,l),
(262,323,l,{
"Letterink-NibData" = {
AngleInDegrees = 90;
};
}),
(512,323,l),
(512,400,l,{
"Letterink-NibData" = {
AngleInDegrees = 270;
};
}),
(262,400,l),
(262,609,l,{
"Letterink-NibData" = {
AngleInDegrees = 90;
};
}),
(608,609,l),
(608,685,l,{
"Letterink-NibData" = {
AngleInDegrees = 270;
};
}),
(179,685,l,{
"Letterink-NibData" = {
AngleInDegrees = 179.91648;
};
}),
(180,-1,l,{
"Letterink-NibData" = {
AngleInDegrees = 90;
};
})
);
}
);
};
hints = (
{
name = _corner.caps_left;
origin = (0,8);
type = Corner;
}
);
layerId = m004;
shapes = (
{
closed = 1;
nodes = (
(333,0,l),
(332,263,l,{
"Letterink-NibData" = {
AngleInDegrees = "90";
};
}),
(532,263,l),
(532,401,l,{
"Letterink-NibData" = {
AngleInDegrees = "270";
};
}),
(332,401,l),
(332,536,l,{
"Letterink-NibData" = {
AngleInDegrees = "90";
};
}),
(618,536,l),
(618,684,l,{
"Letterink-NibData" = {
AngleInDegrees = "270";
};
}),
(166,684,l,{
"Letterink-NibData" = {
AngleInDegrees = "180";
};
}),
(166,0,l,{
"Letterink-NibData" = {
AngleInDegrees = "90";
};
})
);
}
);
width = 650;
}
);
metricLeft = E;
metricRight = "=E*.8";
unicode = 70;
userData = {
position = 129;
width = 61;
};
},
{
glyphname = F.ss01;
kernRight = F;
layers = (
{
anchors = (
{
name = bottom;
pos = (281,0);
},
{
name = top;
pos = (282,684);
}
);
layerId = "0CAF3BED-C4AC-4024-B3E1-4C69D1EF7EC0";
shapes = (
{
closed = 1;
nodes = (
(150,-1,l),
(150,315,l,{
"Letterink-NibData" = {
AngleInDegrees = 90;
};
}),
(428,315,l),
(428,393,l,{
"Letterink-NibData" = {
AngleInDegrees = 270;
};
}),
(150,393,l),
(150,608,l,{
"Letterink-NibData" = {
AngleInDegrees = 90;
};
}),
(496,608,l),
(496,686,l,{
"Letterink-NibData" = {
AngleInDegrees = 270;
};
}),
(68,686,l,{
"Letterink-NibData" = {
AngleInDegrees = 180;
};
}),
(68,-1,l,{
"Letterink-NibData" = {
AngleInDegrees = 90;
};
})
);
}
);
width = 521;
},
{
anchors = (
{
name = bottom;
pos = (281,0);
},
{
name = top;
pos = (283,684);
}
);
layerId = "49C16FD3-6177-408B-A733-AEB3898BB77C";
shapes = (
{
closed = 1;
nodes = (
(121,1,l),
(121,337,l,{
"Letterink-NibData" = {
AngleInDegrees = 90;
};
}),
(418,337,l),
(418,372,l,{
"Letterink-NibData" = {
AngleInDegrees = 270;
};
}),
(121,372,l),
(121,648,l,{
"Letterink-NibData" = {
AngleInDegrees = 90;
};
}),
(490,648,l),
(490,685,l,{
"Letterink-NibData" = {
AngleInDegrees = 270;
};
}),
(80,685,l,{
"Letterink-NibData" = {
AngleInDegrees = 180;
};
}),
(80,1,l,{
"Letterink-NibData" = {
AngleInDegrees = 90;
};
})
);
}
);
width = 518;
},
{
anchors = (
{
name = bottom;
pos = (286,-11);
},
{
name = top;
pos = (288,684);
}
);
layerId = m004;
shapes = (
{
closed = 1;
nodes = (
(219,1,l),
(218,263,l,{
"Letterink-NibData" = {
AngleInDegrees = "90";
};
}),
(438,263,l),
(438,401,l,{
"Letterink-NibData" = {
AngleInDegrees = "270";
};
}),
(218,401,l),
(218,536,l,{
"Letterink-NibData" = {
AngleInDegrees = "90";
};
}),
(524,536,l),
(524,684,l,{
"Letterink-NibData" = {
AngleInDegrees = "270";
};
}),
(52,684,l,{
"Letterink-NibData" = {
AngleInDegrees = "180";
};
}),
(52,1,l,{
"Letterink-NibData" = {
AngleInDegrees = "90";
};
})
);
}
);
width = 548;
}
);
metricLeft = N.ss01;
metricRight = "=E*.6";
userData = {
position = 95;
width = 61;
};
},
{
glyphname = F.swsh;
kernLeft = Swash;
kernRight = F;
layers = (
{
anchors = (
{
name = bottom;
pos = (385,0);
},
{
name = top;
pos = (379,684);
}
);
hints = (
{
name = _corner.caps_swash;
origin = (1,2);
type = Corner;
}
);
layerId = "0CAF3BED-C4AC-4024-B3E1-4C69D1EF7EC0";
shapes = (
{
closed = 1;
nodes = (
(276,-1,l),
(276,360,l,{
"Letterink-NibData" = {
AngleInDegrees = 90;
};
}),
(240,324,l,{
"Letterink-NibData" = {
AngleInDegrees = 90;
};
}),
(525,324,l),
(525,400,l,{
"Letterink-NibData" = {
AngleInDegrees = 270;
};
}),
(240,400,l),
(276,364,l),
(276,559,l,{
"Letterink-NibData" = {
AngleInDegrees = 270;
};
}),
(193,559,l,{
"Letterink-NibData" = {
AngleInDegrees = 180;
};
}),
(193,-1,l,{
"Letterink-NibData" = {
AngleInDegrees = 90;
};
})
);
},
{
closed = 1;
nodes = (
(621,608,l),
(621,684,l,{
"Letterink-NibData" = {
AngleInDegrees = 270;
};
}),
(167,684,l,{
"Letterink-NibData" = {
AngleInDegrees = 180;
};
}),
(167,608,l,{
"Letterink-NibData" = {
AngleInDegrees = 90;
};
})
);
}
);
width = 654;
},
{
anchors = (
{
name = bottom;
pos = (370,0);
},
{
name = top;
pos = (366,684);
}
);
hints = (
{
name = _corner.caps_swash;
origin = (1,2);
type = Corner;
}
);
layerId = "49C16FD3-6177-408B-A733-AEB3898BB77C";
shapes = (
{
closed = 1;
nodes = (
(226,0,l),
(226,361,l,{
"Letterink-NibData" = {
AngleInDegrees = 90;
};
}),
(210,345,l,{
"Letterink-NibData" = {
AngleInDegrees = 90;
};
}),
(494,345,l),
(494,381,l,{
"Letterink-NibData" = {
AngleInDegrees = 270;
};
}),
(210,381,l),
(226,365,l),
(226,570,l,{
"Letterink-NibData" = {
AngleInDegrees = 270;
};
}),
(188,570,l,{
"Letterink-NibData" = {
AngleInDegrees = 180;
};
}),
(188,0,l,{
"Letterink-NibData" = {
AngleInDegrees = 90;
};
})
);
},
{
closed = 1;
nodes = (
(598,648,l),
(598,684,l,{
"Letterink-NibData" = {
AngleInDegrees = 270;
};
}),
(155,684,l,{
"Letterink-NibData" = {
AngleInDegrees = 180;
};
}),
(155,648,l,{
"Letterink-NibData" = {
AngleInDegrees = 90;
};
})
);
}
);
width = 636;
},
{
anchors = (
{
name = bottom;
pos = (450,-4);
},
{
name = top;
pos = (453,684);
}
);
hints = (
{
name = _corner.caps_swash;
origin = (1,2);
type = Corner;
}
);
layerId = m004;
shapes = (
{
closed = 1;
nodes = (
(364,0,l),
(364,334,l,{
"Letterink-NibData" = {
AngleInDegrees = "90";
};
}),
(293,263,l,{
"Letterink-NibData" = {
AngleInDegrees = "90";
};
}),
(584,263,l),
(584,401,l,{
"Letterink-NibData" = {
AngleInDegrees = "270";
};
}),
(293,401,l),
(364,340,l),
(364,499,l,{
"Letterink-NibData" = {
AngleInDegrees = "90";
};
}),
(198,499,l),
(198,0,l,{
"Letterink-NibData" = {
AngleInDegrees = "90";
};
})
);
},
{
closed = 1;
nodes = (
(670,536,l),
(670,684,l,{
"Letterink-NibData" = {
AngleInDegrees = "270";
};
}),
(198,684,l,{
"Letterink-NibData" = {
AngleInDegrees = "180";
};
}),
(198,536,l)
);
}
);
width = 702;
}
);
metricLeft = E.swsh;
metricRight = F;
userData = {
position = 129;
width = 61;
};
},
{
glyphname = G;
kernLeft = O;
kernRight = O;
layers = (
{
anchors = (
{
name = bottom;
pos = (380,-9);
},
{
name = top;
pos = (380,689);
}
);
background = {
shapes = (
{
closed = 1;
nodes = (
(578,-25,o),
(724,126,o),
(724,326,cs),
(724,355,ls),
(724,548,o),
(572,702,o),
(382,702,cs,{
"Letterink-NibData" = {
AngleInDegrees = "270";
};
}),
(192,702,o),
(41,548,o),
(41,355,cs,{
"Letterink-NibData" = {
AngleInDegrees = "180";
};
}),
(41,326,ls,{
"Letterink-NibData" = {
AngleInDegrees = "180";
};
}),
(41,126,o),
(185,-19,o),
(386,-22,cs,{
"Letterink-NibData" = {
AngleInDegrees = "90.89517371732774";
};
})
);
},
{
closed = 1;
nodes = (
(235,54,o),
(123,170,o),
(123,326,cs),
(123,355,ls),
(123,504,o),
(237,626,o),
(381,626,cs,{
"Letterink-NibData" = {
AngleInDegrees = "90";
};
}),
(527,626,o),
(642,504,o),
(642,355,cs,{
"Letterink-NibData" = {
AngleInDegrees = "180";
};
}),
(642,326,ls,{
"Letterink-NibData" = {
AngleInDegrees = "180";
};
}),
(642,170,o),
(530,54,o),
(383,54,cs,{
"Letterink-NibData" = {
AngleInDegrees = "270";
};
})
);
}
);
};
layerId = "0CAF3BED-C4AC-4024-B3E1-4C69D1EF7EC0";
shapes = (
{
closed = 1;
nodes = (
(596,-21,o),
(704,136,o),
(698,332,cs),
(698,342,l),
(382,342,l),
(382,272,l),
(661,272,l),
(620,303,l),
(623,158,o),
(549,55,o),
(398,55,cs),
(243,55,o),
(126,164,o),
(126,339,cs),
(126,504,o),
(241,627,o),
(394,627,cs),
(526,627,o),
(572,575,o),
(572,541,cs),
(572,527,o),
(563,508,o),
(546,508,cs),
(540,508,o),
(531,509,o),
(523,514,c),
(483,454,l),
(505,439,o),
(528,434,o),
(546,434,cs),
(600,434,o),
(650,477,o),
(650,541,cs),
(650,654,o),
(528,703,o),
(394,703,cs),
(203,703,o),
(46,539,o),
(46,339,cs),
(46,127,o),
(197,-21,o),
(398,-21,cs)
);
}
);
width = 743;
},
{
anchors = (
{
name = bottom;
pos = (395,0);
},
{
name = top;
pos = (393,688);
}
);
background = {
shapes = (
{
closed = 1;
nodes = (
(591,-14,o),
(733,131,o),
(733,331,cs),
(733,350,ls),
(733,550,o),
(585,702,o),
(391,702,cs,{
"Letterink-NibData" = {
AngleInDegrees = "270";
};
}),
(197,702,o),
(51,551,o),
(51,350,cs,{
"Letterink-NibData" = {
AngleInDegrees = "180";
};
}),
(51,331,ls,{
"Letterink-NibData" = {
AngleInDegrees = "180";
};
}),
(51,133,o),
(198,-14,o),
(395,-14,cs,{
"Letterink-NibData" = {
AngleInDegrees = "90";
};
})
);
},
{
closed = 1;
nodes = (
(221,24,o),
(93,156,o),
(93,331,cs),
(93,350,ls),
(93,526,o),
(222,662,o),
(390,662,cs,{
"Letterink-NibData" = {
AngleInDegrees = "90";
};
}),
(559,662,o),
(691,526,o),
(691,350,cs,{
"Letterink-NibData" = {
AngleInDegrees = "180";
};
}),
(691,331,ls,{
"Letterink-NibData" = {
AngleInDegrees = "180";
};
}),
(691,156,o),
(562,24,o),
(392,24,cs,{
"Letterink-NibData" = {
AngleInDegrees = "270";
};
})
);
}
);
};
layerId = "49C16FD3-6177-408B-A733-AEB3898BB77C";
shapes = (
{
closed = 1;
nodes = (
(579,-14,o),
(702,118,o),
(702,311,cs),
(702,330,l),
(412,330,l),
(412,292,l),
(684,292,l),
(665,311,l),
(660,135,o),
(558,25,o),
(401,25,cs),
(214,25,o),
(96,153,o),
(96,340,cs),
(96,528,o),
(227,658,o),
(393,658,cs),
(537,658,o),
(608,585,o),
(609,538,cs),
(610,514,o),
(594,485,o),
(565,485,cs),
(554,485,o),
(542,488,o),
(533,494,c),
(511,463,l),
(530,449,o),
(550,446,o),
(565,446,cs),
(606,446,o),
(647,484,o),
(647,538,cs),
(647,620,o),
(547,696,o),
(393,696,cs),
(211,696,o),
(58,555,o),
(58,340,cs),
(58,130,o),
(198,-14,o),
(401,-14,cs)
);
}
);
width = 759;
},
{
anchors = (
{
name = bottom;
pos = (389,-35);
},
{
name = top;
pos = (399,683);
}
);
associatedMasterId = "49C16FD3-6177-408B-A733-AEB3898BB77C";
layerId = "D0E3D1AC-81E4-4FC2-A1B9-BDF5A86A417E";
name = "3 Jan 22, 15:37";
shapes = (
{
closed = 1;
nodes = (
(534,-20,o),
(675,85,o),
(675,253,c),
(675,296,l,{
"Letterink-NibData" = {
AngleInDegrees = 270;
};
}),
(633,296,l,{
"Letterink-NibData" = {
AngleInDegrees = 180;
};
}),
(633,251,l,{
"Letterink-NibData" = {
AngleInDegrees = 180;
};
}),
(633,124,o),
(520,20,o),
(389,20,cs,{
"Letterink-NibData" = {
AngleInDegrees = 270;
};
}),
(224,20,o),
(100,157,o),
(100,329,cs),
(100,504,o),
(229,658,o),
(399,658,cs,{
"Letterink-NibData" = {
AngleInDegrees = 90;
};
}),
(463,658,o),
(584,637,o),
(584,563,cs,{
"Letterink-NibData" = {
AngleInDegrees = 180;
};
}),
(584,537,o),
(567,514,o),
(544,514,cs,{
"Letterink-NibData" = {
AngleInDegrees = 270;
};
}),
(534,514,o),
(526,518,o),
(521,524,c,{
"Letterink-NibData" = {
AngleInDegrees = 218.23383;
};
}),
(495,491,l,{
"Letterink-NibData" = {
AngleInDegrees = 138.36646;
};
}),
(503,482,o),
(521,473,o),
(543,473,cs,{
"Letterink-NibData" = {
AngleInDegrees = 90;
};
}),
(591,473,o),
(625,509,o),
(625,563,cs),
(625,669,o),
(483,698,o),
(398,698,cs,{
"Letterink-NibData" = {
AngleInDegrees = 270;
};
}),
(200,698,o),
(58,531,o),
(58,330,cs,{
"Letterink-NibData" = {
AngleInDegrees = 180;
};
}),
(58,138,o),
(195,-20,o),
(389,-20,cs,{
"Letterink-NibData" = {
AngleInDegrees = 90;
};
})
);
},
{
closed = 1;
nodes = (
(675,293,l),
(675,335,l,{
"Letterink-NibData" = {
AngleInDegrees = 270;
};
}),
(384,335,l,{
"Letterink-NibData" = {
AngleInDegrees = 180;
};
}),
(384,293,l,{
"Letterink-NibData" = {
AngleInDegrees = 90;
};
})
);
}
);
width = 732;
},
{
anchors = (
{
name = bottom;
pos = (383,-16);
},
{
name = top;
pos = (386,684);
}
);
associatedMasterId = "0CAF3BED-C4AC-4024-B3E1-4C69D1EF7EC0";
layerId = "801CC91F-0C96-44A6-9720-FE52325A0B43";
name = "3 Jan 22, 15:45";
shapes = (
{
closed = 1;
nodes = (
(534,-13,o),
(676,104,o),
(676,271,cs),
(676,319,l,{
"Letterink-NibData" = {
AngleInDegrees = 270;
};
}),
(593,319,l,{
"Letterink-NibData" = {
AngleInDegrees = 178.85424;
};
}),
(594,269,l,{
"Letterink-NibData" = {
AngleInDegrees = 180.96286;
};
}),
(592,150,o),
(497,63,o),
(383,63,cs,{
"Letterink-NibData" = {
AngleInDegrees = 270;
};
}),
(238,63,o),
(128,176,o),
(128,342,cs),
(128,497,o),
(238,620,o),
(392,620,cs,{
"Letterink-NibData" = {
AngleInDegrees = 90;
};
}),
(449,620,o),
(551,599,o),
(551,544,cs,{
"Letterink-NibData" = {
AngleInDegrees = 180;
};
}),
(551,530,o),
(544,518,o),
(530,517,cs,{
"Letterink-NibData" = {
AngleInDegrees = 264.28941;
};
}),
(520,516,o),
(510,523,o),
(504,528,c,{
"Letterink-NibData" = {
AngleInDegrees = 218.90414;
};
}),
(458,471,l,{
"Letterink-NibData" = {
AngleInDegrees = 136.54816;
};
}),
(476,452,o),
(504,442,o),
(529,442,cs,{
"Letterink-NibData" = {
AngleInDegrees = 90;
};
}),
(584,442,o),
(628,488,o),
(628,547,cs),
(628,656,o),
(474,696,o),
(391,696,cs,{
"Letterink-NibData" = {
AngleInDegrees = 270;
};
}),
(198,696,o),
(46,539,o),
(46,343,cs,{
"Letterink-NibData" = {
AngleInDegrees = 180;
};
}),
(46,141,o),
(189,-13,o),
(383,-13,cs,{
"Letterink-NibData" = {
AngleInDegrees = 90;
};
})
);
},
{
closed = 1;
nodes = (
(676,280,l),
(676,356,l,{
"Letterink-NibData" = {
AngleInDegrees = 270;
};
}),
(357,356,l,{
"Letterink-NibData" = {
AngleInDegrees = 180;
};
}),
(357,280,l,{
"Letterink-NibData" = {
AngleInDegrees = 90;
};
})
);
}
);
width = 721;
},
{
anchors = (
{
name = bottom;
pos = (386,-16);
},
{
name = top;
pos = (389,684);
}
);
associatedMasterId = "0CAF3BED-C4AC-4024-B3E1-4C69D1EF7EC0";
layerId = "F3CD14B1-1EDD-434D-B368-A4692BE06C00";
name = "5 Jan 22, 08:08";
shapes = (
{
attr = {
strokeHeight = 74;
strokeWidth = 80;
};
closed = 0;
nodes = (
(511,478,l,{
"Letterink-NibData" = {
AngleInDegrees = 116.56505;
};
}),
(521,473,o),
(530,471,o),
(539,471,cs,{
"Letterink-NibData" = {
AngleInDegrees = 90;
};
}),
(583,471,o),
(604,511,o),
(604,546,cs),
(604,617,o),
(515,674,o),
(387,668,cs,{
"Letterink-NibData" = {
AngleInDegrees = 267.25739;
};
}),
(220,660,o),
(86,522,o),
(86,334,cs,{
"Letterink-NibData" = {
AngleInDegrees = 180;
};
}),
(86,144,o),
(223,4,o),
(404,15,cs,{
"Letterink-NibData" = {
AngleInDegrees = 86.30861;
};
}),
(559,25,o),
(644,137,o),
(644,281,c,{
"Letterink-NibData" = {
AngleInDegrees = 358.26429;
};
}),
(643,314,l,{
"Letterink-NibData" = {
AngleInDegrees = 270.21221;
};
}),
(373,315,l,{
"Letterink-NibData" = {
AngleInDegrees = 270.21221;
};
})
);
}
);
width = 729;
},
{
anchors = (
{
name = bottom;
pos = (387,-35);
},
{
name = top;
pos = (397,683);
}
);
associatedMasterId = "49C16FD3-6177-408B-A733-AEB3898BB77C";
background = {
shapes = (
{
closed = 1;
nodes = (
(535,-19,o),
(673,85,o),
(673,253,c),
(673,296,l),
(631,296,l),
(631,251,l),
(631,124,o),
(518,20,o),
(387,20,cs),
(222,20,o),
(98,157,o),
(98,329,cs),
(98,504,o),
(227,658,o),
(397,658,cs),
(461,658,o),
(582,637,o),
(582,563,cs),
(582,537,o),
(565,514,o),
(542,514,cs),
(532,514,o),
(524,518,o),
(519,524,c),
(493,491,l),
(501,482,o),
(519,473,o),
(541,473,cs),
(589,473,o),
(623,509,o),
(623,563,cs),
(623,669,o),
(481,698,o),
(396,698,cs),
(198,698,o),
(56,531,o),
(56,330,cs),
(56,138,o),
(193,-21,o),
(387,-20,cs)
);
}
);
};
layerId = "F0F46AC2-3B0D-4489-B32E-B81CEA10F2A9";
name = "5 Jan 22, 08:18";
shapes = (
{
attr = {
strokeHeight = 38;
strokeWidth = 42;
};
closed = 0;
nodes = (
(513,484,l,{
"Letterink-NibData" = {
AngleInDegrees = 116.56505;
};
}),
(523,479,o),
(532,477,o),
(542,477,cs,{
"Letterink-NibData" = {
AngleInDegrees = 90;
};
}),
(586,477,o),
(608,519,o),
(608,556,cs),
(608,630,o),
(517,690,o),
(386,683,cs,{
"Letterink-NibData" = {
AngleInDegrees = 267.30572;
};
}),
(216,675,o),
(79,530,o),
(79,334,cs,{
"Letterink-NibData" = {
AngleInDegrees = 180;
};
}),
(79,135,o),
(219,-12,o),
(399,0,cs,{
"Letterink-NibData" = {
AngleInDegrees = 86.48932;
};
}),
(562,10,o),
(649,127,o),
(649,278,c,{
"Letterink-NibData" = {
AngleInDegrees = 358.36342;
};
}),
(648,313,l,{
"Letterink-NibData" = {
AngleInDegrees = 270.20759;
};
}),
(372,314,l,{
"Letterink-NibData" = {
AngleInDegrees = 270.20759;
};
})
);
}
);
width = 727;
},
{
anchors = (
{
name = bottom;
pos = (384,-10);
},
{
name = top;
pos = (384,703);
}
);
background = {
shapes = (
{
closed = 1;
nodes = (
(592,-25,o),
(738,126,o),
(738,326,cs),
(738,355,ls),
(738,548,o),
(586,702,o),
(396,702,cs,{
"Letterink-NibData" = {
AngleInDegrees = "270";
};
}),
(206,702,o),
(55,548,o),
(55,355,cs,{
"Letterink-NibData" = {
AngleInDegrees = "180";
};
}),
(55,326,ls,{
"Letterink-NibData" = {
AngleInDegrees = "180";
};
}),
(55,126,o),
(199,-19,o),
(400,-22,cs,{
"Letterink-NibData" = {
AngleInDegrees = "90.89517371732774";
};
})
);
},
{
closed = 1;
nodes = (
(249,54,o),
(137,170,o),
(137,326,cs),
(137,355,ls),
(137,504,o),
(251,626,o),
(395,626,cs,{
"Letterink-NibData" = {
AngleInDegrees = "90";
};
}),
(541,626,o),
(656,504,o),
(656,355,cs,{
"Letterink-NibData" = {
AngleInDegrees = "180";
};
}),
(656,326,ls,{
"Letterink-NibData" = {
AngleInDegrees = "180";
};
}),
(656,170,o),
(544,54,o),
(397,54,cs,{
"Letterink-NibData" = {
AngleInDegrees = "270";
};
})
);
}
);
};
layerId = m004;
shapes = (
{
closed = 1;
nodes = (
(601,-28,o),
(728,115,o),
(713,342,cs),
(712,357,l),
(391,357,l),
(391,219,l),
(637,219,l),
(562,285,l),
(565,183,o),
(502,120,o),
(397,120,cs),
(275,120,o),
(197,204,o),
(197,336,cs),
(197,472,o),
(281,565,o),
(404,565,cs),
(467,565,o),
(531,544,o),
(531,513,cs),
(531,506,o),
(527,501,o),
(519,501,cs),
(512,501,o),
(508,504,o),
(504,508,c),
(436,419,l),
(458,397,o),
(490,385,o),
(525,385,cs),
(605,385,o),
(670,448,o),
(670,527,cs),
(670,632,o),
(554,713,o),
(401,713,cs),
(187,713,o),
(32,554,o),
(32,336,cs),
(32,124,o),
(179,-28,o),
(393,-28,cs)
);
}
);
width = 745;
},
{
anchors = (
{
name = bottom;
pos = (369,-16);
},
{
name = top;
pos = (372,684);
}
);
associatedMasterId = m004;
layerId = "0E9EACE4-EA9D-4B48-AA91-148DF9A2A64E";
name = "3 Jan 22, 15:45";
shapes = (
{
closed = 1;
nodes = (
(520,-13,o),
(662,104,o),
(662,271,cs),
(662,319,l,{
"Letterink-NibData" = {
AngleInDegrees = 270;
};
}),
(579,319,l,{
"Letterink-NibData" = {
AngleInDegrees = 178.85424;
};
}),
(580,269,l,{
"Letterink-NibData" = {
AngleInDegrees = 180.96286;
};
}),
(578,150,o),
(483,63,o),
(369,63,cs,{
"Letterink-NibData" = {
AngleInDegrees = 270;
};
}),
(224,63,o),
(114,176,o),
(114,342,cs),
(114,497,o),
(224,620,o),
(378,620,cs,{
"Letterink-NibData" = {
AngleInDegrees = 90;
};
}),
(435,620,o),
(537,599,o),
(537,544,cs,{
"Letterink-NibData" = {
AngleInDegrees = 180;
};
}),
(537,530,o),
(530,518,o),
(516,517,cs,{
"Letterink-NibData" = {
AngleInDegrees = 264.28941;
};
}),
(506,516,o),
(496,523,o),
(490,528,c,{
"Letterink-NibData" = {
AngleInDegrees = 218.90414;
};
}),
(444,471,l,{
"Letterink-NibData" = {
AngleInDegrees = 136.54816;
};
}),
(462,452,o),
(490,442,o),
(515,442,cs,{
"Letterink-NibData" = {
AngleInDegrees = 90;
};
}),
(570,442,o),
(614,488,o),
(614,547,cs),
(614,656,o),
(460,696,o),
(377,696,cs,{
"Letterink-NibData" = {
AngleInDegrees = 270;
};
}),
(184,696,o),
(32,539,o),
(32,343,cs,{
"Letterink-NibData" = {
AngleInDegrees = 180;
};
}),
(32,141,o),
(175,-13,o),
(369,-13,cs,{
"Letterink-NibData" = {
AngleInDegrees = 90;
};
})
);
},
{
closed = 1;
nodes = (
(662,280,l),
(662,356,l,{
"Letterink-NibData" = {
AngleInDegrees = 270;
};
}),
(343,356,l,{
"Letterink-NibData" = {
AngleInDegrees = 180;
};
}),
(343,280,l,{
"Letterink-NibData" = {
AngleInDegrees = 90;
};
})
);
}
);
width = 693;
},
{
anchors = (
{
name = bottom;
pos = (372,-16);
},
{
name = top;
pos = (375,684);
}
);
associatedMasterId = m004;
layerId = "E2560365-B553-4320-8997-4873FFE2CB5E";
name = "5 Jan 22, 08:08";
shapes = (
{
attr = {
strokeHeight = 74;
strokeWidth = 80;
};
closed = 0;
nodes = (
(497,478,l,{
"Letterink-NibData" = {
AngleInDegrees = 116.56505;
};
}),
(507,473,o),
(516,471,o),
(525,471,cs,{
"Letterink-NibData" = {
AngleInDegrees = 90;
};
}),
(569,471,o),
(590,511,o),
(590,546,cs),
(590,617,o),
(501,674,o),
(373,668,cs,{
"Letterink-NibData" = {
AngleInDegrees = 267.25739;
};
}),
(206,660,o),
(72,522,o),
(72,334,cs,{
"Letterink-NibData" = {
AngleInDegrees = 180;
};
}),
(72,144,o),
(209,4,o),
(390,15,cs,{
"Letterink-NibData" = {
AngleInDegrees = 86.30861;
};
}),
(545,25,o),
(630,137,o),
(630,281,c,{
"Letterink-NibData" = {
AngleInDegrees = 358.26429;
};
}),
(629,314,l,{
"Letterink-NibData" = {
AngleInDegrees = 270.21221;
};
}),
(359,315,l,{
"Letterink-NibData" = {
AngleInDegrees = 270.21221;
};
})
);
}
);
width = 701;
}
);
metricLeft = O;
metricRight = "=O*.975";
note = "Bold: 98/95.5%";
unicode = 71;
userData = {
position = 593;
width = 57;
};
},
{
glyphname = G.ss01;
kernLeft = O;
kernRight = O;
layers = (
{
anchors = (
{
name = bottom;
pos = (391,-6);
},
{
name = top;
pos = (388,691);
}
);
background = {
shapes = (
{
closed = 1;
nodes = (
(575,-25,o),
(721,126,o),
(721,326,cs),
(721,355,ls),
(721,548,o),
(569,702,o),
(379,702,cs,{
"Letterink-NibData" = {
AngleInDegrees = "270";
};
}),
(189,702,o),
(38,548,o),
(38,355,cs,{
"Letterink-NibData" = {
AngleInDegrees = "180";
};
}),
(38,326,ls,{
"Letterink-NibData" = {
AngleInDegrees = "180";
};
}),
(38,126,o),
(182,-19,o),
(383,-22,cs,{
"Letterink-NibData" = {
AngleInDegrees = "90.89517371732774";
};
})
);
},
{
closed = 1;
nodes = (
(232,54,o),
(120,170,o),
(120,326,cs),
(120,355,ls),
(120,504,o),
(234,626,o),
(378,626,cs,{
"Letterink-NibData" = {
AngleInDegrees = "90";
};
}),
(524,626,o),
(639,504,o),
(639,355,cs,{
"Letterink-NibData" = {
AngleInDegrees = "180";
};
}),
(639,326,ls,{
"Letterink-NibData" = {
AngleInDegrees = "180";
};
}),
(639,170,o),
(527,54,o),
(380,54,cs,{
"Letterink-NibData" = {
AngleInDegrees = "270";
};
})
);
}
);
};
layerId = "0CAF3BED-C4AC-4024-B3E1-4C69D1EF7EC0";
shapes = (
{
closed = 1;
nodes = (
(581,-17,o),
(707,117,o),
(707,320,cs),
(707,358,l),
(399,358,l),
(399,282,l),
(669,282,l),
(631,320,l),
(631,162,o),
(537,59,o),
(393,59,cs),
(237,59,o),
(126,178,o),
(126,345,cs),
(126,512,o),
(239,633,o),
(395,633,cs),
(494,633,o),
(576,584,o),
(598,513,c),
(670,535,l),
(640,639,o),
(528,709,o),
(394,709,cs),
(192,709,o),
(46,556,o),
(46,344,cs),
(46,133,o),
(189,-17,o),
(391,-17,cs)
);
}
);
width = 753;
},
{
anchors = (
{
name = bottom;
pos = (395,-2);
},
{
name = top;
pos = (402,694);
}
);
background = {
shapes = (
{
closed = 1;
nodes = (
(586,-14,o),
(728,131,o),
(728,331,cs),
(728,350,ls),
(728,550,o),
(580,702,o),
(386,702,cs,{
"Letterink-NibData" = {
AngleInDegrees = "270";
};
}),
(192,702,o),
(46,551,o),
(46,350,cs,{
"Letterink-NibData" = {
AngleInDegrees = "180";
};
}),
(46,331,ls,{
"Letterink-NibData" = {
AngleInDegrees = "180";
};
}),
(46,133,o),
(193,-14,o),
(390,-14,cs,{
"Letterink-NibData" = {
AngleInDegrees = "90";
};
})
);
},
{
closed = 1;
nodes = (
(216,24,o),
(88,156,o),
(88,331,cs),
(88,350,ls),
(88,526,o),
(217,662,o),
(385,662,cs,{
"Letterink-NibData" = {
AngleInDegrees = "90";
};
}),
(554,662,o),
(686,526,o),
(686,350,cs,{
"Letterink-NibData" = {
AngleInDegrees = "180";
};
}),
(686,331,ls,{
"Letterink-NibData" = {
AngleInDegrees = "180";
};
}),
(686,156,o),
(557,24,o),
(387,24,cs,{
"Letterink-NibData" = {
AngleInDegrees = "270";
};
})
);
}
);
};
layerId = "49C16FD3-6177-408B-A733-AEB3898BB77C";
shapes = (
{
closed = 1;
nodes = (
(583,-12,o),
(704,120,o),
(704,319,cs),
(704,336,l),
(404,336,l),
(404,303,l),
(688,303,l),
(671,319,l),
(671,141,o),
(561,22,o),
(400,22,cs),
(225,22,o),
(96,152,o),
(96,339,cs),
(96,535,o),
(228,665,o),
(402,665,cs),
(531,665,o),
(613,595,o),
(635,524,c),
(667,535,l),
(638,625,o),
(539,699,o),
(402,699,cs),
(209,699,o),
(58,557,o),
(58,339,cs),
(58,132,o),
(202,-12,o),
(400,-12,cs)
);
}
);
width = 762;
},
{
anchors = (
{
name = bottom;
pos = (382,0);
},
{
name = top;
pos = (397,684);
}
);
associatedMasterId = "49C16FD3-6177-408B-A733-AEB3898BB77C";
layerId = "96951EB1-18FB-4FDF-9014-B6300BAB0AB6";
name = "3 Jan 22, 15:40";
shapes = (
{
closed = 1;
nodes = (
(538,-15,o),
(671,97,o),
(671,285,cs),
(671,343,l,{
"Letterink-NibData" = {
AngleInDegrees = 270;
};
}),
(629,343,l,{
"Letterink-NibData" = {
AngleInDegrees = 180;
};
}),
(629,273,ls,{
"Letterink-NibData" = {
AngleInDegrees = 180;
};
}),
(629,127,o),
(508,25,o),
(387,25,cs,{
"Letterink-NibData" = {
AngleInDegrees = 270;
};
}),
(205,25,o),
(100,154,o),
(100,331,cs),
(100,508,o),
(227,656,o),
(397,656,cs,{
"Letterink-NibData" = {
AngleInDegrees = 90;
};
}),
(466,656,o),
(573,625,o),
(580,557,c,{
"Letterink-NibData" = {
AngleInDegrees = 88.60282;
};
}),
(621,558,l,{
"Letterink-NibData" = {
AngleInDegrees = 356.1432;
};
}),
(615,647,o),
(503,696,o),
(399,696,cs,{
"Letterink-NibData" = {
AngleInDegrees = 270;
};
}),
(203,696,o),
(58,537,o),
(58,332,cs,{
"Letterink-NibData" = {
AngleInDegrees = 180;
};
}),
(58,131,o),
(175,-15,o),
(383,-15,cs,{
"Letterink-NibData" = {
AngleInDegrees = 90;
};
})
);
},
{
closed = 1;
nodes = (
(671,303,l),
(671,343,l,{
"Letterink-NibData" = {
AngleInDegrees = 270;
};
}),
(380,343,l,{
"Letterink-NibData" = {
AngleInDegrees = 180;
};
}),
(380,303,l,{
"Letterink-NibData" = {
AngleInDegrees = 90;
};
})
);
}
);
width = 729;
},
{
anchors = (
{
name = bottom;
pos = (383,0);
},
{
name = top;
pos = (397,684);
}
);
associatedMasterId = "0CAF3BED-C4AC-4024-B3E1-4C69D1EF7EC0";
layerId = "B969E5E4-86DE-47F2-A424-5DC87FFFE71B";
name = "5 Jan 22, 08:26";
shapes = (
{
attr = {
strokeHeight = 74;
strokeWidth = 80;
};
closed = 0;
nodes = (
(614,528,ls,{
"Letterink-NibData" = {
AngleInDegrees = 356.63354;
};
}),
(609,613,o),
(515,675,o),
(387,669,cs,{
"Letterink-NibData" = {
AngleInDegrees = 267.25739;
};
}),
(220,661,o),
(86,523,o),
(86,331,cs,{
"Letterink-NibData" = {
AngleInDegrees = 180;
};
}),
(86,145,o),
(218,15,o),
(399,15,c,{
"Letterink-NibData" = {
AngleInDegrees = 86.42367;
};
}),
(559,25,o),
(644,137,o),
(644,281,c,{
"Letterink-NibData" = {
AngleInDegrees = 358.26429;
};
}),
(643,314,l,{
"Letterink-NibData" = {
AngleInDegrees = 270.21221;
};
}),
(373,315,l,{
"Letterink-NibData" = {
AngleInDegrees = 270.21221;
};
})
);
}
);
width = 730;
},
{
anchors = (
{
name = bottom;
pos = (382,-27);
},
{
name = top;
pos = (382,721);
}
);
associatedMasterId = "49C16FD3-6177-408B-A733-AEB3898BB77C";
background = {
shapes = (
{
closed = 1;
nodes = (
(537,-15,o),
(670,97,o),
(670,285,cs),
(670,343,l),
(628,343,l),
(628,273,ls),
(628,127,o),
(507,25,o),
(386,25,cs),
(204,25,o),
(99,154,o),
(99,331,cs),
(99,508,o),
(226,656,o),
(396,656,cs),
(465,656,o),
(572,625,o),
(579,557,c),
(620,558,l),
(614,647,o),
(502,696,o),
(398,696,cs),
(202,696,o),
(57,537,o),
(57,332,cs),
(57,131,o),
(174,-15,o),
(382,-15,cs)
);
},
{
closed = 1;
nodes = (
(670,303,l),
(670,343,l),
(379,343,l),
(379,303,l)
);
}
);
};
layerId = "AFEECE5E-BFEE-4508-863A-E5AFB845FDE7";
name = "5 Jan 22, 08:33";
shapes = (
{
attr = {
strokeHeight = 38;
strokeWidth = 42;
};
closed = 0;
nodes = (
(618,537,ls,{
"Letterink-NibData" = {
AngleInDegrees = 356.78451;
};
}),
(613,626,o),
(517,691,o),
(386,684,cs,{
"Letterink-NibData" = {
AngleInDegrees = 267.30572;
};
}),
(216,676,o),
(79,532,o),
(79,330,cs,{
"Letterink-NibData" = {
AngleInDegrees = 180;
};
}),
(79,136,o),
(214,0,o),
(404,0,c,{
"Letterink-NibData" = {
AngleInDegrees = 86.37852;
};
}),
(562,10,o),
(649,127,o),
(649,278,c,{
"Letterink-NibData" = {
AngleInDegrees = 358.36342;
};
}),
(648,313,l,{
"Letterink-NibData" = {
AngleInDegrees = 270.20759;
};
}),
(372,314,l,{
"Letterink-NibData" = {
AngleInDegrees = 270.20759;
};
})
);
}
);
width = 728;
},
{
anchors = (
{
name = bottom;
pos = (378,-12);
},
{
name = top;
pos = (392,698);
}
);
background = {
shapes = (
{
closed = 1;
nodes = (
(589,-25,o),
(735,126,o),
(735,326,cs),
(735,355,ls),
(735,548,o),
(583,702,o),
(393,702,cs,{
"Letterink-NibData" = {
AngleInDegrees = "270";
};
}),
(203,702,o),
(52,548,o),
(52,355,cs,{
"Letterink-NibData" = {
AngleInDegrees = "180";
};
}),
(52,326,ls,{
"Letterink-NibData" = {
AngleInDegrees = "180";
};
}),
(52,126,o),
(196,-19,o),
(397,-22,cs,{
"Letterink-NibData" = {
AngleInDegrees = "90.89517371732774";
};
})
);
},
{
closed = 1;
nodes = (
(246,54,o),
(134,170,o),
(134,326,cs),
(134,355,ls),
(134,504,o),
(248,626,o),
(392,626,cs,{
"Letterink-NibData" = {
AngleInDegrees = "90";
};
}),
(538,626,o),
(653,504,o),
(653,355,cs,{
"Letterink-NibData" = {
AngleInDegrees = "180";
};
}),
(653,326,ls,{
"Letterink-NibData" = {
AngleInDegrees = "180";
};
}),
(653,170,o),
(541,54,o),
(394,54,cs,{
"Letterink-NibData" = {
AngleInDegrees = "270";
};
})
);
}
);
};
layerId = m004;
shapes = (
{
closed = 1;
nodes = (
(586,-31,o),
(723,116,o),
(723,340,c),
(723,377,l),
(406,377,l),
(406,239,l),
(649,239,l),
(575,313,l),
(575,193,o),
(509,117,o),
(394,117,cs),
(277,117,o),
(197,201,o),
(197,338,cs),
(197,467,o),
(275,565,o),
(398,565,cs),
(477,565,o),
(530,522,o),
(541,485,c),
(683,527,l),
(648,648,o),
(527,713,o),
(394,713,cs),
(187,713,o),
(32,559,o),
(32,340,cs),
(32,118,o),
(183,-31,o),
(384,-31,cs)
);
}
);
width = 755;
},
{
anchors = (
{
name = bottom;
pos = (369,0);
},
{
name = top;
pos = (383,684);
}
);
associatedMasterId = m004;
layerId = "2166FA3C-D590-4885-A8B0-B32BF30CBC31";
name = "5 Jan 22, 08:26";
shapes = (
{
attr = {
strokeHeight = 74;
strokeWidth = 80;
};
closed = 0;
nodes = (
(600,528,ls,{
"Letterink-NibData" = {
AngleInDegrees = 356.63354;
};
}),
(595,613,o),
(501,675,o),
(373,669,cs,{
"Letterink-NibData" = {
AngleInDegrees = 267.25739;
};
}),
(206,661,o),
(72,523,o),
(72,331,cs,{
"Letterink-NibData" = {
AngleInDegrees = 180;
};
}),
(72,145,o),
(204,15,o),
(385,15,c,{
"Letterink-NibData" = {
AngleInDegrees = 86.42367;
};
}),
(545,25,o),
(630,137,o),
(630,281,c,{
"Letterink-NibData" = {
AngleInDegrees = 358.26429;
};
}),
(629,314,l,{
"Letterink-NibData" = {
AngleInDegrees = 270.21221;
};
}),
(359,315,l,{
"Letterink-NibData" = {
AngleInDegrees = 270.21221;
};
})
);
}
);
width = 702;
}
);
metricLeft = O;
metricRight = O;
userData = {
position = 593;
width = 57;
};
},
{
glyphname = G.swsh;
kernLeft = O;
kernRight = O;
layers = (
{
layerId = "0CAF3BED-C4AC-4024-B3E1-4C69D1EF7EC0";
shapes = (
{
closed = 1;
nodes = (
(627,-266,o),
(694,-216,o),
(694,-110,cs),
(694,342,l),
(617,342,l),
(617,-110,ls),
(617,-156,o),
(596,-190,o),
(556,-190,cs),
(536,-190,o),
(513,-177,o),
(501,-153,c),
(433,-187,l),
(457,-235,o),
(504,-266,o),
(556,-266,cs)
);
},
{
ref = G;
}
);
width = 743;
},
{
layerId = "49C16FD3-6177-408B-A733-AEB3898BB77C";
shapes = (
{
closed = 1;
nodes = (
(646,-278,o),
(705,-232,o),
(705,-137,cs),
(705,318,l),
(666,318,l),
(666,-137,ls),
(666,-198,o),
(630,-236,o),
(582,-236,cs),
(552,-236,o),
(524,-219,o),
(509,-188,c),
(471,-208,l),
(494,-251,o),
(536,-278,o),
(582,-278,cs)
);
},
{
ref = G;
}
);
width = 762;
},
{
anchors = (
{
name = bottom;
pos = (390,0);
},
{
name = top;
pos = (399,684);
}
);
associatedMasterId = "49C16FD3-6177-408B-A733-AEB3898BB77C";
layerId = "99324C05-2E3B-491C-BB33-A281431388C0";
name = "3 Jan 22, 15:43";
shapes = (
{
closed = 1;
nodes = (
(629,-275,o),
(674,-247,o),
(674,-188,cs),
(674,296,l,{
"Letterink-NibData" = {
AngleInDegrees = 270;
};
}),
(632,296,l,{
"Letterink-NibData" = {
AngleInDegrees = 180;
};
}),
(632,231,l,{
"Letterink-NibData" = {
AngleInDegrees = 189.05072;
};
}),
(614,118,o),
(521,19,o),
(386,19,cs,{
"Letterink-NibData" = {
AngleInDegrees = 270;
};
}),
(226,19,o),
(100,157,o),
(100,331,cs),
(100,504,o),
(223,661,o),
(396,661,cs,{
"Letterink-NibData" = {
AngleInDegrees = 90;
};
}),
(464,661,o),
(585,637,o),
(585,563,cs,{
"Letterink-NibData" = {
AngleInDegrees = 180;
};
}),
(585,537,o),
(568,514,o),
(545,514,cs,{
"Letterink-NibData" = {
AngleInDegrees = 270;
};
}),
(539,514,o),
(532,516,o),
(525,519,c,{
"Letterink-NibData" = {
AngleInDegrees = 218.23383;
};
}),
(499,486,l,{
"Letterink-NibData" = {
AngleInDegrees = 122.73523;
};
}),
(513,477,o),
(528,473,o),
(544,473,cs,{
"Letterink-NibData" = {
AngleInDegrees = 90;
};
}),
(592,473,o),
(626,509,o),
(626,562,cs),
(626,670,o),
(482,701,o),
(399,701,cs,{
"Letterink-NibData" = {
AngleInDegrees = 270;
};
}),
(201,701,o),
(58,530,o),
(58,333,cs,{
"Letterink-NibData" = {
AngleInDegrees = 180;
};
}),
(58,137,o),
(199,-21,o),
(382,-21,cs,{
"Letterink-NibData" = {
AngleInDegrees = 90;
};
}),
(487,-21,o),
(594,31,o),
(632,124,c,{
"Letterink-NibData" = {
AngleInDegrees = 180;
};
}),
(632,-188,l,{
"Letterink-NibData" = {
AngleInDegrees = 186.00901;
};
}),
(630,-207,o),
(616,-229,o),
(589,-229,cs,{
"Letterink-NibData" = {
AngleInDegrees = 270;
};
}),
(576,-229,o),
(566,-224,o),
(559,-217,c,{
"Letterink-NibData" = {
AngleInDegrees = 236.65929;
};
}),
(521,-242,l,{
"Letterink-NibData" = {
AngleInDegrees = 142.69605;
};
}),
(537,-263,o),
(560,-275,o),
(588,-275,cs,{
"Letterink-NibData" = {
AngleInDegrees = 90;
};
})
);
}
);
width = 731;
},
{
anchors = (
{
name = bottom;
pos = (392,-35);
},
{
name = top;
pos = (402,683);
}
);
associatedMasterId = "49C16FD3-6177-408B-A733-AEB3898BB77C";
layerId = "993784D9-67C7-4A50-9317-88BF6374F3F5";
name = "5 Jan 22, 08:42";
shapes = (
{
closed = 1;
nodes = (
(632,-188,l,{
"Letterink-NibData" = {
AngleInDegrees = 186.00901;
};
}),
(630,-207,o),
(616,-229,o),
(589,-229,cs,{
"Letterink-NibData" = {
AngleInDegrees = 270;
};
}),
(576,-229,o),
(566,-224,o),
(559,-217,c,{
"Letterink-NibData" = {
AngleInDegrees = 236.65929;
};
}),
(521,-242,l,{
"Letterink-NibData" = {
AngleInDegrees = 142.69605;
};
}),
(537,-263,o),
(560,-275,o),
(588,-275,cs,{
"Letterink-NibData" = {
AngleInDegrees = 90;
};
}),
(629,-275,o),
(674,-247,o),
(674,-188,cs),
(674,296,l,{
"Letterink-NibData" = {
AngleInDegrees = 270;
};
}),
(632,296,l,{
"Letterink-NibData" = {
AngleInDegrees = 180;
};
})
);
},
{
ref = G;
}
);
width = 759;
},
{
anchors = (
{
name = bottom;
pos = (392,-35);
},
{
name = top;
pos = (402,683);
}
);
associatedMasterId = "49C16FD3-6177-408B-A733-AEB3898BB77C";
hints = (
{
name = _corner.caps_swash;
options = 1;
origin = (0,2);
scale = (-1,1);
type = Corner;
}
);
layerId = "A1B0A753-5F1E-49B0-BC7C-F65043380999";
name = "5 Jan 22, 08:46";
shapes = (
{
closed = 1;
nodes = (
(651,330,l,{
"Letterink-NibData" = {
AngleInDegrees = 270;
};
}),
(651,-154,l),
(693,-154,l,{
"Letterink-NibData" = {
AngleInDegrees = 186.00901;
};
}),
(693,330,l,{
"Letterink-NibData" = {
AngleInDegrees = 180;
};
})
);
},
{
ref = G;
},
{
closed = 0;
nodes = (
(344,-192,l),
(363,-228,o),
(402,-253,o),
(446,-253,cs),
(509,-253,o),
(561,-202,o),
(561,-139,cs),
(561,-139,o),
(561,-139,o),
(561,-138,cs),
(561,308,l)
);
}
);
width = 759;
},
{
anchors = (
{
name = bottom;
pos = (389,-16);
},
{
name = top;
pos = (392,689);
}
);
associatedMasterId = "0CAF3BED-C4AC-4024-B3E1-4C69D1EF7EC0";
layerId = "14C1AB9A-2353-4380-971D-F4E2C0A0EA14";
name = "5 Jan 22, 08:50";
shapes = (
{
closed = 1;
nodes = (
(601,-161,l,{
"Letterink-NibData" = {
AngleInDegrees = 180;
};
}),
(601,-174,o),
(591,-183,o),
(578,-183,cs,{
"Letterink-NibData" = {
AngleInDegrees = 270;
};
}),
(565,-183,o),
(559,-178,o),
(552,-165,c,{
"Letterink-NibData" = {
AngleInDegrees = 235.68491;
};
}),
(489,-208,l,{
"Letterink-NibData" = {
AngleInDegrees = 154.88516;
};
}),
(504,-240,o),
(540,-263,o),
(577,-263,cs,{
"Letterink-NibData" = {
AngleInDegrees = 90;
};
}),
(622,-263,o),
(681,-228,o),
(681,-162,cs),
(681,317,l,{
"Letterink-NibData" = {
AngleInDegrees = 270;
};
}),
(601,317,l,{
"Letterink-NibData" = {
AngleInDegrees = 180;
};
})
);
},
{
attr = {
strokeHeight = 74;
strokeWidth = 80;
};
closed = 0;
nodes = (
(511,478,l,{
"Letterink-NibData" = {
AngleInDegrees = 116.56505;
};
}),
(521,473,o),
(530,471,o),
(539,471,cs,{
"Letterink-NibData" = {
AngleInDegrees = 90;
};
}),
(583,471,o),
(604,511,o),
(604,546,cs),
(604,617,o),
(515,674,o),
(387,668,cs,{
"Letterink-NibData" = {
AngleInDegrees = 267.25739;
};
}),
(220,660,o),
(86,522,o),
(86,334,cs,{
"Letterink-NibData" = {
AngleInDegrees = 180;
};
}),
(86,144,o),
(223,4,o),
(404,15,cs,{
"Letterink-NibData" = {
AngleInDegrees = 86.30861;
};
}),
(559,25,o),
(644,137,o),
(644,281,c,{
"Letterink-NibData" = {
AngleInDegrees = 358.26429;
};
}),
(643,314,l,{
"Letterink-NibData" = {
AngleInDegrees = 270.21221;
};
}),
(373,315,l,{
"Letterink-NibData" = {
AngleInDegrees = 270.21221;
};
})
);
}
);
width = 729;
},
{
layerId = m004;
shapes = (
{
closed = 1;
nodes = (
(618,-262,o),
(714,-196,o),
(714,-50,cs),
(714,312,l),
(554,312,l),
(554,-50,ls),
(554,-83,o),
(547,-114,o),
(518,-114,cs),
(508,-114,o),
(489,-105,o),
(480,-87,c),
(348,-153,l),
(381,-219,o),
(444,-262,o),
(518,-262,cs)
);
},
{
ref = G;
}
);
width = 745;
},
{
anchors = (
{
name = bottom;
pos = (375,-16);
},
{
name = top;
pos = (378,689);
}
);
associatedMasterId = m004;
layerId = "1BDCECD6-6FE7-4C37-9D37-AA6D55EDC2F1";
name = "5 Jan 22, 08:50";
shapes = (
{
closed = 1;
nodes = (
(587,-161,l,{
"Letterink-NibData" = {
AngleInDegrees = 180;
};
}),
(587,-174,o),
(577,-183,o),
(564,-183,cs,{
"Letterink-NibData" = {
AngleInDegrees = 270;
};
}),
(551,-183,o),
(545,-178,o),
(538,-165,c,{
"Letterink-NibData" = {
AngleInDegrees = 235.68491;
};
}),
(475,-208,l,{
"Letterink-NibData" = {
AngleInDegrees = 154.88516;
};
}),
(490,-240,o),
(526,-263,o),
(563,-263,cs,{
"Letterink-NibData" = {
AngleInDegrees = 90;
};
}),
(608,-263,o),
(667,-228,o),
(667,-162,cs),
(667,317,l,{
"Letterink-NibData" = {
AngleInDegrees = 270;
};
}),
(587,317,l,{
"Letterink-NibData" = {
AngleInDegrees = 180;
};
})
);
},
{
attr = {
strokeHeight = 74;
strokeWidth = 80;
};
closed = 0;
nodes = (
(497,478,l,{
"Letterink-NibData" = {
AngleInDegrees = 116.56505;
};
}),
(507,473,o),
(516,471,o),
(525,471,cs,{
"Letterink-NibData" = {
AngleInDegrees = 90;
};
}),
(569,471,o),
(590,511,o),
(590,546,cs),
(590,617,o),
(501,674,o),
(373,668,cs,{
"Letterink-NibData" = {
AngleInDegrees = 267.25739;
};
}),
(206,660,o),
(72,522,o),
(72,334,cs,{
"Letterink-NibData" = {
AngleInDegrees = 180;
};
}),
(72,144,o),
(209,4,o),
(390,15,cs,{
"Letterink-NibData" = {
AngleInDegrees = 86.30861;
};
}),
(545,25,o),
(630,137,o),
(630,281,c,{
"Letterink-NibData" = {
AngleInDegrees = 358.26429;
};
}),
(629,314,l,{
"Letterink-NibData" = {
AngleInDegrees = 270.21221;
};
}),
(359,315,l,{
"Letterink-NibData" = {
AngleInDegrees = 270.21221;
};
})
);
}
);
width = 701;
}
);
metricLeft = O;
metricRight = G;
userData = {
position = 593;
width = 57;
};
},
{
glyphname = H;
kernLeft = E;
layers = (
{
anchors = (
{
name = bottom;
pos = (386,0);
},
{
name = center;
pos = (386,500);
},
{
name = top;
pos = (386,675);
},
{
name = topleft;
pos = (27,684);
}
);
hints = (
{
name = _corner.caps_vert;
origin = (0,9);
type = Corner;
}
);
layerId = "0CAF3BED-C4AC-4024-B3E1-4C69D1EF7EC0";
shapes = (
{
closed = 1;
nodes = (
(203,-1,l),
(203,319,l,{
"Letterink-NibData" = {
AngleInDegrees = 90;
};
}),
(569,319,l,{
"Letterink-NibData" = {
AngleInDegrees = 180;
};
}),
(569,-1,l,{
"Letterink-NibData" = {
AngleInDegrees = 90;
};
}),
(651,-1,l),
(651,686,l,{
"Letterink-NibData" = {
AngleInDegrees = 270;
};
}),
(569,686,l,{
"Letterink-NibData" = {
AngleInDegrees = 180;
};
}),
(569,395,l,{
"Letterink-NibData" = {
AngleInDegrees = 270;
};
}),
(203,395,l),
(203,585,l,{
"Letterink-NibData" = {
AngleInDegrees = 269.30131;
};
}),
(121,584,l,{
"Letterink-NibData" = {
AngleInDegrees = 180;
};
}),
(121,-1,l,{
"Letterink-NibData" = {
AngleInDegrees = 90;
};
})
);
}
);
width = 719;
},
{
anchors = (
{
name = bottom;
pos = (385,0);
},
{
name = center;
pos = (385,489);
},
{
name = top;
pos = (385,685);
},
{
name = topleft;
pos = (58,684);
}
);
hints = (
{
name = _corner.caps_vert;
origin = (0,9);
type = Corner;
}
);
layerId = "49C16FD3-6177-408B-A733-AEB3898BB77C";
shapes = (
{
closed = 1;
nodes = (
(172,0,l),
(172,340,l,{
"Letterink-NibData" = {
AngleInDegrees = 90;
};
}),
(600,340,l,{
"Letterink-NibData" = {
AngleInDegrees = 180;
};
}),
(600,0,l,{
"Letterink-NibData" = {
AngleInDegrees = 90;
};
}),
(637,0,l),
(637,685,l,{
"Letterink-NibData" = {
AngleInDegrees = 270;
};
}),
(600,685,l,{
"Letterink-NibData" = {
AngleInDegrees = 180;
};
}),
(600,376,l,{
"Letterink-NibData" = {
AngleInDegrees = 270;
};
}),
(172,376,l),
(172,595,l,{
"Letterink-NibData" = {
AngleInDegrees = 270;
};
}),
(134,595,l,{
"Letterink-NibData" = {
AngleInDegrees = 180;
};
}),
(134,0,l,{
"Letterink-NibData" = {
AngleInDegrees = 90;
};
})
);
}
);
width = 717;
},
{
anchors = (
{
name = bottom;
pos = (417,0);
},
{
name = center;
pos = (417,500);
},
{
name = top;
pos = (416,684);
},
{
name = topleft;
pos = (96,684);
}
);
hints = (
{
name = _corner.caps_vert;
origin = (0,9);
type = Corner;
}
);
layerId = m004;
shapes = (
{
closed = 1;
nodes = (
(299,0,l),
(299,280,l,{
"Letterink-NibData" = {
AngleInDegrees = "90";
};
}),
(544,280,l,{
"Letterink-NibData" = {
AngleInDegrees = "180";
};
}),
(544,0,l,{
"Letterink-NibData" = {
AngleInDegrees = "90";
};
}),
(709,0,l),
(709,684,l,{
"Letterink-NibData" = {
AngleInDegrees = "270";
};
}),
(544,684,l,{
"Letterink-NibData" = {
AngleInDegrees = "180";
};
}),
(544,418,l,{
"Letterink-NibData" = {
AngleInDegrees = "270";
};
}),
(299,418,l),
(299,526,l,{
"Letterink-NibData" = {
AngleInDegrees = "270";
};
}),
(134,526,l,{
"Letterink-NibData" = {
AngleInDegrees = "180";
};
}),
(134,0,l,{
"Letterink-NibData" = {
AngleInDegrees = "90";
};
})
);
}
);
width = 761;
}
);
unicode = 72;
userData = {
position = 554;
width = 61;
};
},
{
glyphname = H.ss01;
layers = (
{
anchors = (
{
name = bottom;
pos = (341,0);
},
{
name = center;
pos = (341,512);
},
{
name = top;
pos = (341,684);
},
{
name = topleft;
pos = (24,684);
}
);
layerId = "0CAF3BED-C4AC-4024-B3E1-4C69D1EF7EC0";
shapes = (
{
closed = 1;
nodes = (
(150,-1,l),
(150,318,l,{
"Letterink-NibData" = {
AngleInDegrees = 90;
};
}),
(528,318,l,{
"Letterink-NibData" = {
AngleInDegrees = 180;
};
}),
(528,-1,l,{
"Letterink-NibData" = {
AngleInDegrees = 90;
};
}),
(610,-1,l),
(610,684,l,{
"Letterink-NibData" = {
AngleInDegrees = 270;
};
}),
(528,684,l,{
"Letterink-NibData" = {
AngleInDegrees = 180;
};
}),
(528,394,l,{
"Letterink-NibData" = {
AngleInDegrees = 270;
};
}),
(150,394,l),
(150,684,l,{
"Letterink-NibData" = {
AngleInDegrees = 270;
};
}),
(68,684,l,{
"Letterink-NibData" = {
AngleInDegrees = 180;
};
}),
(68,-1,l,{
"Letterink-NibData" = {
AngleInDegrees = 90;
};
})
);
}
);
width = 678;
},
{
anchors = (
{
name = bottom;
pos = (330,0);
},
{
name = center;
pos = (332,498);
},
{
name = top;
pos = (331,684);
},
{
name = topleft;
pos = (21,684);
}
);
layerId = "49C16FD3-6177-408B-A733-AEB3898BB77C";
shapes = (
{
closed = 1;
nodes = (
(118,0,l),
(118,340,l,{
"Letterink-NibData" = {
AngleInDegrees = 90;
};
}),
(546,340,l,{
"Letterink-NibData" = {
AngleInDegrees = 180;
};
}),
(546,0,l,{
"Letterink-NibData" = {
AngleInDegrees = 90;
};
}),
(584,0,l),
(584,684,l,{
"Letterink-NibData" = {
AngleInDegrees = 270;
};
}),
(546,684,l,{
"Letterink-NibData" = {
AngleInDegrees = 180;
};
}),
(546,376,l,{
"Letterink-NibData" = {
AngleInDegrees = 270;
};
}),
(118,376,l),
(118,684,l,{
"Letterink-NibData" = {
AngleInDegrees = 270;
};
}),
(80,684,l,{
"Letterink-NibData" = {
AngleInDegrees = 180;
};
}),
(80,0,l,{
"Letterink-NibData" = {
AngleInDegrees = 90;
};
})
);
}
);
width = 664;
},
{
anchors = (
{
name = bottom;
pos = (343,0);
},
{
name = center;
pos = (344,508);
},
{
name = top;
pos = (343,684);
},
{
name = topleft;
pos = (9,684);
}
);
layerId = m004;
shapes = (
{
closed = 1;
nodes = (
(217,0,l),
(217,280,l,{
"Letterink-NibData" = {
AngleInDegrees = "90";
};
}),
(468,280,l,{
"Letterink-NibData" = {
AngleInDegrees = "180";
};
}),
(468,0,l,{
"Letterink-NibData" = {
AngleInDegrees = "90";
};
}),
(633,0,l),
(633,684,l,{
"Letterink-NibData" = {
AngleInDegrees = "270";
};
}),
(468,684,l,{
"Letterink-NibData" = {
AngleInDegrees = "180";
};
}),
(468,418,l,{
"Letterink-NibData" = {
AngleInDegrees = "270";
};
}),
(217,418,l),
(217,684,l,{
"Letterink-NibData" = {
AngleInDegrees = "270";
};
}),
(52,684,l,{
"Letterink-NibData" = {
AngleInDegrees = "180";
};
}),
(52,0,l,{
"Letterink-NibData" = {
AngleInDegrees = "90";
};
})
);
}
);
width = 685;
}
);
metricLeft = "=|H";
metricRight = H;
userData = {
position = 525;
width = 61;
};
},
{
glyphname = H.swsh;
kernLeft = Swash;
layers = (
{
anchors = (
{
name = bottom;
pos = (426,0);
},
{
name = center;
pos = (426,478);
},
{
name = top;
pos = (426,675);
},
{
name = topleft;
pos = (64,684);
}
);
hints = (
{
name = _corner.caps_swash_vert;
origin = (0,9);
type = Corner;
}
);
layerId = "0CAF3BED-C4AC-4024-B3E1-4C69D1EF7EC0";
shapes = (
{
closed = 1;
nodes = (
(250,-1,l),
(250,317,l,{
"Letterink-NibData" = {
AngleInDegrees = 90;
};
}),
(595,317,l,{
"Letterink-NibData" = {
AngleInDegrees = 180;
};
}),
(595,-1,l,{
"Letterink-NibData" = {
AngleInDegrees = 90;
};
}),
(677,-1,l),
(677,686,l,{
"Letterink-NibData" = {
AngleInDegrees = 270;
};
}),
(595,686,l,{
"Letterink-NibData" = {
AngleInDegrees = 180;
};
}),
(595,395,l,{
"Letterink-NibData" = {
AngleInDegrees = 270;
};
}),
(250,395,l),
(250,559,l,{
"Letterink-NibData" = {
AngleInDegrees = 270;
};
}),
(168,559,l,{
"Letterink-NibData" = {
AngleInDegrees = 180;
};
}),
(168,-1,l,{
"Letterink-NibData" = {
AngleInDegrees = 90;
};
})
);
}
);
width = 745;
},
{
anchors = (
{
name = bottom;
pos = (417,0);
},
{
name = center;
pos = (417,450);
},
{
name = top;
pos = (417,684);
},
{
name = topleft;
pos = (84,684);
}
);
hints = (
{
name = _corner.caps_swash_vert;
origin = (0,9);
type = Corner;
}
);
layerId = "49C16FD3-6177-408B-A733-AEB3898BB77C";
shapes = (
{
closed = 1;
nodes = (
(212,1,l),
(212,340,l,{
"Letterink-NibData" = {
AngleInDegrees = 90;
};
}),
(623,340,l,{
"Letterink-NibData" = {
AngleInDegrees = 180;
};
}),
(623,1,l,{
"Letterink-NibData" = {
AngleInDegrees = 90;
};
}),
(661,1,l),
(661,685,l,{
"Letterink-NibData" = {
AngleInDegrees = 270;
};
}),
(623,685,l,{
"Letterink-NibData" = {
AngleInDegrees = 180;
};
}),
(623,376,l,{
"Letterink-NibData" = {
AngleInDegrees = 270;
};
}),
(212,376,l),
(212,570,l,{
"Letterink-NibData" = {
AngleInDegrees = 270;
};
}),
(174,570,l,{
"Letterink-NibData" = {
AngleInDegrees = 180;
};
}),
(174,1,l,{
"Letterink-NibData" = {
AngleInDegrees = 90;
};
})
);
}
);
width = 741;
},
{
anchors = (
{
name = bottom;
pos = (468,0);
},
{
name = center;
pos = (468,512);
},
{
name = top;
pos = (468,684);
},
{
name = topleft;
pos = (143,684);
}
);
hints = (
{
name = _corner.caps_swash_vert;
origin = (0,9);
type = Corner;
}
);
layerId = m004;
shapes = (
{
closed = 1;
nodes = (
(353,-5,l),
(353,280,l,{
"Letterink-NibData" = {
AngleInDegrees = "90";
};
}),
(590,280,l,{
"Letterink-NibData" = {
AngleInDegrees = "180";
};
}),
(590,-5,l,{
"Letterink-NibData" = {
AngleInDegrees = "90";
};
}),
(755,-5,l),
(755,684,l,{
"Letterink-NibData" = {
AngleInDegrees = "270";
};
}),
(590,684,l,{
"Letterink-NibData" = {
AngleInDegrees = "180";
};
}),
(590,418,l,{
"Letterink-NibData" = {
AngleInDegrees = "270";
};
}),
(353,418,l),
(353,503,l,{
"Letterink-NibData" = {
AngleInDegrees = "270";
};
}),
(188,503,l,{
"Letterink-NibData" = {
AngleInDegrees = "180";
};
}),
(188,-5,l,{
"Letterink-NibData" = {
AngleInDegrees = "90";
};
})
);
}
);
width = 807;
}
);
metricLeft = "=H";
metricRight = H;
userData = {
position = 554;
width = 61;
};
},
{
glyphname = I;
layers = (
{
anchors = (
{
name = bottom;
pos = (109,0);
},
{
name = center;
pos = (108,340);
},
{
name = ogonek;
pos = (150,-1);
},
{
name = top;
pos = (107,684);
},
{
name = topleft;
pos = (2,684);
}
);
layerId = "0CAF3BED-C4AC-4024-B3E1-4C69D1EF7EC0";
shapes = (
{
closed = 1;
nodes = (
(150,-1,l),
(150,684,l,{
"Letterink-NibData" = {
AngleInDegrees = 270;
};
}),
(68,684,l,{
"Letterink-NibData" = {
AngleInDegrees = 180;
};
}),
(68,-1,l,{
"Letterink-NibData" = {
AngleInDegrees = 90;
};
})
);
}
);
width = 218;
},
{
anchors = (
{
name = bottom;
pos = (97,0);
},
{
name = center;
pos = (97,343);
},
{
name = ogonek;
pos = (118,1);
},
{
name = top;
pos = (99,685);
},
{
name = topleft;
pos = (11,684);
}
);
layerId = "49C16FD3-6177-408B-A733-AEB3898BB77C";
shapes = (
{
closed = 1;
nodes = (
(118,1,l),
(118,684,l,{
"Letterink-NibData" = {
AngleInDegrees = 270;
};
}),
(80,684,l,{
"Letterink-NibData" = {
AngleInDegrees = 180;
};
}),
(80,1,l,{
"Letterink-NibData" = {
AngleInDegrees = 90;
};
})
);
}
);
width = 198;
},
{
anchors = (
{
name = bottom;
pos = (135,-1);
},
{
name = center;
pos = (135,339);
},
{
name = ogonek;
pos = (217,0);
},
{
name = top;
pos = (134,684);
},
{
name = topleft;
pos = (-10,684);
}
);
layerId = m004;
shapes = (
{
closed = 1;
nodes = (
(217,0,l),
(217,684,l,{
"Letterink-NibData" = {
AngleInDegrees = 270;
};
}),
(52,684,l,{
"Letterink-NibData" = {
AngleInDegrees = 180;
};
}),
(52,0,l,{
"Letterink-NibData" = {
AngleInDegrees = 90;
};
})
);
}
);
width = 269;
}
);
metricLeft = "=|H";
metricRight = H;
unicode = 73;
userData = {
position = 54;
width = 61;
};
},
{
glyphname = I.swsh;
kernLeft = Swash;
layers = (
{
anchors = (
{
name = bottom;
pos = (231,0);
},
{
name = center;
pos = (230,340);
},
{
name = ogonek;
pos = (272,-1);
},
{
name = top;
pos = (231,684);
},
{
name = topleft;
pos = (124,684);
}
);
hints = (
{
name = _corner.caps_swash;
origin = (0,2);
type = Corner;
}
);
layerId = "0CAF3BED-C4AC-4024-B3E1-4C69D1EF7EC0";
shapes = (
{
closed = 1;
nodes = (
(235,608,l),
(235,684,l),
(170,684,l),
(170,608,l)
);
},
{
closed = 1;
nodes = (
(272,0,l),
(272,684,l,{
"Letterink-NibData" = {
AngleInDegrees = 270;
};
}),
(190,684,l,{
"Letterink-NibData" = {
AngleInDegrees = 180;
};
}),
(190,0,l,{
"Letterink-NibData" = {
AngleInDegrees = 90;
};
})
);
}
);
width = 340;
},
{
anchors = (
{
name = bottom;
pos = (219,0);
},
{
name = center;
pos = (218,342);
},
{
name = ogonek;
pos = (241,1);
},
{
name = top;
pos = (218,684);
},
{
name = topleft;
pos = (130,684);
}
);
hints = (
{
name = _corner.caps_swash;
origin = (0,2);
type = Corner;
}
);
layerId = "49C16FD3-6177-408B-A733-AEB3898BB77C";
shapes = (
{
closed = 1;
nodes = (
(205,648,l),
(205,684,l),
(151,684,l),
(151,648,l)
);
},
{
closed = 1;
nodes = (
(236,1,l),
(236,684,l,{
"Letterink-NibData" = {
AngleInDegrees = 270;
};
}),
(199,684,l,{
"Letterink-NibData" = {
AngleInDegrees = 180;
};
}),
(199,1,l,{
"Letterink-NibData" = {
AngleInDegrees = 90;
};
})
);
}
);
width = 316;
},
{
anchors = (
{
name = bottom;
pos = (192,0);
},
{
name = center;
pos = (191,386);
},
{
name = ogonek;
pos = (215,1);
},
{
name = top;
pos = (189,684);
},
{
name = topleft;
pos = (101,684);
}
);
associatedMasterId = "49C16FD3-6177-408B-A733-AEB3898BB77C";
hints = (
{
name = _corner.caps_swash_vert;
options = 1;
origin = (0,1);
type = Corner;
}
);
layerId = "AE169FFE-AC8B-4E8A-9035-7F809B0493BD";
name = "5 Jan 22, 09:48";
shapes = (
{
closed = 1;
nodes = (
(211,1,l),
(211,576,l,{
"Letterink-NibData" = {
AngleInDegrees = 270;
};
}),
(169,576,l,{
"Letterink-NibData" = {
AngleInDegrees = 180;
};
}),
(169,1,l,{
"Letterink-NibData" = {
AngleInDegrees = 90;
};
})
);
}
);
width = 291;
},
{
anchors = (
{
name = bottom;
pos = (295,0);
},
{
name = center;
pos = (299,341);
},
{
name = ogonek;
pos = (378,-1);
},
{
name = top;
pos = (298,684);
},
{
name = topleft;
pos = (147,684);
}
);
hints = (
{
name = _corner.caps_swash;
origin = (0,2);
type = Corner;
}
);
layerId = m004;
shapes = (
{
closed = 1;
nodes = (
(340,536,l),
(340,684,l),
(202,684,l,{
"Letterink-NibData" = {
AngleInDegrees = 180;
};
}),
(202,536,l)
);
},
{
closed = 1;
nodes = (
(378,-1,l),
(378,684,l,{
"Letterink-NibData" = {
AngleInDegrees = 270;
};
}),
(213,684,l,{
"Letterink-NibData" = {
AngleInDegrees = 180;
};
}),
(213,-1,l,{
"Letterink-NibData" = {
AngleInDegrees = 90;
};
})
);
}
);
width = 430;
}
);
metricLeft = H.swsh;
metricRight = H;
userData = {
position = 54;
width = 61;
};
},
{
glyphname = IJ;
kernRight = J;
layers = (
{
anchors = (
{
name = bottom;
pos = (318,0);
},
{
name = top;
pos = (318,684);
}
);
background = {
shapes = (
{
closed = 1;
nodes = (
(424,-7,o),
(502,70,o),
(502,193,cs),
(502,689,l,{
"Letterink-NibData" = {
AngleInDegrees = "270";
};
}),
(433,689,l,{
"Letterink-NibData" = {
AngleInDegrees = "211.6075";
};
}),
(425,676,o),
(395,663,o),
(375,663,cs,{
"Letterink-NibData" = {
AngleInDegrees = "270";
};
}),
(333,663,o),
(300,698,o),
(250,698,cs,{
"Letterink-NibData" = {
AngleInDegrees = "270";
};
}),
(214,698,o),
(182,692,o),
(125,664,c,{
"Letterink-NibData" = {
AngleInDegrees = "153.09391";
};
}),
(159,597,l,{
"Letterink-NibData" = {
AngleInDegrees = "67.52057000000001";
};
}),
(188,609,o),
(217,620,o),
(242,620,cs,{
"Letterink-NibData" = {
AngleInDegrees = "90";
};
}),
(290,620,o),
(327,587,o),
(370,587,cs,{
"Letterink-NibData" = {
AngleInDegrees = "90";
};
}),
(392,587,o),
(407,589,o),
(420,594,c,{
"Letterink-NibData" = {
AngleInDegrees = "180";
};
}),
(420,196,ls,{
"Letterink-NibData" = {
AngleInDegrees = "180";
};
}),
(420,118,o),
(375,69,o),
(303,69,cs,{
"Letterink-NibData" = {
AngleInDegrees = "270";
};
}),
(227,69,o),
(182,115,o),
(186,188,c,{
"Letterink-NibData" = {
AngleInDegrees = "274.39871";
};
}),
(108,194,l,{
"Letterink-NibData" = {
AngleInDegrees = "181.88819";
};
}),
(104,71,o),
(178,-7,o),
(300,-7,cs,{
"Letterink-NibData" = {
AngleInDegrees = "90";
};
})
);
}
);
};
layerId = "0CAF3BED-C4AC-4024-B3E1-4C69D1EF7EC0";
shapes = (
{
closed = 1;
nodes = (
(466,-13,o),
(562,74,o),
(562,236,cs),
(562,684,l,{
"Letterink-NibData" = {
AngleInDegrees = "270";
};
}),
(487,684,l,{
"Letterink-NibData" = {
AngleInDegrees = "211.6075";
};
}),
(480,654,l),
(480,243,ls,{
"Letterink-NibData" = {
AngleInDegrees = "180";
};
}),
(480,122,o),
(417,63,o),
(318,63,cs,{
"Letterink-NibData" = {
AngleInDegrees = "270";
};
}),
(215,63,o),
(163,139,o),
(162,196,c),
(83,185,l),
(85,79,o),
(175,-13,o),
(315,-13,cs,{
"Letterink-NibData" = {
AngleInDegrees = "90";
};
})
);
},
{
pos = (0,285);
ref = I;
scale = (1,0.5845);
},
{
closed = 1;
nodes = (
(473,676,o),
(461,671,o),
(440,671,cs),
(410,671,o),
(386,702,o),
(334,702,cs),
(296,702,o),
(257,692,o),
(217,663,c),
(261,601,l),
(288,621,o),
(307,626,o),
(334,626,cs),
(364,626,o),
(388,595,o),
(440,595,cs),
(500,595,o),
(555,635,o),
(562,684,c),
(482,684,l)
);
}
);
width = 627;
},
{
anchors = (
{
name = bottom;
pos = (352,0);
},
{
name = top;
pos = (368,684);
}
);
layerId = "49C16FD3-6177-408B-A733-AEB3898BB77C";
shapes = (
{
closed = 1;
nodes = (
(454,-6,o),
(539,82,o),
(539,219,cs),
(539,687,l,{
"Letterink-NibData" = {
AngleInDegrees = "268.5679";
};
}),
(503,687,l,{
"Letterink-NibData" = {
AngleInDegrees = "184.66686";
};
}),
(501,656,l),
(501,222,ls,{
"Letterink-NibData" = {
AngleInDegrees = "180";
};
}),
(501,103,o),
(429,30,o),
(318,30,cs,{
"Letterink-NibData" = {
AngleInDegrees = "270";
};
}),
(217,30,o),
(147,85,o),
(138,177,c),
(100,172,l),
(110,64,o),
(192,-6,o),
(319,-6,cs,{
"Letterink-NibData" = {
AngleInDegrees = "90";
};
})
);
},
{
alignment = -1;
pos = (0,264);
ref = I;
scale = (1,0.6157);
},
{
closed = 1;
nodes = (
(490,674,o),
(470,666,o),
(443,666,cs),
(401,666,o),
(377,696,o),
(321,696,cs),
(286,696,o),
(246,682,o),
(221,662,c),
(243,634,l),
(261,649,o),
(293,660,o),
(321,660,cs),
(361,660,o),
(385,630,o),
(443,630,cs),
(485,630,o),
(526,650,o),
(538,687,c),
(500,687,l)
);
}
);
width = 615;
},
{
anchors = (
{
name = bottom;
pos = (384,0);
},
{
name = top;
pos = (359,684);
}
);
layerId = m004;
shapes = (
{
closed = 1;
nodes = (
(527,-27,o),
(638,77,o),
(638,244,cs),
(638,684,l,{
"Letterink-NibData" = {
AngleInDegrees = "270";
};
}),
(516,684,l,{
"Letterink-NibData" = {
AngleInDegrees = "211.6075";
};
}),
(473,632,l),
(473,247,ls,{
"Letterink-NibData" = {
AngleInDegrees = "180";
};
}),
(473,187,o),
(429,125,o),
(351,125,cs,{
"Letterink-NibData" = {
AngleInDegrees = "270";
};
}),
(284,125,o),
(225,165,o),
(221,225,c),
(69,212,l),
(76,77,o),
(182,-27,o),
(352,-27,cs,{
"Letterink-NibData" = {
AngleInDegrees = "90";
};
})
);
},
{
pos = (0,300);
ref = I;
scale = (1,0.5611);
},
{
closed = 1;
nodes = (
(498,676,o),
(487,668,o),
(472,668,cs),
(449,668,o),
(409,703,o),
(351,703,cs),
(316,703,o),
(273,692,o),
(239,666,c),
(307,538,l),
(326,552,o),
(336,555,o),
(351,555,cs),
(378,555,o),
(417,520,o),
(472,520,cs),
(549,520,o),
(637,599,o),
(638,684,c),
(500,684,l)
);
}
);
width = 687;
},
{
anchors = (
{
name = bottom;
pos = (347,0);
},
{
name = top;
pos = (363,684);
}
);
associatedMasterId = "49C16FD3-6177-408B-A733-AEB3898BB77C";
layerId = "60A306EB-A9BE-4CAC-A58E-BFF0F7C2CB4B";
name = "7 Jul 22, 13:18";
shapes = (
{
closed = 1;
nodes = (
(452,-6,o),
(539,82,o),
(539,219,cs),
(539,687,l,{
"Letterink-NibData" = {
AngleInDegrees = "268.5679";
};
}),
(503,687,l,{
"Letterink-NibData" = {
AngleInDegrees = "184.66686";
};
}),
(499,656,l),
(503,222,ls,{
"Letterink-NibData" = {
AngleInDegrees = "180";
};
}),
(504,103,o),
(427,30,o),
(313,30,cs,{
"Letterink-NibData" = {
AngleInDegrees = "270";
};
}),
(212,30,o),
(142,85,o),
(133,177,c),
(95,172,l),
(105,64,o),
(187,-6,o),
(314,-6,cs,{
"Letterink-NibData" = {
AngleInDegrees = "90";
};
})
);
},
{
alignment = -1;
pos = (0,264);
ref = I;
scale = (1,0.6157);
},
{
attr = {
identifier = ID0x7f962dd1a620;
lineCapEnd = 4;
strokeHeight = 36;
strokeWidth = 34;
};
closed = 0;
nodes = (
(232,648,l),
(253,665,o),
(290,678,o),
(321,678,cs),
(369,678,o),
(393,648,o),
(443,648,cs),
(478,648,o),
(509,663,o),
(520,687,c)
);
}
);
width = 615;
},
{
anchors = (
{
name = bottom;
pos = (313,0);
},
{
name = top;
pos = (313,684);
}
);
associatedMasterId = "0CAF3BED-C4AC-4024-B3E1-4C69D1EF7EC0";
background = {
shapes = (
{
closed = 1;
nodes = (
(424,-7,o),
(502,70,o),
(502,193,cs),
(502,689,l,{
"Letterink-NibData" = {
AngleInDegrees = "270";
};
}),
(433,689,l,{
"Letterink-NibData" = {
AngleInDegrees = "211.6075";
};
}),
(425,676,o),
(395,663,o),
(375,663,cs,{
"Letterink-NibData" = {
AngleInDegrees = "270";
};
}),
(333,663,o),
(300,698,o),
(250,698,cs,{
"Letterink-NibData" = {
AngleInDegrees = "270";
};
}),
(214,698,o),
(182,692,o),
(125,664,c,{
"Letterink-NibData" = {
AngleInDegrees = "153.09391";
};
}),
(159,597,l,{
"Letterink-NibData" = {
AngleInDegrees = "67.52057000000001";
};
}),
(188,609,o),
(217,620,o),
(242,620,cs,{
"Letterink-NibData" = {
AngleInDegrees = "90";
};
}),
(290,620,o),
(327,587,o),
(370,587,cs,{
"Letterink-NibData" = {
AngleInDegrees = "90";
};
}),
(392,587,o),
(407,589,o),
(420,594,c,{
"Letterink-NibData" = {
AngleInDegrees = "180";
};
}),
(420,196,ls,{
"Letterink-NibData" = {
AngleInDegrees = "180";
};
}),
(420,118,o),
(375,69,o),
(303,69,cs,{
"Letterink-NibData" = {
AngleInDegrees = "270";
};
}),
(227,69,o),
(182,115,o),
(186,188,c,{
"Letterink-NibData" = {
AngleInDegrees = "274.39871";
};
}),
(108,194,l,{
"Letterink-NibData" = {
AngleInDegrees = "181.88819";
};
}),
(104,71,o),
(178,-7,o),
(300,-7,cs,{
"Letterink-NibData" = {
AngleInDegrees = "90";
};
})
);
}
);
};
layerId = "3FE10B5F-3F42-4C74-9893-12DD354C702F";
name = "7 Jul 22, 13:18";
shapes = (
{
closed = 1;
nodes = (
(464,-13,o),
(562,74,o),
(562,236,cs),
(562,684,l,{
"Letterink-NibData" = {
AngleInDegrees = "270";
};
}),
(487,684,l,{
"Letterink-NibData" = {
AngleInDegrees = "211.6075";
};
}),
(481,654,l),
(480,243,ls,{
"Letterink-NibData" = {
AngleInDegrees = "180";
};
}),
(480,122,o),
(415,63,o),
(313,63,cs,{
"Letterink-NibData" = {
AngleInDegrees = "270";
};
}),
(210,63,o),
(158,139,o),
(157,196,c),
(78,185,l),
(80,79,o),
(170,-13,o),
(310,-13,cs,{
"Letterink-NibData" = {
AngleInDegrees = "90";
};
})
);
},
{
pos = (0,285);
ref = I;
scale = (1,0.5845);
},
{
attr = {
identifier = ID0x7f962dd1a620;
lineCapEnd = "4";
strokeHeight = 76;
strokeWidth = 74;
};
closed = 0;
nodes = (
(234,632,l),
(267,656,o),
(297,664,o),
(329,664,cs),
(372,664,o),
(392,633,o),
(435,633,cs),
(477,633,o),
(516,656,o),
(524,684,c)
);
}
);
width = 627;
},
{
anchors = (
{
name = bottom;
pos = (384,0);
},
{
name = top;
pos = (359,684);
}
);
associatedMasterId = m004;
layerId = "E0D82B3F-63AD-4562-96C8-18F73390CCF6";
name = "7 Jul 22, 13:19";
shapes = (
{
closed = 1;
nodes = (
(531,-27,o),
(644,77,o),
(644,244,cs),
(644,684,l,{
"Letterink-NibData" = {
AngleInDegrees = "270";
};
}),
(522,684,l,{
"Letterink-NibData" = {
AngleInDegrees = "211.6075";
};
}),
(479,632,l),
(479,247,ls,{
"Letterink-NibData" = {
AngleInDegrees = "180";
};
}),
(479,187,o),
(433,125,o),
(351,125,cs,{
"Letterink-NibData" = {
AngleInDegrees = "270";
};
}),
(284,125,o),
(223,165,o),
(223,225,c),
(69,212,l),
(76,77,o),
(182,-27,o),
(352,-27,cs,{
"Letterink-NibData" = {
AngleInDegrees = "90";
};
})
);
},
{
pos = (0,300);
ref = I;
scale = (1,0.5611);
},
{
attr = {
identifier = ID0x7f962dd1a620;
lineCapEnd = "4";
strokeHeight = 148;
strokeWidth = 138;
};
closed = 0;
nodes = (
(267,598,l),
(296,619,o),
(325,629,o),
(351,629,cs),
(400,629,o),
(434,594,o),
(478,594,cs),
(519,594,o),
(574,642,o),
(575,684,c)
);
}
);
width = 693;
}
);
metricLeft = I;
metricRight = J;
unicode = 306;
userData = {
position = 507;
width = 53;
};
},
{
glyphname = IJ.ss01;
kernRight = J;
layers = (
{
layerId = "0CAF3BED-C4AC-4024-B3E1-4C69D1EF7EC0";
shapes = (
{
closed = 1;
nodes = (
(437,-13,o),
(527,74,o),
(527,212,cs),
(527,684,l,{
"Letterink-NibData" = {
AngleInDegrees = "270";
};
}),
(446,684,l,{
"Letterink-NibData" = {
AngleInDegrees = "211.6075";
};
}),
(445,215,ls,{
"Letterink-NibData" = {
AngleInDegrees = "180";
};
}),
(445,122,o),
(388,63,o),
(298,63,cs,{
"Letterink-NibData" = {
AngleInDegrees = "270";
};
}),
(208,63,o),
(163,123,o),
(162,176,c),
(83,165,l),
(85,69,o),
(167,-13,o),
(295,-13,cs,{
"Letterink-NibData" = {
AngleInDegrees = "90";
};
})
);
},
{
pos = (0,241);
ref = I;
scale = (1,0.6481);
}
);
width = 592;
},
{
layerId = "49C16FD3-6177-408B-A733-AEB3898BB77C";
shapes = (
{
closed = 1;
nodes = (
(441,-6,o),
(524,80,o),
(524,214,cs),
(524,685,l,{
"Letterink-NibData" = {
AngleInDegrees = 268.5679;
};
}),
(486,684,l,{
"Letterink-NibData" = {
AngleInDegrees = 184.66686;
};
}),
(486,217,ls,{
"Letterink-NibData" = {
AngleInDegrees = 180;
};
}),
(486,101,o),
(416,30,o),
(308,30,cs,{
"Letterink-NibData" = {
AngleInDegrees = 270;
};
}),
(218,30,o),
(147,85,o),
(138,177,c),
(100,172,l),
(109,64,o),
(188,-6,o),
(309,-6,cs,{
"Letterink-NibData" = {
AngleInDegrees = 90;
};
})
);
},
{
alignment = -1;
pos = (0,234);
ref = I;
scale = (1,0.6583);
}
);
width = 600;
},
{
layerId = m004;
shapes = (
{
closed = 1;
nodes = (
(483,-22,o),
(579,78,o),
(579,239,cs),
(579,684,l,{
"Letterink-NibData" = {
AngleInDegrees = "270";
};
}),
(414,684,l,{
"Letterink-NibData" = {
AngleInDegrees = "211.6075";
};
}),
(414,242,ls,{
"Letterink-NibData" = {
AngleInDegrees = "180";
};
}),
(414,187,o),
(384,130,o),
(316,130,cs,{
"Letterink-NibData" = {
AngleInDegrees = "270";
};
}),
(249,130,o),
(218,170,o),
(218,230,c),
(64,217,l),
(56,82,o),
(147,-22,o),
(317,-22,cs,{
"Letterink-NibData" = {
AngleInDegrees = "90";
};
})
);
},
{
pos = (0,275);
ref = I;
scale = (1,0.5969);
}
);
width = 628;
}
);
metricLeft = I;
metricRight = J;
userData = {
position = 507;
width = 53;
};
},
{
glyphname = J;
kernLeft = J;
kernRight = J;
layers = (
{
anchors = (
{
name = bottom;
pos = (282,0);
},
{
name = top;
pos = (282,689);
}
);
layerId = "0CAF3BED-C4AC-4024-B3E1-4C69D1EF7EC0";
shapes = (
{
closed = 1;
nodes = (
(385,-7,o),
(471,74,o),
(471,203,cs),
(471,689,l,{
"Letterink-NibData" = {
AngleInDegrees = 270;
};
}),
(402,689,l,{
"Letterink-NibData" = {
AngleInDegrees = 211.6075;
};
}),
(394,676,o),
(364,663,o),
(344,663,cs,{
"Letterink-NibData" = {
AngleInDegrees = 270;
};
}),
(302,663,o),
(269,698,o),
(219,698,cs,{
"Letterink-NibData" = {
AngleInDegrees = 270;
};
}),
(183,698,o),
(151,692,o),
(94,664,c,{
"Letterink-NibData" = {
AngleInDegrees = 153.09391;
};
}),
(128,597,l,{
"Letterink-NibData" = {
AngleInDegrees = 67.52057;
};
}),
(157,609,o),
(186,620,o),
(211,620,cs,{
"Letterink-NibData" = {
AngleInDegrees = 90;
};
}),
(259,620,o),
(296,587,o),
(339,587,cs,{
"Letterink-NibData" = {
AngleInDegrees = 90;
};
}),
(361,587,o),
(376,589,o),
(389,594,c,{
"Letterink-NibData" = {
AngleInDegrees = 180;
};
}),
(389,206,ls,{
"Letterink-NibData" = {
AngleInDegrees = 180;
};
}),
(389,122,o),
(336,69,o),
(252,69,cs,{
"Letterink-NibData" = {
AngleInDegrees = 270;
};
}),
(164,69,o),
(111,125,o),
(115,204,c,{
"Letterink-NibData" = {
AngleInDegrees = 274.39871;
};
}),
(37,204,l,{
"Letterink-NibData" = {
AngleInDegrees = 181.88819;
};
}),
(33,75,o),
(115,-7,o),
(249,-7,cs,{
"Letterink-NibData" = {
AngleInDegrees = 90;
};
})
);
}
);
width = 536;
},
{
anchors = (
{
name = bottom;
pos = (289,0);
},
{
name = top;
pos = (305,689);
}
);
background = {
shapes = (
{
closed = 1;
nodes = (
(386,-6,o),
(460,68,o),
(460,184,cs),
(460,688,l,{
"Letterink-NibData" = {
AngleInDegrees = "270";
};
}),
(415,688,l,{
"Letterink-NibData" = {
AngleInDegrees = "209.35776";
};
}),
(405,677,o),
(378,670,o),
(356,670,cs,{
"Letterink-NibData" = {
AngleInDegrees = "270";
};
}),
(338,670,o),
(296,697,o),
(248,697,cs,{
"Letterink-NibData" = {
AngleInDegrees = "270";
};
}),
(206,697,o),
(183,690,o),
(166,673,c,{
"Letterink-NibData" = {
AngleInDegrees = "153.43495";
};
}),
(182,641,l,{
"Letterink-NibData" = {
AngleInDegrees = "70.82098999999999";
};
}),
(188,647,o),
(202,662,o),
(248,662,cs,{
"Letterink-NibData" = {
AngleInDegrees = "90";
};
}),
(302,662,o),
(321,635,o),
(354,635,cs,{
"Letterink-NibData" = {
AngleInDegrees = "90";
};
}),
(381,635,o),
(405,639,o),
(422,650,c,{
"Letterink-NibData" = {
AngleInDegrees = "180";
};
}),
(422,187,ls,{
"Letterink-NibData" = {
AngleInDegrees = "180";
};
}),
(422,90,o),
(364,30,o),
(273,30,cs,{
"Letterink-NibData" = {
AngleInDegrees = "270";
};
}),
(181,30,o),
(129,83,o),
(127,156,c,{
"Letterink-NibData" = {
AngleInDegrees = "275.5722";
};
}),
(90,156,l,{
"Letterink-NibData" = {
AngleInDegrees = "176.71075";
};
}),
(97,58,o),
(167,-6,o),
(270,-6,cs,{
"Letterink-NibData" = {
AngleInDegrees = "90";
};
})
);
}
);
};
layerId = "49C16FD3-6177-408B-A733-AEB3898BB77C";
shapes = (
{
closed = 1;
nodes = (
(383,-6,o),
(465,72,o),
(465,194,cs),
(465,688,l,{
"Letterink-NibData" = {
AngleInDegrees = "270";
};
}),
(420,688,l,{
"Letterink-NibData" = {
AngleInDegrees = "209.35776";
};
}),
(410,671,o),
(383,660,o),
(361,660,cs,{
"Letterink-NibData" = {
AngleInDegrees = "270";
};
}),
(320,660,o),
(260,696,o),
(217,696,cs,{
"Letterink-NibData" = {
AngleInDegrees = "270";
};
}),
(192,696,o),
(167,696,o),
(121,672,c,{
"Letterink-NibData" = {
AngleInDegrees = "153.43495";
};
}),
(137,640,l,{
"Letterink-NibData" = {
AngleInDegrees = "70.82098999999999";
};
}),
(155,650,o),
(183,661,o),
(213,661,cs,{
"Letterink-NibData" = {
AngleInDegrees = "90";
};
}),
(277,661,o),
(295,625,o),
(359,625,cs,{
"Letterink-NibData" = {
AngleInDegrees = "90";
};
}),
(386,625,o),
(410,632,o),
(427,650,c,{
"Letterink-NibData" = {
AngleInDegrees = "180";
};
}),
(427,197,ls,{
"Letterink-NibData" = {
AngleInDegrees = "180";
};
}),
(427,94,o),
(361,30,o),
(258,30,cs,{
"Letterink-NibData" = {
AngleInDegrees = "270";
};
}),
(149,30,o),
(94,89,o),
(92,168,c,{
"Letterink-NibData" = {
AngleInDegrees = "275.5722";
};
}),
(55,168,l,{
"Letterink-NibData" = {
AngleInDegrees = "176.71075";
};
}),
(62,62,o),
(136,-6,o),
(255,-6,cs,{
"Letterink-NibData" = {
AngleInDegrees = "90";
};
})
);
}
);
width = 541;
},
{
anchors = (
{
name = bottom;
pos = (313,0);
},
{
name = top;
pos = (288,689);
}
);
layerId = m004;
shapes = (
{
closed = 1;
nodes = (
(419,-22,o),
(513,70,o),
(513,217,cs),
(513,697,l,{
"Letterink-NibData" = {
AngleInDegrees = 270;
};
}),
(406,697,l,{
"Letterink-NibData" = {
AngleInDegrees = 211.6075;
};
}),
(390,682,o),
(365,674,o),
(342,674,cs,{
"Letterink-NibData" = {
AngleInDegrees = 270;
};
}),
(300,674,o),
(260,696,o),
(187,696,cs,{
"Letterink-NibData" = {
AngleInDegrees = 270;
};
}),
(128,696,o),
(92,686,o),
(42,653,c,{
"Letterink-NibData" = {
AngleInDegrees = 153.09391;
};
}),
(110,521,l,{
"Letterink-NibData" = {
AngleInDegrees = 67.52057;
};
}),
(139,534,o),
(172,541,o),
(202,541,cs,{
"Letterink-NibData" = {
AngleInDegrees = 90;
};
}),
(247,541,o),
(275,524,o),
(307,524,cs,{
"Letterink-NibData" = {
AngleInDegrees = 90;
};
}),
(329,524,o),
(344,529,o),
(348,533,c,{
"Letterink-NibData" = {
AngleInDegrees = 180;
};
}),
(348,220,ls,{
"Letterink-NibData" = {
AngleInDegrees = 180;
};
}),
(348,172,o),
(319,130,o),
(264,130,cs,{
"Letterink-NibData" = {
AngleInDegrees = 270;
};
}),
(206,130,o),
(173,168,o),
(173,237,c,{
"Letterink-NibData" = {
AngleInDegrees = 274.39871;
};
}),
(19,237,l,{
"Letterink-NibData" = {
AngleInDegrees = 181.88819;
};
}),
(10,94,o),
(101,-22,o),
(265,-22,cs,{
"Letterink-NibData" = {
AngleInDegrees = 90;
};
})
);
}
);
width = 562;
}
);
metricRight = "=H*.95";
unicode = 74;
userData = {
position = 333;
width = 53;
};
},
